<?xml version="1.0" standalone="no"?>
<!DOCTYPE svg PUBLIC "-//W3C//DTD SVG 1.1//EN" "http://www.w3.org/Graphics/SVG/1.1/DTD/svg11.dtd" >
<!--
2013-9-30: Created.
-->
<svg>
<metadata>
Created by iconfont
</metadata>
<defs>

<font id="iconfont" horiz-adv-x="1024" >
  <font-face
    font-family="iconfont"
    font-weight="500"
    font-stretch="normal"
    units-per-em="1024"
    ascent="896"
    descent="-128"
  />
    <missing-glyph />
    
    <glyph glyph-name="weixin" unicode="&#58912;" d="M650.25195313 509.33203125c8.61328125 0 17.2265625 0 25.83984374-1.40625C651.74609375 618.4921875 533.88476563 700.40625 398.796875 700.40625 247.9765625 700.40625 124.40234375 596.95898438 124.40234375 467.671875c0-74.70703125 40.25390625-137.90039063 109.16015625-185.36132813l-27.33398438-81.91406249L302.46875 247.76953125c34.453125-7.20703125 61.78710938-14.32617188 96.24023438-14.32617188 8.61328125 0 17.2265625 0 27.33398437 1.40625001-5.71289063 18.72070313-8.61328125 37.35351563-8.61328125 57.48046875 0.08789063 119.26757813 102.12890625 217.00195313 232.82226563 217.00195312z m-148.00781251 74.70703125c21.53320313 0 34.453125-14.32617188 34.45312501-34.453125 0-20.12695313-14.32617188-34.453125-34.453125-34.453125-21.53320313 0-41.66015625 14.4140625-41.66015625 34.453125 0 21.53320313 21.62109375 34.453125 41.66015625 34.453125z m-190.10742187-64.24804688c-21.70898438 0-42.01171875 14.23828125-42.01171875 34.10156251 0 21.35742188 21.70898438 34.1015625 42.01171875 34.1015625s34.71679688-14.23828125 34.71679688-34.1015625c0.08789063-19.95117188-14.4140625-34.1015625-34.71679688-34.1015625zM900.30078125 295.23046875c0 110.65429688-109.16015625 199.6875-232.734375 199.6875-130.78125 0-234.22851563-90.52734375-234.22851563-199.6875 0-110.65429688 103.44726563-199.6875 234.22851563-199.6875 27.33398438 0 54.58007813 7.20703125 81.9140625 14.32617188l74.70703125-41.66015626-20.12695313 68.99414063c54.58007813 41.66015625 96.24023438 96.24023438 96.24023438 158.02734375z m-308.93554688 34.453125c-12.91992188 0-27.33398438 12.91992188-27.33398437 27.33398438 0 12.91992188 14.32617188 27.33398438 27.33398438 27.33398437 20.12695313 0 34.453125-14.32617188 34.453125-27.33398438 0-14.4140625-12.91992188-27.33398438-34.453125-27.33398437z m156.44531251 6.6796875c-13.0078125 0-27.50976563 12.83203125-27.50976563 26.98242188 0 12.83203125 14.50195313 26.98242188 27.50976562 26.98242187 20.30273438 0 34.71679688-14.23828125 34.71679688-26.98242188 0-14.23828125-14.4140625-26.98242188-34.71679688-26.98242187z"  horiz-adv-x="1024" />

    
    <glyph glyph-name="weixinzhifu" unicode="&#59017;" d="M409.91152344 303.50537109000004c-3.44619141-1.74023438-6.975-2.57080078-11.25878906-2.57080078-9.58007813 0-17.39443359 5.14160156-21.76523438 12.85400391l-1.76308594 3.39609375-68.64785156 147.57978516c-0.84023437 1.74023438-0.84023437 3.39697266-0.84023437 5.13720703 0 6.88183594 5.21015625 12.0234375 12.18427734 12.0234375 2.60595703 0 5.21015625-0.8296875 7.81611328-2.56992188l80.82861328-56.62792969c6.05039063-3.39609375 13.02539063-5.96777344 20.83710938-5.96777343 4.36992188 0 8.65722656 0.83056641 13.02714843 2.57167968L819.36230469 585.72744141c-67.80673828 78.92929687-179.89804688 130.415625-306.8569336 130.415625-206.86904297 0-375.50566406-138.12714844-375.50566406-308.75449219 0-92.60859375 50.41494141-176.67509766 129.48310547-233.30302734 6.046875-4.31103516 10.41679687-12.0234375 10.41679688-19.73144532 0-2.57080078-0.84111328-5.14160156-1.76308594-7.71240234-6.04775391-23.13105469-16.55068359-60.93808594-16.5506836-62.59833984-0.84199219-2.56640625-1.76923828-5.96777344-1.76923828-9.44824219 0-6.88183594 5.21103516-12.0234375 12.18603516-12.0234375 2.60419922 0 5.21015625 0.8296875 6.97412109 2.57080078l81.66972657 47.17441406c6.05126953 3.40136719 13.02539063 5.97128906 20.00039062 5.97128906 3.44179688 0 7.81259766-0.8296875 11.25878906-1.74023437 38.22890625-11.11289063 79.99101563-17.16503906 122.58984375-17.16503906 206.86992187 0 375.50390625 138.12714844 375.50390625 308.75449218 0 51.48632813-15.62695313 100.32099609-42.59794922 143.26435547l-431.88574218-246.15527343-2.60419922-1.74023438z"  horiz-adv-x="1024" />

    
    <glyph glyph-name="share" unicode="&#58922;" d="M877.625 412.125c-15.525 0-28.125-12.6-28.125-28.125l0-281.25c0-15.525-12.6-28.125-28.125-28.125L202.625 74.625c-15.525 0-28.125 12.6-28.125 28.125L174.5 580.875c0 15.525 12.6 28.125 28.125 28.125l196.875 0 0 0c0 0 0 0 0 0 15.525 0 28.125 12.6 28.125 28.125s-12.6 28.125-28.125 28.125c-0.9 0-1.659375-0.421875-2.53125-0.50625L202.9625 664.74375c-46.546875 0-84.290625-37.8-84.290625-84.43125l0-478.0125c0-46.63125 37.74375-84.43125 84.290625-84.43125l618.946875 0c46.546875 0 84.290625 37.8 84.290625 84.43125L906.2 384 905.75 384C905.75 399.525 893.15 412.125 877.625 412.125zM415.925 288.40312500000005c-1.6875-3.628125-2.784375-7.565625-2.784375-11.8125 0-15.525 12.6-28.125 28.125-28.125 13.584375 0 24.384375 9.815625 27.028125 22.640625l0.5625 0c32.625 166.725 170.49375 295.5375 341.60625 314.8875l-59.56875-59.56875c-10.996875-10.996875-10.996875-28.8 0-39.76875 10.996875-10.996875 28.8-10.996875 39.76875 0l107.690625 107.690625c10.996875 10.996875 10.996875 28.8 0 39.76875l-107.690625 107.690625c-10.996875 10.996875-28.8 10.996875-39.76875 0-10.996875-10.996875-10.996875-28.8 0-39.76875l59.34375-59.34375C614.178125 623.175 455.946875 477.684375 415.925 288.40312500000005z"  horiz-adv-x="1024" />

    
    <glyph glyph-name="user-minus" unicode="&#58979;" d="M519.074 303.80499999999995c-55.734 0-107.944 25.384-147.014 71.475-38.306 45.191-59.402 105.08-59.402 168.636 0 63.535 21.096 123.414 59.402 168.604C411.133 758.614 463.344 784 519.074 784c55.723 0 107.923-25.387 146.981-71.484 38.287-45.187 59.373-105.064 59.373-168.601 0-63.557-21.086-123.445-59.373-168.633C627.001 329.18899999999996 574.801 303.80499999999995 519.074 303.80499999999995zM519.074 745.873c-92.794 0-168.288-90.598-168.288-201.958 0-111.374 75.494-201.982 168.288-201.982 92.761 0 168.227 90.609 168.227 201.982C687.301 655.274 611.835 745.873 519.074 745.873zM155.979 2.3859999999999673l-38.128 0c0 34.492 11.305 67.745 33.603 98.835 20.802 29.006 50.31 54.896 87.703 76.949 75.07 44.275 174.48 68.658 279.917 68.658l0-38.127c-98.727 0-191.258-22.506-260.547-63.371C192.398 106.32799999999997 155.979 55.56200000000001 155.979 2.3859999999999673zM651.999 170.65300000000002l173.119 0 0-38.127-173.119 0 0 38.127ZM738.559-16c-92.408 0-167.59 75.17-167.59 167.565 0 92.409 75.182 167.59 167.59 167.59 92.409 0 167.59-75.181 167.59-167.59C906.148 59.16999999999996 830.968-16 738.559-16zM738.559 281.02700000000004c-71.387 0-129.462-58.076-129.462-129.462 0-71.373 58.075-129.438 129.462-129.438 71.385 0 129.463 58.064 129.463 129.438C868.021 222.95100000000002 809.943 281.02700000000004 738.559 281.02700000000004z"  horiz-adv-x="1024" />

    
    <glyph glyph-name="name" unicode="&#58963;" d="M443.6832 347.60746667c22.2432 17.7248 36.49173333 45.1808 36.49173333 76.11093333 0 53.42186667-42.6976 96.7648-95.3248 96.7648-52.57813333 0-95.2256-43.2928-95.2256-96.81386667 0-30.88106667 14.3488-58.33706667 36.4416-76.06186666a161.25866667 161.25866667 0 0 1-100.0416-149.7888h47.66293334c0 62.40746667 49.7472 112.94933333 111.2128 112.94933333 61.46453333 0 111.21173333-50.54186667 111.21173333-112.94933333h47.66293333c0 68.01813333-41.456 126.05653333-100.09173333 149.7888z m-58.784 27.70453333a48.01066667 48.01066667 0 0 0-47.66186667 48.4064c0 26.71146667 21.34933333 48.3584 47.66293334 48.3584s47.66186667-21.64693333 47.66186666-48.3584-21.34826667-48.4064-47.66186666-48.4064z m389.2448 0H615.26933333a23.97973333 23.97973333 0 0 1-23.83146666-24.1792c0-13.4048 10.67413333-24.1792 23.83146666-24.1792H774.144c13.2064 0 23.83146667 10.77333333 23.83146667 24.1792a24.02986667 24.02986667 0 0 1-23.83146667 24.1792z m0 112.94933333H615.26933333a23.97973333 23.97973333 0 0 1-23.83146666-24.17813333c0-13.4048 10.67413333-24.1792 23.83146666-24.1792H774.144c13.2064 0 23.83146667 10.77333333 23.83146667 24.1792a24.02986667 24.02986667 0 0 1-23.83146667 24.17813333z m71.49333333 193.62986667h-667.27466666a64.04693333 64.04693333 0 0 1-63.55093334-64.544v-516.34346667c0-35.59786667 28.448-64.544 63.55093334-64.544h667.27466666a64.04693333 64.04693333 0 0 1 63.55093334 64.544V617.3482666699999c0 35.69706667-28.49813333 64.54293333-63.55093334 64.54293333z m15.83786667-564.6528c0-17.87306667-14.24853333-32.27093333-31.77493333-32.27093333H194.20053333a32.07253333 32.07253333 0 0 0-31.776 32.27093333V601.21173333c0 17.824 14.29973333 32.272 31.776 32.272h635.49973334c17.52533333 0 31.776-14.448 31.776-32.272v-483.97333333zM710.544 262.36159999999995h-95.27466667a23.97973333 23.97973333 0 0 1-23.83146666-24.1792c0-13.4048 10.67413333-24.1792 23.83146666-24.1792h95.3248c13.15626667 0 23.83146667 10.77333333 23.83146667 24.1792a23.97973333 23.97973333 0 0 1-23.83146667 24.1792z"  horiz-adv-x="1024" />

    
    <glyph glyph-name="search" unicode="&#58895;" d="M755.48457355 205.56361378999998l1.25555423-1.25555423 144.20276177-153.36365974a23.25100976 23.25100976 0 0 0-33.85346958-31.90038557l-143.87724803 152.9916437a348.76514499 348.76514499 0 1 0 32.27240161 33.48145355zM791.01211647 430.26137158a302.26312546 302.26312546 0 1 1-604.5262517 0 302.26312546 302.26312546 0 0 1 604.5262517 0z"  horiz-adv-x="1024" />

    
    <glyph glyph-name="plus" unicode="&#59892;" d="M866.5 420H548V730.5c0 19.9-16.1 36-36 36s-36-16.1-36-36V420H164.5c-19.9 0-36-16.1-36-36s16.1-36 36-36H476v-311.5c0-19.9 16.1-36 36-36s36 16.1 36 36V348h318.5c19.9 0 36 16.1 36 36s-16.1 36-36 36z"  horiz-adv-x="1025" />

    
    <glyph glyph-name="minus" unicode="&#59077;" d="M123.63851852 384h776.72296296v77.6722963H123.63851852z"  horiz-adv-x="1024" />

    
    <glyph glyph-name="tongzhi" unicode="&#58942;" d="M559.9707718 664.48610688c-32.90748596 19.69814301-72.92175293 20.54786682-106.91070558 2.31742858L244.0280075 552.9405441399999l-38.00582885-2.08568575c-22.78804779-0.15449524-44.26288605-9.11521912-60.48488617-25.25997162C129.54703521 509.60462951 120.35456848 487.89804841 120.35456848 466.03697205v-173.26641083c0-47.50728607 37.85133362-84.74063873 86.1310959-84.74063874h50.67443846l195.82271576-106.6789627 0.07724763-0.07724762c16.29924774-8.72898102 33.98895263-13.13209534 51.60140991-13.13209534 19.15740967 0 38.16032409 5.17559052 55.30929566 15.37227631 30.89904786 18.4621811 49.36122894 50.365448 49.36122893 85.28137207V579.2819824200001c0 34.91592407-18.4621811 66.74194336-49.36122894 85.20412446zM578.43295288 188.87251282c0-23.94676208-12.82310486-45.88508606-34.29794311-58.70819092-23.48327637-14.05906677-52.06489563-14.67704773-76.39789582-1.62220001l-202.6977539 110.46409608h-58.55369568C175.5093689 239.00621795999996 151.25361633 262.64398956 151.25361633 292.84780882999996V466.03697205C151.25361633 495.23657227 176.51358794 519.95581055 206.48566437 519.95581055l46.19407654 2.54917145L467.73711395 639.6896209700001c24.33300019 13.05484772 52.83737182 12.43686677 76.39789582-1.62220001 21.47483826-12.82310486 34.29794312-34.76142883 34.29794311-58.70819091v-390.48671723zM908.04854584 391.72476196c-1.77669526 46.8120575-12.82310486 91.84741974-32.90748597 133.71562958-19.3119049 40.55500031-46.11682892 76.39789582-79.64229583 106.52446747-6.33430481 5.71632385-16.14475251 5.17559052-21.78382873-1.1587143-5.71632385-6.33430481-5.17559052-16.14475251 1.15871429-21.78382872 62.80231477-56.46800995 99.1859436-134.02462006 102.353096-218.3790207 3.47614289-91.3066864-33.29372407-179.0599823-100.96263886-240.70358277-0.92697143-0.84972382-1.85394287-1.69944763-2.78091429-2.47192382-6.41155243-5.63907623-6.95228576-15.44952393-1.31320954-21.78382873 3.08990479-3.39889526 7.26127625-5.17559052 11.58714295-5.17559053 3.63063813 0 7.33852387 1.31320954 10.27393341 3.93962861 1.00421906 0.92697143 2.00843811 1.85394287 3.08990478 2.7809143 74.31221008 67.59166718 114.78996277 164.07394409 110.92758178 264.49584961zM773.48319245 385.00421906c-2.31742859 61.25736237-31.28528595 118.18885803-79.56504823 156.11743927-1.08146667 0.84972382-2.24018097 1.69944763-3.32164764 2.54917144-6.79779052 5.17559052-16.5309906 3.78513337-21.6293335-3.01265716-5.17559052-6.79779052-3.78513337-16.5309906 3.01265717-21.6293335 0.92697143-0.69522858 1.9311905-1.46770478 2.85816193-2.24018097C715.93371583 484.42190552 740.65295411 435.98764802 742.58414459 383.76825713000005c2.16293335-56.08177185-21.55208588-108.68740082-65.04249573-144.37580107-6.56604767-5.40733338-7.57026672-15.14053344-2.16293335-21.70658112 3.08990479-3.70788575 7.49301911-5.63907623 11.97338105-5.63907624 3.47614289 0 6.95228576 1.1587143 9.81044768 3.47614289 24.41024781 20.00713349 44.18563843 45.65334321 57.39498139 74.23496247 13.82732392 30.04932404 20.16162873 62.10708618 18.92566681 95.246315z"  horiz-adv-x="1025" />

    
    <glyph glyph-name="address" unicode="&#58880;" d="M512.09668625 563.88658219a99.58288406 99.58288406 0 1 0-70.78783313-29.39494782A99.58288406 99.58288406 0 0 0 512.09668625 563.88658219m0 59.98968937a160.17247031 160.17247031 0 1 1 113.38051313-46.79195812A158.97267656 158.97267656 0 0 1 512.09668625 623.8762715600001zM786.84946344 747.45503156a382.13432062 382.13432062 0 0 1-549.50555344 0 404.33050594 404.33050594 0 0 1 0-562.10338875L512.09668625-96l274.75277719 281.35164281a404.33050594 404.33050594 0 0 1 0 562.10338875z m-41.39288532-522.51019406l-233.35989187-239.95875656-233.35989094 239.95875656a342.54112594 342.54112594 0 0 0 0 476.91802969 325.14411562 325.14411562 0 0 0 466.71978282 0 342.54112594 342.54112594 0 0 0 0-476.91802969z"  horiz-adv-x="1024" />

    
    <glyph glyph-name="zhuying" unicode="&#58881;" d="M564.97395833 360.69140600000003h94.921875v-93.07617137H1087.04427083s-7.066406 207.50976537-9.4921875 272.42578125c-2.37304688 61.69921875-24.89062525 99.8789065-94.921875 99.87890574h-152.24414088L773.53841171 744.86132813c-15.66210938 29.0039065-21.09375025 34.64648438-55.89843776 34.64648437h-210.41015624c-34.910156 0-40.23632838-5.64257787-55.95117163-34.59374975-7.85742162-14.50195287-33.22265625-61.33007787-56.79492187-105.046875H242.23958333C172.15559895 639.8671877500001 149.95442683 601.7929684999999 147.31770833 540.0937497499999 144.68098983 478.34179713 137.82552083 267.61523463000003 137.82552083 267.61523463000003h427.1484375V360.69140600000003zM500.84895808 690.3867185c10.91601563 20.1445315 14.60742213 24.046875 38.75976562 24.046875h145.546875c24.20507813 0 27.9492185-3.9023435 38.75976563-24.046875 4.06054662-7.38281225 15.0820315-27.84375 27.31640675-50.46679688H473.58528671c12.128906 22.57031225 23.20312475 43.03125 27.26367137 50.46679688zM659.89583333 128.13281225000003H564.97395833v93.0234375H161.55598958s5.90625025-83.6367185 9.4921875-154.5117185C172.41927058 37.06054687000005 181.27864558-11.5078125 256.47786458-11.5078125h711.9140625c75.09374975 0 83.74218775 48.7265625 85.4296875 78.04687525 4.11328125 72.93164063 9.4921875 154.61718775 9.4921875 154.617187H659.89583333v-93.0234375z"  horiz-adv-x="1228" />

    
    <glyph glyph-name="down" unicode="&#58882;" d="M514.2656 172.71839999999997a24.144 24.144 0 0 0-16.536 6.4992 9.9072 9.9072 0 0 1-0.8832 0.9936 13.992 13.992 0 0 1-2.5536 1.9056l-373.5216 370.176a24.1728 24.1728 0 0 0-7.2 17.1648 24.1488 24.1488 0 0 0 7.0464 17.2176 24.1584 24.1584 0 0 0 17.2704 7.2c6.456 0 12.5328-2.5008 17.1168-7.0464l358.9152-355.6944 353.9952 357.2304a24.2064 24.2064 0 0 0 17.616 7.56c6.3024 0 12.288-2.4096 16.8336-6.7824a24.1248 24.1248 0 0 0 7.4496-17.0304 24.1392 24.1392 0 0 0-6.7776-17.3088l-371.5248-374.8992a24.1392 24.1392 0 0 0-17.2464-7.1856z"  horiz-adv-x="1024" />

    
    <glyph glyph-name="zhifubao" unicode="&#59018;" d="M877.7140625 251.93343749999997l-235.275 79.1175s18.0815625 27.065625 37.381875 80.13c19.303125 53.068125 22.0678125 82.2084375 22.0678125 82.2084375l-152.300625 1.2553125v52.0190625l184.4428125 1.3003125v36.7753125H549.5515625v83.709375h-90.335625v-83.713125H287.1246875v-36.7753125l172.09125 1.2225v-55.7934375h-138.0375v-29.1365625h284.1225s-3.1284375-23.6465625-14.0203125-53.068125c-10.8890625-29.41875-22.10625-55.183125-22.10625-55.183125s-133.40625 46.69125-203.7046875 46.69125c-70.2984375 0-155.795625-28.2403125-164.085-110.203125-8.25-81.9215625 39.8259375-126.29625 107.5575-142.6303125 67.74-16.4184375 130.276875 0.1621875 184.725 26.8190625 54.4565625 26.6165625 107.8884375 87.1246875 107.8884375 87.1246875l274.205625-133.1634375c-11.18625-64.96875-67.5628125-112.419375-133.4878125-112.35375H281.721875c-74.731875-0.073125-135.3675 60.4528125-135.436875 135.181875V614.274375c-0.069375 74.7375 60.4621875 135.3740625 135.1921875 135.440625h460.7990625c74.731875 0.0684375 135.37125-60.459375 135.436875-135.1903125v-362.59125z m-342.9 45.8390625s-85.595625-108.058125-186.4490625-108.058125c-100.8965625 0-122.079375 51.3440625-122.079375 88.2703125 0 36.88125 20.9746875 77.01 106.8215625 82.8121875 85.7990625 5.79375 201.75-63.024375 201.75-63.024375h-0.0440625z"  horiz-adv-x="1024" />

    
    <glyph glyph-name="tel" unicode="&#58897;" d="M676.36999971 220.04999970999995c-22.92000029 22.16999971-67.77 59.33999971-110.16 59.37000029-14.15999971 0-27.24000029-4.07999971-38.00999971-11.85000029l-27.02999971-19.55999971c-42.32999971 9-85.74000029 45.9-116.61000029 99.38999971-30.93000029 53.48999971-41.19000029 109.50000029-27.87000029 150.66l30.44999971 13.68c38.81999971 17.46 51.41999971 67.61999971 35.61000029 141.36000029-12.75000029 59.33999971-56.04000029 171.51000029-128.97 171.51000029-7.02 0-14.10000029-1.10999971-20.81999971-3.30000029L221.39 804.63000029C177.2 790.28999971 143.92999971 753.20999971 134.54 707.79000029 106.88000029 574.53 141.56 410.57999971 229.67 257.97000029000003c88.17000029-152.57999971 212.91000029-264.57000029 342.09-307.17 13.14-4.29000029 26.75999971-6.50999971 40.56000029-6.5099997 32.10000029 0 62.93999971 11.81999971 86.73000029 33.3l40.2000003 36.2999997c14.28000029 12.87 35.07000029 42.72000029 13.7999997 98.03999971C740.21000029 145.34999971000002 710.87000029 186.78000028999998 676.36999971 220.04999970999995zM709.93999971 46.38000029l-40.2000003-36.2999997c-15.75-14.22-36.20999971-22.05-57.42-22.05-9.11999971 0-18.15000029 1.44-26.82 4.32-119.22000029 39.30000029-235.10999971 144.09-317.97 287.52000029C184.73000029 423.26999971 151.82 576.03000029 177.38 698.91 183.61999971 728.97 205.61000029 753.54 234.86000029 763.01999971l51.5400003 16.74C288.86000029 780.51000029 291.29000029 780.9 293.77999971 780.9c34.02 0 72.06000029-70.80000029 86.2499997-136.98 10.41000029-48.44999971 6.12-84.66000029-10.7399997-92.31000029l-46.28999971-20.76000029-1.17-2.43000001c-25.71000029-54.06000029-16.2-131.82000029 24.84-202.8899997 41.06999971-71.12999971 103.65000029-118.19999971 163.35-122.94l2.7-0.20999971 41.10000029 29.72999971c3.30000029 2.40000029 7.31999971 3.57000029 12.3900003 3.57000029 40.65000029-0.02999971 122.51999971-78.18000029 146.0099997-139.38000029C718.48999971 80.09999971000002 723.16999971 58.260000289999994 709.93999971 46.38000029zM858.61999971 594.69c-48.08999971 94.77-130.20000029 165.12000029-231.27000029 198.11999971-2.16 0.72-4.47000029 1.10999971-6.77999971 1.1099997-9.47999971 0-17.82-6.05999971-20.76000029-15.09000029-3.71999971-11.43 2.54999971-23.78999971 14.01000029-27.54 89.93999971-29.36999971 163.05000029-92.00999971 205.80000029-176.33999971 42.86999971-84.35999971 50.24999971-180.33000029 20.88-270.27-3.75000029-11.45999971 2.54999971-23.82000029 14.04-27.53999999 2.13000029-0.72 4.41-1.10999971 6.75-1.10999971 9.47999971 0 17.88000029 6.05999971 20.81999971 15.09000029C915.08000029 392.12999971 906.71000029 499.92 858.61999971 594.69zM586.40000029 667.25999971c-2.18999971 0.69000029-4.47000029 1.08-6.81000029 1.08-9.47999971 0-17.88000029-6.05999971-20.76000029-15.0900003-3.75000029-11.43 2.54999971-23.82000029 13.97999971-27.54 56.34-18.36 102.12000029-57.66000029 128.9999997-110.6399997 26.88000029-52.98000029 31.61999971-113.13 13.14-169.40999971-3.71999971-11.45999971 2.58000029-23.82000029 14.04-27.60000029 2.22000029-0.69000029 4.5-1.05000029 6.8100003-1.0500003 9.47999971 0 17.84999971 6.05999971 20.76000029 15.05999971 21.98999971 67.41 16.40999971 139.41-15.75 202.77C708.58999971 598.22999971 653.75 645.24000029 586.40000029 667.25999971zM531.8 500.19c47.22000029-15.45000029 73.01999971-66.35999971 57.6-113.55000029-3.71999971-11.43 2.58000029-23.78999971 14.04-27.56999971 2.18999971-0.69000029 4.47000029-1.08 6.75-1.08 9.51000029 0 17.88000029 6.09000029 20.81999971 15.09000029 22.92000029 70.08000029-15.54000029 145.73999971-85.61999971 168.66-2.16 0.72-4.47000029 1.10999971-6.81000029 1.10999971-9.47999971 0-17.82-6.05999971-20.79-15.05999971C514.07 516.27000029 520.34000029 503.90999971 531.8 500.19z"  horiz-adv-x="1024" />

    
    <glyph glyph-name="question" unicode="&#58886;" d="M511.57285156 777.84316406c-100.66289063 0-201.32402344-38.24121094-278.3671875-115.284375-153.52470703-153.52382812-153.52470703-403.21054687 0-556.734375 77.04316406-77.04404297 177.70429688-115.284375 278.3671875-115.284375s201.32490234 38.24121094 278.3671875 115.284375c153.52470703 153.52382812 153.52470703 403.21054687 0 556.734375-77.04228516 77.04404297-177.70517578 115.284375-278.3671875 115.284375z m0-39.36621093c46.11357422 0 91.10214844-8.99648437 133.27910157-25.86796875 43.86357422-17.99560547 83.22802734-43.86357422 116.97011718-78.16728516 34.30371094-33.74121094 60.17255859-73.10742188 78.16728516-116.97011719 16.87060547-42.17695313 25.86884766-87.16552734 25.86884766-133.27910156s-8.99824219-91.10214844-25.86884766-133.27910156c-17.99472656-43.86357422-43.86357422-83.22802734-78.16728516-116.97011719-33.74121094-34.30371094-73.10742188-60.17255859-116.97011718-78.16728516-42.17695313-16.87148438-87.16552734-25.86884766-133.27910157-25.86884765s-91.10214844 8.99736328-133.27910156 25.86884765c-43.86357422 17.99560547-83.22890625 43.86357422-116.97011719 78.16728516-34.30371094 33.74121094-60.17255859 73.10742188-78.16728515 116.97011719-16.87148438 42.17695313-25.86884766 87.16552734-25.86884766 133.27910156s8.99736328 91.10214844 25.86884766 133.27910156c17.99560547 43.86357422 43.86357422 83.22802734 78.16728515 116.97011719 33.74121094 34.30371094 73.10742188 60.17255859 116.97011719 78.16728516 42.17695313 16.87148438 87.16552734 25.86884766 133.27910156 25.86884765zM511.57285156 241.35351562000005c-16.30898437 0-30.36708984-13.49648437-30.36708984-30.36708984 0-16.30898437 14.05898437-29.80546875 30.36621094-29.80546875 16.87148438 0 30.36796875 13.49648437 30.36796875 29.80546875 0 16.86972656-13.49648437 30.36621094-30.36708985 30.36621094z m0.5625 345.84960938c-37.11621094 0-66.91992188-9.55986328-89.41464844-29.80371094-22.49384766-19.68310547-36.55283203-48.36357422-41.05107421-86.04140625l51.1743164-6.18662109c3.93662109 28.11796875 13.49648437 48.92519531 27.55546875 61.85917969 14.05898437 13.49648437 31.49121094 19.68222656 52.29931641 19.68222656 21.93134766 0 40.48945312-7.30986328 55.6734375-21.93134766 14.62148437-14.05898437 21.93134766-30.92958984 21.93134765-50.6118164 0-10.12324219-2.25-20.24560547-7.30986328-29.24296875-5.06074219-8.99736328-16.30898437-20.80722656-33.17958984-35.99121094-17.43310547-15.18310547-29.24296875-26.43134766-35.99121094-34.30371094-8.43486328-10.68486328-15.18310547-21.36972656-19.11972656-32.05371094-5.62412109-14.05986328-8.43574219-30.93046875-8.43574219-50.05019531l0.5625-15.18398437h47.23769531c0.5625 19.68222656 1.6875 34.30371094 3.9366211 42.73945312 2.81162109 8.99736328 6.18574219 16.87060547 11.24648437 23.61884766 5.06074219 6.74824219 15.18398437 17.43222656 31.49208985 31.49121093 23.61884766 21.37060547 39.92783203 39.36621094 48.36357422 53.98769532 7.87324219 14.62148437 12.37148437 30.92958984 12.37148437 48.36269531 0 30.36621094-11.80986328 56.2359375-35.42871094 77.60566406-23.05634766 21.36972656-54.5484375 32.05371094-93.91289062 32.05371094z"  horiz-adv-x="1024" />

    
    <glyph glyph-name="copy" unicode="&#58902;" d="M835.4375 616.903125l-142.396875 145.9125Q678.10625 777.75 657.884375 777.75h-278.60625q-22.865625 0-40.44375-15.834375-14.934375-13.190625-20.221875-32.5125H265.878125q-37.8 0-64.603125-27.253125t-26.803125-66.796875v-551.08125q0-38.671875 26.803125-66.346875T265.878125-9.75h446.484375q37.8 0 64.603125 27.675t26.803125 66.346875v55.378125q20.221875 5.2875 32.9625 22.415625t12.740625 39.121875V581.746875q0 21.09375-14.0625 35.15625z m-147.65625 141.496875l-2.64375 2.64375z m86.146875-156.43125L715.90625 661.734375z m-110.75625 102.825l94.921875-96.69375h-94.921875V704.79375zM657.0125 721.5zM242.16875 0.796875q3.515625-0.871875 4.3875-1.771875-1.771875 0.871875-4.3875 1.771875z m23.7375-3.515625q-5.2875 0-10.546875 0.871875 4.3875-0.871875 10.546875-0.871875z m477.253125 87.01875q0-13.190625-8.803125-22.415625t-21.965625-9.225H265.90625q-12.31875 0-21.54375 9.225t-9.225 22.415625V635.38125q0 13.190625 9.225 22.415625t21.54375 9.225h50.990625v-466.70625q0-26.38125 18.45-44.83125t43.959375-18.45H743.1875v-52.734375z m45.703125 116.8875q0-1.771875-1.771875-1.771875h-407.8125q-1.771875 0-1.771875 1.771875V713.596875q0 1.771875 1.771875 1.771875h220.6125v-137.98125q0-13.190625 8.803125-21.965625t21.09375-8.803125h159.075v-345.403125z m8.775-56.25q3.515625 0.871875 7.903125 1.771875-4.3875-0.871875-7.903125-1.771875z m-214.453125 148.528125h-94.05q-13.190625 0-21.965625-9.225t-8.803125-21.965625 8.803125-21.965625 21.965625-9.225h94.05q12.31875 0 21.54375 9.225t9.225 21.965625-9.225 21.965625-21.54375 9.225z m94.05 97.565625h-188.1q-12.31875 0-21.54375-9.225t-9.225-21.965625 9.225-21.965625 21.54375-9.225h188.1q12.31875 0 21.09375 9.225t8.803125 21.965625-8.803125 21.965625-21.09375 9.225z m-211.809375-31.640625q0-3.515625 0.871875-7.03125-0.871875 3.515625-0.871875 7.03125zM677.234375 384z m10.546875-45.703125l3.515625 1.771875z m-229.3875 119.08125q0-12.740625 9.225-21.965625t21.54375-9.225h188.1q12.31875 0 21.09375 9.225t8.803125 21.965625-8.803125 21.965625-21.09375 9.225h-188.1q-12.31875 0-21.54375-9.225t-9.225-21.965625z m7.03125-1.321875z"  horiz-adv-x="1024" />

    
    <glyph glyph-name="kefu" unicode="&#58907;" d="M512.00158125 779.5078125c-208.94828444 0-378.32752708-165.76042726-378.32752707-370.234596 0-187.26226433 142.04129381-342.04213866 326.4341173-366.79600938-1.68451257-10.56634193-4.42589542-28.40035387-5.93096872-41.40295437-0.03241001-0.28299202-0.06640052-0.56835477-0.09722926-0.84660378-0.01659974-0.23398226-0.03557176-0.46796377-0.03557176-0.70668904 0-5.48909071 4.45040068-9.93949138 9.93949139-9.93949139 0.73040328 0 1.43946382 0.08379049 2.12480933 0.23319126 0.97861379 0.39682102 2.01019009 0.81577503 3.08840386 1.25528154 30.87692645 12.5828555 101.30471372 42.2068719 152.08196645 63.632824 155.6691636 45.86679305 269.04766406 187.26226433 269.04766406 354.57045115C890.32594582 613.7473852400001 720.94670319 779.5078125 512.00158125 779.5078125zM595.82957953 85.67375931000004L494.3288268 41.11521031999996c-0.09406674-0.072724-0.20315352-0.12015326-0.3256775-0.1430765l-0.33200177-0.145448-0.00948601 0.00948601c-0.29168701 0.05849576-0.50748828 0.27824902-0.57625951 0.56519302l0 35.50518514c-176.72279917 12.18366296-316.22349141 156.32130888-316.22349141 332.36666728 0 184.02604096 147.08455376 333.21564257 335.13650814 333.21564257 188.05511613 0 340.4927986-149.1896016 340.49279861-333.21564257C852.49121734 252.71476360999998 744.52671211 121.41134545 595.82957953 85.67375931000004zM650.94577545 305.1456994c-5.68275822 0-10.55132266-3.47257713-12.60894124-8.40991358-17.68619244-27.53477884-66.64929411-52.51156531-125.9676802-52.51156531-59.16819431 0-108.52969826 25.10010149-126.87277896 53.97000037l-0.08695301-0.03794326c-2.33823909 4.16819968-6.79338201 6.98863076-11.91252846 6.98863078-7.5427573 0-13.65711728-6.11435998-13.65711729-13.65711729 0-4.10812265 1.82205583-7.78306306 4.6922877-10.28651241 23.20848341-33.74004382 79.57284637-60.14838936 146.68536201-60.14838936 67.49510765 0 126.18031895 26.75378454 149.32714485 60.72464888 2.5042396 2.47578234 4.05832267 5.91041622 4.05832265 9.71025211C664.60289274 299.03133942 658.48853198 305.1456994 650.94577545 305.1456994z"  horiz-adv-x="1024" />

    
    <glyph glyph-name="shezhi" unicode="&#58894;" d="M890 377.25c0 29.25-2.25 54-9 72 2.25 18-9 31.5-27 36h-2.25c-31.5 6.75-54 22.5-72 54-15.75 27-20.25 58.5-9 87.75 6.75 13.5 2.25 31.5-11.25 42.75-33.75 31.5-76.5 56.25-123.75 72-13.5 6.75-31.5 2.25-42.75-11.25-20.25-24.75-49.5-38.25-83.25-38.25-29.25 0-58.5 13.5-83.25 38.25-15.75 15.75-31.5 13.5-42.75 11.25-49.5-18-87.75-40.5-119.25-69.75-15.75-9-20.25-27-13.5-40.5 9-33.75 6.75-65.25-9-92.25-13.5-27-40.5-45-72-54-2.25 0-4.5 0-4.5-2.25-11.25-6.75-20.25-15.75-22.5-27v-2.25c-4.5-24.75-9-47.25-9-74.25 0-29.25 2.25-54 9-72-2.25-13.5 4.5-27 24.75-36h2.25c31.5-6.75 54-22.5 72-54 15.75-27 20.25-58.5 9-87.75-6.75-13.5-2.25-31.5 11.25-42.75 31.5-29.25 74.25-56.25 123.75-74.25h2.25c2.25 0 2.25-2.25 4.5-2.25h4.5c11.25 0 22.5 4.5 31.5 13.5 20.25 24.75 49.5 38.25 83.25 38.25 29.25 0 58.5-13.5 83.25-38.25 9-9 18-13.5 29.25-13.5 4.5 0 11.25 0 15.75 2.25 51.75 20.25 87.75 42.75 121.5 72 13.5 9 20.25 27 13.5 40.5-9 33.75-6.75 65.25 9 92.25 13.5 27 40.5 45 72 54 2.25 0 4.5 0 4.5 2.25 11.25 6.75 20.25 15.75 22.5 27v2.25c4.5 24.75 6.75 49.5 6.75 74.25zM185.75 442.5c42.75 11.25 78.75 38.25 99 74.25 20.25 38.25 27 81 15.75 123.75 29.25 24.75 63 45 103.5 60.75 33.75-31.5 72-49.5 114.75-49.5 45 0 87.75 18 114.75 49.5 38.25-13.5 72-33.75 101.25-60.75-11.25-45-6.75-87.75 15.75-123.75 20.25-38.25 54-65.25 96.75-76.5 4.5-18 6.75-40.5 6.75-63 0-18-2.25-36-6.75-60.75-45-13.5-78.75-40.5-96.75-76.5-20.25-38.25-27-81-15.75-123.75-29.25-24.75-63-45-103.5-60.75-33.75 31.5-74.25 47.25-114.75 47.25-45 0-85.5-18-114.75-49.5-38.25 13.5-72 33.75-101.25 60.75 11.25 45 6.75 87.75-15.75 123.75-20.25 38.25-54 65.25-96.75 76.5-4.5 18-6.75 42.75-6.75 63-2.25 22.5 0 40.5 4.5 65.25zM651.5 426.75c-4.5 11.25-15.75 18-27 15.75-11.25-4.5-18-18-13.5-29.25 6.75-18 6.75-40.5 0-65.25-9-24.75-27-45-49.5-58.5-24.75-11.25-51.75-13.5-76.5-4.5-24.75 9-45 27-58.5 49.5-11.25 24.75-13.5 51.75-4.5 76.5 9 24.75 27 45 49.5 58.5 24.75 11.25 51.75 13.5 76.5 4.5 11.25-4.5 24.75 2.25 29.25 13.5 4.5 11.25-2.25 24.75-13.5 29.25-36 13.5-76.5 11.25-112.5-6.75s-63-47.25-74.25-83.25c-13.5-36-11.25-76.5 6.75-112.5s47.25-63 83.25-74.25c13.5-4.5 31.5-9 47.25-9 63 0 117 40.5 137.25 99 9 33.75 9 65.25 0 96.75z"  horiz-adv-x="1024" />

    
    <glyph glyph-name="qiandao" unicode="&#59064;" d="M780.08837891 690.38671875h-76.59667969v57.49365234c0 10.52050781-8.58251953 19.1953125-19.1953125 19.1953125s-19.1953125-8.58251953-19.1953125-19.1953125V690.38671875H358.80664062v57.49365234c0 10.52050781-8.58251953 19.1953125-19.19531249 19.1953125s-19.1953125-8.58251953-19.1953125-19.1953125V690.38671875h-76.59667969C180.69628906 690.38671875 129.01660156 638.70703125 129.01660156 575.49169922v-459.58007813C129.01660156 52.696289060000026 180.69628906 1.0166015600000264 243.91162109 1.0166015600000264h536.17675782C843.30371094 1.0166015600000264 894.98339844 52.696289060000026 894.98339844 115.91162109000004v459.58007813C894.98339844 638.70703125 843.30371094 690.38671875 780.08837891 690.38671875z m76.59667968-574.47509766c0-42.26660156-34.33007813-76.59667969-76.59667968-76.59667968h-536.17675782c-42.26660156 0-76.59667969 34.33007813-76.59667968 76.59667968V460.59667969h689.37011718v-344.6850586z m0 382.98339844h-689.37011718v76.59667969c0 42.26660156 34.33007813 76.59667969 76.59667968 76.59667969h76.59667969v-57.49365235c0-10.52050781 8.58251953-19.1953125 19.1953125-19.1953125s19.1953125 8.58251953 19.1953125 19.1953125v57.49365235h306.38671875v-57.49365235c0-10.52050781 8.58251953-19.1953125 19.1953125-19.1953125s19.1953125 8.58251953 19.1953125 19.1953125v57.49365235h76.59667969c42.26660156 0 76.59667969-34.33007813 76.59667969-76.59667969v-76.59667969zM444.26269531 134.36865234000004c7.47509766-7.47509766 19.65673828-7.47509766 27.03955078 0l189.55371094 189.55371094c7.47509766 7.47509766 7.47509766 19.65673828 0 27.03955078-7.47509766 7.47509766-19.65673828 7.47509766-27.03955078 0L457.82861328 174.97412109000004l-67.73730469 67.73730469c-7.47509766 7.47509766-19.65673828 7.47509766-27.03955078 0-7.47509766-7.47509766-7.47509766-19.65673828 0-27.03955078l81.2109375-81.30322266z"  horiz-adv-x="1024" />

    
    <glyph glyph-name="daifukuan" unicode="&#58950;" d="M766.03022708 688.6239067L257.96977292 688.6239067C187.77920245 688.6239067 130.78494028 631.7741227 130.78494028 561.6470882599999l-1e-8-38.02750744 0-50.77036057 0-266.49543727C130.78494028 136.14580468999998 187.72698152 79.37609329999998 257.96977292 79.37609329999998L766.03022708 79.37609329999998C836.22079755 79.37609329999998 893.21505972 136.22587729999998 893.21505972 206.35291173999997L893.21505972 472.84834901l1e-8 50.77036056 0 38.02750745C893.21505972 631.85419531 836.27301848 688.6239067 766.03022708 688.6239067zM842.38638548 206.35291173999997c0-42.06072838-34.21100545-76.20645704-76.355288-76.20645705L257.96977292 130.14645469000004c-42.20868811 0-76.35528802 34.07697114-76.35528801 76.20645705L181.61448491 472.84834901l660.77277096 0L842.38725587 206.35291173999997zM842.38638548 523.61958081L181.61361452 523.61958081l0 38.02750745c0 42.06072838 34.21100545 76.20645704 76.355288 76.20645705L766.03022708 637.8535453100001c42.20868811 0 76.35528802-34.07697114 76.35528801-76.20645705L842.38551509 523.61958081zM340.45322287 599.77555684l-63.53584299 0c-10.52693195 0-19.06075273-8.52424733-19.06075275-19.03899378s8.53382078-19.03899379 19.06075275-19.03899381l63.53584299 0c10.52693195 0 19.06075273 8.52424733 19.06075274 19.0389938S350.98015482 599.77555684 340.45322287 599.77555684zM535.37335739 243.63017415000002c-4.36308481-2.59626603-12.15449407-3.89483382-23.37335739-3.89483382-9.47380348 0-19.3845247 1.89301958-29.73129331 5.67992996s-20.13215858 8.70963303-29.35704118 14.76816707L416.26105767 221.88350848000005c13.71242742-10.3868049 28.8583282-18.01371699 45.43857184-22.88247791 7.71655901-2.26553177 15.36523004-4.00449888 22.94601309-5.21603179l0-23.25760044 54.7078427 0 0 23.59442744c4.48841606 0.82248497 8.77142741 1.85385367 12.84903661 3.09410863 12.09182845 3.67898611 22.25147055 8.60083836 30.47979756 14.76816708 8.22745662 6.16732871 14.46093167 13.36167501 18.69868609 21.58390928 4.23862393 8.22223427 6.35793591 16.76998131 6.35793591 25.64149949 0 14.71420535-4.42575043 26.72335002-13.27638006 36.02830438-8.85062963 9.30495521-21.50383669 16.55326321-37.95874993 21.74666566l-28.04889908 10.06216253c-12.21715969 3.89483382-21.62829755 7.14038458-28.23515434 9.737521-6.60685764 2.59626603-9.91072123 6.38317642-9.91072124 11.35986078 0 9.5208029 9.22488261 14.28163872 27.67464697 14.2816387 9.72359475 0 18.44976436-1.29856779 26.17850799-3.8948338 7.72874363-2.59626603 15.95620026-6.38317642 24.68236987-11.35986078l32.16219177 35.05437813c-11.96736757 9.737521-25.18108286 16.87790474-39.64201452 21.42202328-7.33708452 2.30556808-14.67416906 4.02625781-22.01125274 5.16207007l0 22.82503379-54.70784271 0 0-25.06793624c-1.56402609-0.40123341-3.10455248-0.83292882-4.62157998-1.29595747-11.34419458-3.46226802-21.06778933-8.16827256-29.17078509-14.11888317-8.10299576-5.95061061-14.3982669-12.87514665-18.88581172-20.7727394s-6.73131765-16.39137723-6.73131766-25.4796135c0-7.57382078 1.3716781-14.49748725 4.11416309-20.77273941s6.41973116-11.84725868 11.03260723-16.71601959c4.61200568-4.86876008 10.03518209-9.08823627 16.26778675-12.65842856s12.8403327-6.43713812 19.82057208-8.60170875l30.29267192-11.0352184c5.73476292-1.73113443 10.78281596-3.29951249 15.14590077-4.70600454 4.36308481-1.40649206 8.04033013-2.86694583 11.03260722-4.38136217s5.23604993-3.13762649 6.73131766-4.86876008c1.49613897-1.73113443 2.24377283-3.89483382 2.24377283-6.4911007C541.9184198 249.90542713000002 539.73644219 246.22644017000005 535.37335739 243.63017415000002z"  horiz-adv-x="1024" />

    
    <glyph glyph-name="daifahuo" unicode="&#58885;" d="M321.06632653 383.98724489999995h-52.72363945c-15.01360543 0-27.20238096 12.18707482-27.20238096 27.20238094 0 15.0170068 12.18877551 27.20493197 27.20238096 27.20493198h52.72363945c15.01870748 0 27.20578231-12.18792516 27.20578231-27.20578231 0-15.01445578-12.18707482-27.20238096-27.20578231-27.20238094zM827.41666666 710.43622449h-630.10204081c-36.31802722 0-65.83588435-29.48894556-65.83588435-65.78146259V116.62414966999995c0-32.56717688 27.14795918-59.06207484 60.50170068-59.06207484H832.72278912c33.37755101 0 60.50170068 26.49489796 60.50170068 59.06207484V644.6547619c-0.02551021 36.29251701-29.54336734 65.78061225-65.80782314 65.78061224z m11.37414967-65.78146259v-111.45408163H648.79421769V656.02891155h178.62244897c6.26105443 0 11.37500001-5.11394558 11.37500001-11.37499998z m-381.97534014 11.375h137.57057824v-306.4302721L534.21088436 373.59183672999995a27.0085034 27.0085034 0 0 1-20.4022109-0.10884353l-56.9897959-23.39370748V656.0297619h-0.00170068zM185.88690476 644.6547619c0 6.26020408 5.11479592 11.37414967 11.42857143 11.37414965h205.0892857v-122.82908162H185.88690476V644.6547619z m646.81122449-532.68367345H191.98129252c-3.59013606 0-6.09438775 2.44812925-6.09438776 4.65391154V478.79251701h216.51785714v-169.32057824a27.24234694 27.24234694 0 0 1 12.05527211-22.60714284 27.38860545 27.38860545 0 0 1 15.15136055-4.59523811c3.48214285 0 7.01870748 0.65306122 10.33588435 2.03996599l84.3622449 34.6335034 87.2159864-34.74234693c8.37755101-3.36989797 17.87414966-2.31122449 25.35459183 2.74829932 7.45153061 5.08843537 11.9132653 13.4957483 11.9132653 22.52380952v169.31972789h189.99829933v-362.16836734c0-2.20578231-2.50340136-4.65306122-6.09353742-4.65306122z m0 0"  horiz-adv-x="1024" />

    
    <glyph glyph-name="daipingjia" unicode="&#58891;" d="M634.07446836 28.547872340000026c-7.18085079 0-14.3617024 3.59042581-17.95212821 8.97606411l-61.03723377 80.78457446H210.40425532c-44.88031887 0-80.78457447 32.31382979-80.78457447 73.60372286V649.69148909c0 41.28989389 35.90425559 73.60372368 80.78457447 73.60372368h603.19148936c44.88031887 0 80.78457447-32.31382979 80.78457447-73.60372368v-459.57446781c0-41.28989389-35.90425559-73.60372368-80.78457447-73.60372368h-109.50797845l-52.06117049-78.98936115c-3.59042581-5.3856383-10.7712766-8.97606411-17.95212738-8.97606411zM210.40425532 678.41489389c-19.7473407 0-35.90425559-12.56648909-35.9042556-28.7234048v-459.57446781c0-16.15691489 16.15691489-28.72340398 35.9042556-28.72340398H565.85638298c7.18085079 0 14.3617024-3.59042581 17.95212738-8.97606411l48.47074468-64.62765957L673.56914894 150.6223407c3.59042581 7.18085079 10.7712766 10.7712766 17.95212738 10.7712766h120.27925587c19.7473407 0 35.90425559 12.56648909 35.90425477 28.72340398V649.69148909c0 16.15691489-16.15691489 28.72340398-35.90425477 28.7234048H210.40425532zM300.16489389 556.34042553h425.46542553V509.66489334H300.16489389zM300.16489389 400.15691489h425.46542553v-46.67553219H300.16489389z"  horiz-adv-x="1024" />

    
    <glyph glyph-name="shouhou" unicode="&#58900;" d="M562.25 392.8125H458.65625c-3.5625 0-6.375 4.78125-5.0625 7.96875 5.4375 13.59375 17.0625 43.40625 16.78125 44.625-0.84375-0.28125-2.34375-0.84375-4.5-2.25-6.75-4.5-15.46875-9.5625-25.59375-15.375l-3.1875-1.875c-14.25-8.25-30.46875-17.625-44.8125-27.84375-15.75-11.15625-23.15625-18.46875-23.15625-26.34375 0.09375-5.34375 3.9375-12.9375 11.8125-18.28125 21.1875-14.4375 79.6875-45.1875 91.59375-51.375h0.1875c0.46875 0.65625-13.21875 31.40625-19.5 45.46875-1.5 3.28125 1.6875 8.4375 5.4375 8.4375l103.875 0.09375c18.375-2.34375 53.0625-18.1875 53.0625-54.09375 0-31.21875-28.03125-55.40625-53.8125-55.59375h-123.75c-11.0625 0-19.6875-7.40625-19.6875-18.375 0-10.875 9-18.375 20.0625-18.375h123.84375c4.5 0 44.25 0.75 70.59375 27 15.84375 15.75 23.71875 37.59375 23.25 64.875v0.84375c0 0.28125 1.03125 40.125-25.59375 67.125-16.3125 16.5-38.90625 23.34375-68.25 23.34375zM161.375 442.21875v85.78125h703.125v-403.21875c0-14.0625-10.5-41.625-42.65625-41.625H202.0625c-14.34375 0-40.6875 25.21875-40.6875 39.28125V442.21875zM123.96875 310.40625v-199.5c0-35.0625 28.96875-63.375 64.78125-63.375h648.375c35.8125 0 64.78125 28.40625 64.78125 63.375l-0.375 425.25c0 23.625-6.75 46.6875-19.40625 66.65625l-55.5 87.65625c-11.8125 18.75-32.71875 30-55.125 30H254.5625c-22.5 0-43.21875-11.34375-55.125-30L143.5625 602.90625c-12.9375-20.15625-19.6875-43.40625-19.6875-67.21875V442.125l0.09375-131.71875z m98.90625 346.3125c14.4375 25.875 30.28125 27.09375 39.28125 27.09375h509.625c9 0 19.96875-8.4375 24.65625-15.84375l66.375-103.3125-699.28125 0.1875 59.34375 91.875z"  horiz-adv-x="1024" />

    
    <glyph glyph-name="daishouhuo" unicode="&#58938;" d="M880.353125 581.821875H142.128125c-10.359375 0-18.75 8.390625-18.75 18.75s8.390625 18.75 18.75 18.75h738.225c10.359375 0 18.75-8.390625 18.75-18.75s-8.390625-18.75-18.75-18.75zM846.81875 8.193750000000023H175.925c-28.978125 0-52.546875 23.56875-52.546875 52.546875V601.509375c0 3.365625 0.909375 6.675 2.625 9.571875l72.253125 121.771875c0.309375 0.525 0.65625 1.040625 1.0125 1.5375 10.640625 14.484375 27.73125 23.128125 45.703125 23.128125h531.13125c17.775 0 34.74375-8.49375 45.39375-22.715625 0.328125-0.440625 0.6375-0.9 0.928125-1.36875l73.846875-119.23125c1.8375-2.9625 2.8125-6.375 2.8125-9.8625l0.2625-543.58125c0.028125-28.996875-23.55-52.565625-52.528125-52.565625zM160.878125 596.371875V60.75c0-8.296875 6.75-15.046875 15.046875-15.046875h670.89375c8.296875 0 15.046875 6.75 15.046875 15.046875l-0.2625 538.246875-70.528125 113.878125c-3.628125 4.490625-9.16875 7.153125-14.9625 7.153125H244.98125c-5.83125 0-11.390625-2.690625-15.01875-7.228125l-69.084375-116.428125zM510.528125 119.35312499999998c-53.653125 0-104.090625 20.896875-142.021875 58.828125-37.940625 37.940625-58.828125 88.378125-58.828125 142.021875s20.896875 104.090625 58.828125 142.021875c37.940625 37.940625 88.378125 58.828125 142.021875 58.828125s104.090625-20.896875 142.021875-58.828125c37.93125-37.93125 58.828125-88.378125 58.828125-142.021875s-20.896875-104.090625-58.828125-142.021875c-37.93125-37.93125-88.36875-58.828125-142.021875-58.828125z m0 364.209375c-90.075 0-163.35-73.284375-163.35-163.35s73.284375-163.35 163.35-163.35 163.35 73.284375 163.35 163.35S600.603125 483.5625 510.528125 483.5625zM612.359375 301.453125H512.09375c-10.359375 0-18.75 8.390625-18.75 18.75V420.75c0 10.359375 8.390625 18.75 18.75 18.75s18.75-8.390625 18.75-18.75v-81.7875h81.515625c10.359375 0 18.75-8.390625 18.75-18.75s-8.4-18.759375-18.75-18.759375z"  horiz-adv-x="1024" />

    
    <glyph glyph-name="eye-open" unicode="&#59617;" d="M893.81122448 389.35714287c-0.24489796 1.01020407-0.09183674 2.08163265-0.47448979 3.06122448-0.13775509 0.4132653-0.50510205 0.62755101-0.64285714 1.01020407-0.24489796 0.56632653-0.18367345 1.22448979-0.50510204 1.77551021-69.35204083 132.75000001-220.33163266 227.87755102-379.62244898 227.87755102-159.30612245 0-310.25510204-94.97448979-379.66836734-227.70918366-0.30612245-0.5510204-0.26020409-1.19387754-0.50510204-1.77551023-0.16836735-0.38265306-0.50510205-0.59693877-0.64285715-1.01020408-0.38265306-0.97959182-0.24489796-2.05102041-0.4744898-3.06122447-0.42857142-1.79081632-0.84183674-3.52040816-0.84183674-5.35714286s0.42857142-3.53571428 0.84183674-5.35714286c0.24489796-1.01020407 0.09183674-2.08163265 0.4744898-3.06122449 0.13775509-0.4132653 0.50510205-0.62755101 0.64285715-1.01020407 0.24489796-0.58163265 0.19897958-1.22448979 0.50510204-1.77551021 69.38265305-132.75000001 220.3622449-227.87755102 379.66836734-227.87755104 159.2755102 0 310.25510204 94.97448979 379.62244898 227.70918369 0.33673469 0.5510204 0.29081634 1.19387754 0.50510204 1.77551021 0.13775509 0.38265306 0.50510205 0.59693877 0.64285715 1.01020407 0.38265306 0.97959182 0.24489796 2.05102041 0.47448978 3.06122448 0.4132653 1.82142859 0.84183674 3.53571428 0.84183676 5.35714287s-0.42857142 3.56632652-0.84183676 5.35714287zM512.5510204 192.96428572000002c-134.28061225 0-265.76020408 76.31632654-331.25510203 191.20408163 65.86224491 115.04081633 197.14285714 191.08163264 331.25510203 191.08163263 134.23469389 0 265.72959183-76.33163265 331.23979594-191.2040816-65.86224491-115.05612246-197.1122449-191.08163264-331.23979594-191.08163266zM512.5510204 479.69387754c6.59693878 0 11.90816327-5.32653062 11.90816328-11.95408163 0-6.58163265-5.32653062-11.93877551-11.90816328-11.93877551l0-0.03061223c-39.55102042 0-71.7244898-32.17346939-71.72448979-71.67857143 0-6.59693878-5.35714287-11.95408164-11.93877551-11.95408164-6.59693878 0-11.95408164 5.35714287-11.95408162 11.95408164 0 52.72959183 42.73469388 95.47959184 95.47959182 95.57142856 0.04591838 0 0.09183674 0.03061224 0.1377551 0.03061224zM512 551.4030612199999c-92.47959183 0-167.41836735-74.95408164-167.41836735-167.41836735s74.95408164-167.41836735 167.41836735-167.41836734c92.43367349 0 167.41836735 74.96938776 167.41836735 167.41836734 0 92.47959183-74.96938776 167.41836735-167.41836735 167.41836735zM512 240.50510204c-79.13265305 0-143.49489796 64.3622449-143.49489796 143.49489796s64.3622449 143.49489796 143.49489796 143.49489796c79.13265305 0 143.49489796-64.3622449 143.49489796-143.49489796s-64.3622449-143.49489796-143.49489796-143.49489796z"  horiz-adv-x="1024" />

    
    <glyph glyph-name="user" unicode="&#58893;" d="M512-3.8883613000000423c-213.87924726 0-387.8883613 174.00911402-387.8883613 387.8883613S298.12075274 771.8883613 512 771.8883613s387.8883613-174.00911402 387.8883613-387.8883613S725.87924726-3.8883613000000423 512-3.8883613000000423zM512 741.46554745c-197.10833882 0-357.46554745-160.35720862-357.46554745-357.46554745s160.35720862-357.46554745 357.46554745-357.46554745 357.46554745 160.35720862 357.46554745 357.46554745S709.10833882 741.46554745 512 741.46554745zM316.18432751 156.32106246c-2.42842441 0-4.92435606 0.59387813-7.28618613 1.79714343-7.47958442 3.81778946-10.09410857 13.53240002-6.27631913 21.01928206 6.29821293 12.32913474 25.14176557 21.07857878 69.8623611 39.52894921 19.41553693 8.02146349 51.43479737 21.24278468 58.52758524 28.01628323 1.98324404 9.96730553-1.99784023 24.33168248-4.41166847 31.04679631-5.42974513 6.49161122-19.14003525 24.55518509-22.38584131 44.87659181-9.50661612 5.13964816-22.03006109 16.10222454-29.3308434 39.30544657-7.90287096 25.07517035 0.48258326 43.34582667 9.8414136 53.64063117-19.27413682 94.92202416 3.54320066 124.69074938 13.45120947 137.62927129l1.41125979 1.88654446c18.33086504 26.32313614 71.8155008 80.43905291 180.0847363 26.54572678 24.37638298-6.78900672 42.51476173-20.91528486 53.9225185-41.97926745 22.94322941-42.38066017 10.8886835-101.04234698 4.81306119-123.8295801 8.71204118-10.08681093 16.34032334-26.59042729 10.41339789-47.32691006-5.57844288-19.53413032-16.68150651-30.55600253-24.72577667-36.26033736-2.86721913-22.14865448-17.12759973-47.81770381-22.0145529-56.09186227-1.89384301-9.53672045-2.65922557-20.41080777-1.76795106-24.86717677 4.50836716-2.92651585 16.57021162-8.60074631 26.46362426-13.26510886 28.63296806-13.48861146 67.84901361-31.96726227 91.60232523-54.81379211 6.05372849-5.82292733 6.23891624-15.44904883 0.41598891-21.51007586-5.82292733-6.06102612-15.44175117-6.23891624-21.50186533-0.4159889-20.15811279 19.3708364-56.76054616 36.61702865-83.48416216 49.21345454-25.07517035 11.82465764-33.98790833 16.26643046-38.65227177 23.0992248-9.42542559 13.8443917-4.72365927 40.65740963-2.27242904 51.54609224l0.55738814 2.48042348 1.33736686 2.15383563c7.8508719 12.76063177 20.05411558 37.77559344 19.3854326 50.66941479l-0.57198431 10.9625764 10.23459581 3.99567955c0.16329393 0.08940104 11.06657271 5.08035145 15.74644432 21.44986717 3.97378574 13.9036884-6.98879064 21.777367-7.1009975 21.85125898l-9.2694293 6.49161123 3.55779683 10.7700901c0.22988827 0.668683 22.22254739 68.4064017 0.05199817 109.25720872-7.59817693 14.00768562-19.5268318 22.96512324-36.4537356 27.42149223l-2.99311107 1.12937241c-62.81336176 31.68537494-113.43077839 26.18903458-142.47973449-15.59774657-0.99527084-1.41125976-1.72325053-2.37642624-2.55522833-3.46109815-6.9814921-9.10613537-25.51305305-33.30462915-6.01632561-121.4230504l2.37642624-10.73998576-9.45552991-5.61493378c-1.61925421-1.0846719-10.86587679-8.3042628-5.34034409-25.87704377 6.32101962-20.05411558 17.06830303-22.71334116 17.52078196-22.81733839l12.63382875-2.86721913-0.07389289-13.08721965c-0.79457493-12.31453854 11.20797283-29.82802284 17.14949357-36.37893073l1.7606534-1.94584119 1.00986704-2.43663493c1.30726252-3.13451028 12.56723352-31.32868274 6.03092177-54.63590289-4.33047795-15.43445355-25.32695331-25.46105488-75.83398705-46.31704304-19.883524-8.20026557-49.92683893-20.60329317-55.08199526-26.35232851C326.3970286 159.0687762 321.44256819 156.32106246 316.18432751 156.32106246z"  horiz-adv-x="1024" />

    
    <glyph glyph-name="right" unicode="&#58965;" d="M684.569334 445.930491 684.436304 445.797461 339.429643 790.803099 277.56669 728.939123 622.572328 383.933485 277.69972 39.060877 339.563696-22.803099 684.436304 322.069509 746.299257 383.933485 746.43331 384.066515Z"  horiz-adv-x="1024" />

    
    <glyph glyph-name="home" unicode="&#58906;" d="M868.96949264 435.73804164L579.71083129 736.87984528c-17.97503056 18.69638236-41.99766333 28.98522649-67.75000743 28.98522648-25.74978912 0-49.77753182-10.28884413-67.75256237-28.98522648L154.95215511 435.73804164c-29.84965632-31.08370443-26.00613728-57.95001325-21.07164816-69.17312293 3.51733517-7.96297431 15.38940596-29.85050797 49.59272268-29.85050797h42.39538621v-231.66378822c0-52.59480658 37.7640863-102.11854519 91.43112652-102.1185452h123.13824241v245.16592669c0 26.28718343-3.98148716 40.93224292 22.86523362 40.93224292h97.31691427c26.8441658 0 22.86267865-14.64505949 22.86267865-40.93139127v-245.16763001h123.13909407c53.66533692 0 91.43197818 49.52373862 91.43197818 102.11854521V336.71355908h42.39708952c34.20246506 0 46.07453585 21.88753367 49.59101937 29.85050797 4.93363745 11.22481299 8.7771565 38.09112182-21.07249981 69.17482625z m-28.51851956-51.33776379h-90.07955003v-279.34880369c0-26.28633178-16.92834656-54.43523304-43.74951767-54.43523304h-75.45663357V248.09970732c0 52.59906486-16.85425258 88.61470342-70.5442875 88.61470342H463.30321839c-53.69258988 0-70.5476941-36.01563857-70.5476941-88.61470342v-197.48431785h-75.45578193c-26.82287442 0-43.74951768 28.14890126-43.74951767 54.43523305V384.4011295H183.47408127c-0.83802853 0-1.60792466 3.28057509-2.30628175 3.32741612 1.65221071 2.88540716 4.49333181 10.1985687 9.21916544 15.11091478l289.28250769 300.93229651c8.63748508 9.00880666 20.83744305 14.52667945 32.66352445 14.41340933 11.82778474 0.11327011 23.28595119-5.40460267 31.92258461-14.41255767L833.53383112 402.83860874c4.72583363-4.91234607 7.56695473-12.22550761 9.21916545-15.11091478-0.69665379-0.04684102-1.46484661-3.32741611-2.30287515-3.32741611z"  horiz-adv-x="1024" />

    
    <glyph glyph-name="eye-close" unicode="&#58898;" d="M889.64580078 489.72363281c8.20722656 12.30996094 5.47119141 28.72353516-5.47119141 38.29833985-12.30996094 9.57480469-28.72353516 6.83876953-38.29833984-5.47119141-1.36845703-1.36757813-153.19335938-180.55019531-333.7453125-180.55019531-175.078125 0-333.74443359 180.55019531-335.11201172 181.91777343-9.57568359 10.94238281-27.35595703 12.30996094-38.29921875 2.73603516-10.94238281-9.57480469-12.30996094-27.35595703-2.73603515-38.29921875 2.73603516-4.10273437 35.56318359-41.03349609 87.5390625-82.06787109l-69.75878907-72.49394532c-10.94238281-10.94238281-9.57392578-28.72353516 1.36845703-38.29833984 2.73603516-5.47119141 9.57480469-8.20722656 16.41445313-8.20722656 6.83789063 0 13.67753906 2.73603516 19.14873047 8.20722656l75.22910156 77.96425781c35.56318359-24.62080078 77.96513672-47.87402344 124.47070313-64.28671875l-28.72441407-97.11474609c-4.10273437-15.04511719 4.10449219-30.09111328 19.14960938-34.19472656h8.20634765c12.30996094 0 23.25322266 8.20722656 25.98837891 20.5171875l28.72353516 97.11474609c21.88476563-4.10361328 45.13798828-6.83964844 68.39033203-6.83964844s46.50556641 2.73603516 68.39121094 6.83964844l28.72265625-95.74716797c2.73691406-12.30996094 15.046875-20.51630859 25.98925781-20.51630859 2.73603516 0 5.47119141 0 6.83964844 1.36757812 15.04511719 4.10449219 23.25234375 19.14873047 19.14960937 34.19472657L632.49716797 310.54101562000005c46.50644531 16.41445312 88.90751953 39.66679688 124.47070312 64.28671876l73.86152344-76.59667969c5.47119141-5.47119141 12.30996094-8.20722656 19.14873047-8.20722656 6.83876953 0 13.67841797 2.73603516 19.14873047 8.20634765 10.94238281 10.94326172 10.94238281 27.35595703 1.36845703 38.29921875l-69.75878906 72.49306641c56.08125 41.03525391 88.91015625 80.70117188 88.91015625 80.70117187z"  horiz-adv-x="1024" />

    
    <glyph glyph-name="faxian" unicode="&#58913;" d="M512 709.99431848A325.99431848 325.99431848 0 1 0 186.00568152 384 325.99431848 325.99431848 0 0 0 512 709.99431848m0 57.52840842a383.5227269 383.5227269 0 1 1 383.5227269-383.5227269A383.5227269 383.5227269 0 0 1 512 767.5227269zM624.75568152 496.75568152l-42.37926114-169.13352228a19.17613613 19.17613613 0 0 0-13.99857963-13.99857962l-169.13352227-42.37926114 42.37926114 169.13352227a19.17613613 19.17613613 0 0 0 13.99857963 13.99857963l169.13352227 42.37926114m52.734375 71.91051196h-4.79403342l-230.11363697-57.52840924a76.70454538 76.70454538 0 0 1-55.80255651-55.80255734l-57.52840924-231.07244266a19.17613613 19.17613613 0 0 1 19.17613614-23.97017037h4.79403423l231.0724435 57.52840923a76.70454538 76.70454538 0 0 1 55.8025565 55.80255652l57.52840925 231.07244348a19.17613613 19.17613613 0 0 1-19.17613613 23.97017038zM512 412.76420462a28.76420462 28.76420462 0 1 1 28.76420462-28.76420462 28.76420462 28.76420462 0 0 1-28.76420462 28.76420462z"  horiz-adv-x="1024" />

    
    <glyph glyph-name="close" unicode="&#58901;" d="M898.63543088 692.75600847L820.75600847 770.6354308800001 512 461.87942242 203.24399153 770.6354308800001 125.36456912 692.75600847 434.12057758 384 125.36456912 75.24399153000002 203.24399153-2.6354308799999444 512 306.12057758000003 820.75600847-2.6354308799999444 898.63543088 75.24399153000002 589.87942242 384z"  horiz-adv-x="1024" />

    
    <glyph glyph-name="left" unicode="&#59145;" d="M680.75-9.75a27.84375 27.84375 0 0 0-20.64375 9.084375l-337.5 365.625a28.0125 28.0125 0 0 0 0 38.1375l337.5 365.625a28.125 28.125 0 0 0 41.2875-38.1375L381.528125 384l319.865625-346.55625A28.125 28.125 0 0 0 680.75-9.75"  horiz-adv-x="1024" />

    
    <glyph glyph-name="shopping-car" unicode="&#58896;" d="M777.51041667 153.40696060000005H332.66240554c-32.7336644 0-45.06392038 33.25142038-46.98153425 50.85511303L230.62618379 672.83096576c-1.03551113 8.84019863-5.35014212 16.33806848-11.85085272 20.55681848-3.47088098 2.26278425-6.76917637 3.45170462-9.81818152 3.33664728h-67.30823886V730.70454538H208.66950742c9.62642038 0.5944606 19.3678981-2.79971575 28.62997175-8.82102228 14.9765625-9.7414769 24.8522731-26.17542637 27.07670462-45.08309673l55.07386386-468.703125c0.01917637-0.23011387 2.97230137-20.69105137 13.21235789-20.69105137h444.84801113v-33.9992894zM741.4209278 248.59730136999997H298.10700742v33.98011303h443.31392038c10.06747174 0 19.17613613 6.9992894 22.62784077 17.45028423a15324.41761387 15324.41761387 0 0 0 39.88636385 117.89488697c17.0475856 50.04971576 34.3444606 100.828125 43.83664812 129.7649144 6.61576712 20.25 7.09517038 35.78267038 1.32315325 43.74076712-5.12002825 7.03764212-14.91903425 7.47869348-15.01491522 7.47869348H254.48129765V632.90625h579.57954539c2.76136387 0 27.36434675-0.61363613 42.53267037-21.515625 12.6946019-17.5078125 13.86434675-42.47514212 3.45170463-74.25-9.4921875-29.03267038-26.84659075-79.96448887-43.97088099-130.16761387a15156.85653425 15156.85653425 0 0 1-39.77130651-117.58806765c-8.0539769-24.41122175-30.10653424-40.78764212-54.88210274-40.78764211zM361.15814357 46.94105136999997a70.29971576 70.29971576 0 0 0-70.22301115 70.22301113c0 38.71661902 31.50639212 70.22301113 70.22301115 70.22301113s70.22301113-31.50639212 70.22301197-70.22301113a70.29971576 70.29971576 0 0 0-70.22301197-70.22301113z m0 106.46590923c-19.98153424 0-36.2428981-16.2421875-36.24289728-36.22372173s16.26136387-36.2428981 36.24289728-36.24289812c19.98153424 0 36.2428981 16.26136387 36.2428981 36.24289812s-16.26136387 36.22372174-36.2428981 36.22372173zM758.77533107 46.94105136999997a70.29971576 70.29971576 0 0 0-70.22301115 70.22301113 70.29971576 70.29971576 0 0 0 70.22301115 70.22301113 70.29971576 70.29971576 0 0 0 70.22301197-70.22301113 70.2805394 70.2805394 0 0 0-70.22301197-70.22301113z m0 106.46590923c-19.98153424 0-36.2428981-16.2421875-36.24289728-36.22372173s16.26136387-36.2428981 36.24289728-36.24289812 36.2428981 16.26136387 36.2428981 36.24289812-16.26136387 36.22372174-36.2428981 36.22372173z"  horiz-adv-x="1024" />

    


  </font>
</defs>
</svg>
