<?xml version="1.0" standalone="no"?><!DOCTYPE svg PUBLIC "-//W3C//DTD SVG 1.1//EN" "http://www.w3.org/Graphics/SVG/1.1/DTD/svg11.dtd"><svg t="1561975759081" class="icon" viewBox="0 0 1024 1024" version="1.1" xmlns="http://www.w3.org/2000/svg" p-id="1335" width="32" height="32" xmlns:xlink="http://www.w3.org/1999/xlink"><defs><style type="text/css"></style></defs><path d="M272.85276445 510.16590222c0 20.21376-16.38855111 36.58296889-36.5829689 36.58296889h-185.3178311c-20.21376 0-36.58296889-16.37148445-36.5829689-36.58296889 0-20.19328 16.37148445-36.58296889 36.5829689-36.58296889h185.3178311c20.19328 0 36.58296889 16.38855111 36.5829689 36.58296889z" fill="#E4E4E4" p-id="1336"></path><path d="M1008.50688 510.16590222c0 20.21376-16.37148445 36.58296889-36.58296889 36.58296889h-185.31783111c-20.19328 0-36.58296889-16.37148445-36.58296889-36.58296889 0-20.19328 16.38855111-36.58296889 36.58296889-36.58296889h185.31783111c20.21376 0 36.58296889 16.38855111 36.58296889 36.58296889z" fill="#E4E4E4" p-id="1337"></path><path d="M548.02090667 49.67992889v185.31783111c0 20.21376-16.37148445 36.58296889-36.58296889 36.58296889s-36.58296889-16.37148445-36.58296889-36.58296889v-185.31783111c0-20.21376 16.37148445-36.58296889 36.58296889-36.58296889 20.21376 0 36.58296889 16.37148445 36.58296889 36.58296889z" fill="#E4E4E4" p-id="1338"></path><path d="M548.02090667 785.33518222v185.33489778c0 20.19328-16.37148445 36.58296889-36.58296889 36.58296889s-36.58296889-16.38855111-36.58296889-36.58296889v-185.33489778c0-20.19328 16.37148445-36.58296889 36.58296889-36.58296889 20.21376 0 36.58296889 16.38855111 36.58296889 36.58296889z" fill="#E4E4E4" p-id="1339"></path><path d="M304.84707555 390.81073778c-6.76636445 11.74414222-19.08053333 18.29205333-31.69848888 18.29205333-6.21795555 0-12.51100445-1.57354667-18.27384889-4.90154666l-160.47786667-92.70385778c-17.48878222-10.11484445-23.46894222-32.48696889-13.37230222-49.97575112 10.11484445-17.50471111 32.48696889-23.48714667 49.97575111-13.39050666l160.47786667 92.70385778c17.48878222 10.11484445 23.48714667 32.48696889 13.37230222 49.97575111z" fill="#E4E4E4" p-id="1340"></path><path d="M941.85130667 758.83064889c-6.78570667 11.72366222-19.08053333 18.29205333-31.71783112 18.29205333-6.20088889 0-12.49166222-1.58947555-18.25564444-4.92316444l-160.47786666-92.70385778c-17.48878222-10.10005333-23.48714667-32.48696889-13.37230223-49.97575111 10.10005333-17.50471111 32.48696889-23.48714667 49.97575111-13.37230222l160.47786667 92.70385778c17.48878222 10.10005333 23.46894222 32.48696889 13.37230222 49.9757511z" fill="#E4E4E4" p-id="1341"></path><path d="M773.47157333 129.74648889l-92.70385778 160.45738666c-6.76636445 11.72366222-19.08053333 18.29205333-31.7178311 18.29205334-6.20088889 0-12.49166222-1.58947555-18.25564445-4.92316444-17.50471111-10.10005333-23.48714667-32.47104-13.37230222-49.97575112l92.70385777-160.45738666c10.10005333-17.50471111 32.47104-23.48714667 49.97575112-13.39050667 17.48878222 10.11484445 23.48714667 32.48696889 13.37230222 49.99281778z" fill="#E4E4E4" p-id="1342"></path><path d="M405.47214222 766.73137778l-92.70385777 160.47786667c-6.78570667 11.72366222-19.08053333 18.29205333-31.71783112 18.29205333-6.21795555 0-12.51100445-1.58947555-18.27384888-4.92316445-17.48878222-10.11484445-23.48714667-32.48696889-13.37230223-49.97575111l92.70385778-160.47786667c10.11484445-17.48878222 32.48696889-23.46894222 49.97575111-13.37230222 17.50471111 10.11484445 23.48714667 32.48696889 13.39050667 49.97575112z" fill="#E4E4E4" p-id="1343"></path><path d="M392.21020445 303.50222222c-5.74236445 3.328-12.03655111 4.90154667-18.23516445 4.90154667-12.65777778 0-24.95260445-6.56725333-31.71783111-18.31025778l-92.61169778-160.51086222c-10.10005333-17.50471111-4.09713778-39.87569778 13.40643556-49.97575111s39.87569778-4.09713778 49.97575111 13.40643555l92.59349333 160.51086222c10.10005333 17.50471111 4.09713778 39.87569778-13.40643556 49.97575112z" fill="#E4E4E4" p-id="1344"></path><path d="M759.82506667 940.74424889c-5.76056889 3.30979555-12.05703111 4.90154667-18.25564445 4.90154666-12.63843555 0-24.95260445-6.56725333-31.71783111-18.31025777l-92.59349333-160.53020445c-10.10005333-17.50471111-4.09713778-39.87569778 13.40643555-49.97575111 17.48878222-10.10005333 39.85976889-4.07893333 49.95527112 13.40643556l92.61169777 160.53020444c10.10005333 17.50471111 4.09713778 39.87569778-13.40643555 49.97575111z" fill="#E4E4E4" p-id="1345"></path><path d="M928.59050667 311.75224889l-160.51086222 92.61169778c-5.76056889 3.30979555-12.05703111 4.90154667-18.25564445 4.90154666-12.63843555 0-24.95260445-6.56725333-31.71783111-18.31025778-10.10005333-17.50471111-4.09713778-39.87569778 13.40643556-49.9757511l160.53020444-92.61169778c17.48878222-10.07957333 39.85976889-4.07893333 49.95527111 13.40643555 10.10005333 17.50471111 4.09713778 39.87569778-13.40643555 49.97575111z" fill="#E4E4E4" p-id="1346"></path><path d="M291.36554667 679.36938667l-160.53020445 92.59349333c-5.74236445 3.328-12.03655111 4.90154667-18.23516444 4.90154667-12.65777778 0-24.95260445-6.56725333-31.71783111-18.31025778-10.10005333-17.50471111-4.09713778-39.87569778 13.40643555-49.97575111l160.51086223-92.59349333c17.50471111-10.10005333 39.87569778-4.09713778 49.9757511 13.40643555s4.09713778 39.87569778-13.40643555 49.97575111z" fill="#E4E4E4" p-id="1347"></path></svg>