<?xml version="1.0" standalone="no"?><!DOCTYPE svg PUBLIC "-//W3C//DTD SVG 1.1//EN" "http://www.w3.org/Graphics/SVG/1.1/DTD/svg11.dtd"><svg t="1511492401106" class="icon" style="" viewBox="0 0 1024 1024" version="1.1" xmlns="http://www.w3.org/2000/svg" p-id="4395" xmlns:xlink="http://www.w3.org/1999/xlink" width="200" height="200"><defs><style type="text/css"></style></defs><path d="M512 15.515152C237.769697 15.515152 15.515152 237.769697 15.515152 512S237.769697 1008.484848 512 1008.484848s496.484848-222.254545 496.484848-496.484848S786.230303 15.515152 512 15.515152z m0 953.793939C259.361616 969.309091 54.690909 764.638384 54.690909 512S259.361616 54.690909 512 54.690909 969.309091 259.361616 969.309091 512 764.638384 969.309091 512 969.309091z" fill="#8A8A8A" p-id="4396"></path><path d="M482.133333 315.086869c-0.129293-8.274747-6.852525-14.99798-15.256565-14.99798h-0.258586c-52.234343 0-96.452525-31.418182-117.785859-46.545455-4.913131-3.490909-8.791919-6.206061-11.377778-7.757575-2.19798-1.292929-4.913131-2.068687-7.886868-2.068687-5.559596 0-10.472727 2.973737-13.187879 7.240404-1.422222 2.19798-2.19798 4.913131-2.19798 7.757576 0 5.430303 2.973737 10.214141 7.49899 12.8 2.19798 1.292929 5.171717 3.361616 9.050505 6.20606 23.919192 16.937374 73.69697 52.234343 135.886869 52.234344h0.129293c8.533333 0.129293 15.256566-6.593939 15.385858-14.868687M677.236364 245.915152c-2.585859 1.551515-6.464646 4.266667-11.377778 7.757575-21.20404 15.127273-65.551515 46.545455-117.785859 46.545455h-0.517171c-8.274747 0-14.99798 6.723232-14.99798 14.99798 0 8.274747 6.723232 14.99798 14.99798 14.997979h0.517171c62.189899 0 111.967677-35.29697 135.886869-52.234343 3.878788-2.715152 6.981818-5.042424 9.050505-6.206061 4.525253-2.585859 7.49899-7.369697 7.49899-12.8 0-2.844444-0.775758-5.559596-2.19798-7.757575-2.715152-4.39596-7.628283-7.240404-13.187879-7.240404-2.973737-0.258586-5.688889 0.517172-7.886868 1.939394M617.373737 631.725253l-96.711111-46.157576c-1.680808-0.905051-3.749495-1.292929-5.947474-1.29293-2.327273 0-4.654545 0.646465-6.59394 1.680809l-85.462626 46.157575c-4.783838 2.715152-7.886869 7.886869-7.886869 13.705051 0 2.456566 0.646465 4.913131 1.680808 6.981818 2.19798 4.913131 7.111111 8.274747 12.8 8.274747 2.327273 0 4.654545-0.646465 6.59394-1.680808l79.385858-42.795959 90.375758 43.183838c1.680808 0.905051 3.749495 1.292929 5.947475 1.292929 5.947475-0.129293 10.989899-3.749495 13.058585-8.921212 0.905051-1.939394 1.292929-4.137374 1.29293-6.335353 0-6.206061-3.490909-11.377778-8.533334-14.092929M371.329293 367.838384H132.654545c-10.343434 0-18.876768 10.084848-18.876767 22.49697 0 12.412121 8.40404 22.49697 18.876767 22.496969h46.674748c19.393939 45.252525 4.266667 92.70303 4.266667 92.703031-32.711111 86.367677 0 142.222222 0 142.222222 19.135354 46.416162 4.783838 101.494949 4.783838 101.494949 12.282828-2.585859 26.505051-4.137374 40.985859-4.137373 31.547475 0 61.414141 7.111111 88.177777 19.911111 35.555556-44.476768 3.620202-112.484848 3.620202-112.484849-21.591919-54.30303 0-114.294949 0-114.294949 19.135354-46.674747 16.032323-95.547475 11.248485-125.543435h38.917172c10.343434 0 18.747475-10.084848 18.747475-22.496969 0.129293-12.282828-8.274747-22.367677-18.747475-22.367677z" fill="#8A8A8A" p-id="4397"></path><path d="M307.846465 526.610101l-1.551516 4.137374c-10.084848 27.927273-22.626263 62.836364 5.301011 134.723232 17.066667 43.959596 6.593939 68.913131-0.646465 79.515152-1.292929-0.517172-2.456566-0.905051-3.620202-1.422223-20.816162-8.145455-44.993939-13.317172-70.076768-14.092929 21.462626 1.810101 20.169697 1.551515 18.876768 1.422222-6.593939-0.775758-14.222222-1.292929-21.979798-1.292929-0.129293 0-1.551515 0.129293-2.973737 0.129293-5.430303 0.129293-10.860606 0.517172-15.903031 1.163636-1.292929 0.129293-2.715152 0.258586-4.008081 0.517172-1.034343 0.129293-2.068687 0.387879-3.10303 0.646465 4.783838-22.755556 6.335354-55.59596-6.981818-79.127273-20.816162-36.848485-19.911111-99.167677-0.258586-155.668687 7.49899-21.591919 0.387879-58.69899-6.335353-84.29899h122.440404c2.585859 12.282828 4.008081 26.505051 4.00808 40.985859 0 26.117172-4.783838 51.2-13.575757 74.214141l0.387879-1.551515zM892.121212 367.838384H653.446465c-10.343434 0-18.747475 10.084848-18.747475 22.49697 0 12.412121 8.40404 22.49697 18.747475 22.496969h41.761616c-4.913131 29.866667-7.886869 78.868687 11.248485 125.543435 0 0 21.591919 59.991919 0 114.294949 0 0-31.935354 68.008081 4.783838 111.967677 25.470707-12.153535 55.337374-19.264646 87.014141-19.264647 14.480808 0 28.573737 1.551515 42.278788 4.39596 13.705051 2.844444-15.773737-55.337374 3.490909-101.753535 0 0 32.711111-55.983838 0-142.222223 0 0-15.127273-47.450505 4.266667-92.70303H892.121212c10.343434 0 18.747475-10.084848 18.747475-22.49697 0.129293-12.670707-8.274747-22.755556-18.747475-22.755555z" fill="#8A8A8A" p-id="4398"></path><path d="M826.828283 497.131313c19.523232 56.50101 20.557576 118.949495-0.258586 155.668687-13.317172 23.660606-11.765657 56.371717-6.981818 79.127273-1.034343-0.129293-2.068687-0.387879-3.103031-0.646465-1.292929-0.129293-2.715152-0.258586-4.00808-0.517172-5.042424-0.646465-10.343434-1.034343-15.903031-1.163636-1.422222 0-2.973737-0.129293-4.395959-0.129293-7.757576 0.129293-15.385859 0.646465-22.884849 1.551515 1.034343-0.129293-0.258586 0.129293-1.551515 0.258586-25.6 3.620202-48.743434 11.248485-69.818182 22.109091 21.20404-9.438384 20.040404-9.050505 18.747475-8.533333-7.111111-10.60202-17.583838-35.684848-0.646465-79.515152 27.79798-71.886869 15.256566-106.79596 5.171718-134.723232l-1.551516-4.137374c-8.274747-21.591919-13.058586-46.674747-13.058585-72.791919 0-14.480808 1.422222-28.70303 4.266666-42.408081l122.181818 1.292929c-6.464646 25.858586-13.575758 62.836364-6.20606 84.557576z" fill="#8A8A8A" p-id="4399"></path></svg>