<?xml version="1.0" standalone="no"?>
<!DOCTYPE svg PUBLIC "-//W3C//DTD SVG 1.1//EN" "http://www.w3.org/Graphics/SVG/1.1/DTD/svg11.dtd" >
<!--
2013-9-30: Created.
-->
<svg>
<metadata>
Created by iconfont
</metadata>
<defs>

<font id="iconfont" horiz-adv-x="1024" >
  <font-face
    font-family="iconfont"
    font-weight="500"
    font-stretch="normal"
    units-per-em="1024"
    ascent="896"
    descent="-128"
  />
    <missing-glyph />
    
    <glyph glyph-name="success" unicode="&#58891;" d="M436.547368 332.79999999999995L239.061654 519.8917289999999 7.699248 337.80451100000005l409.984962-400.360902c0 0 266.009023 394.201504 694.857143 773.774436L1112.541353 830.556391C804.956391 650.3939849999999 436.547368 332.79999999999995 436.547368 332.79999999999995z"  horiz-adv-x="1125" />

    
    <glyph glyph-name="rights" unicode="&#58890;" d="M112.13223141 384C112.13223141 604.84598974 291.15401026 783.86776859 512 783.86776859s399.86776859-179.02177885 399.86776859-399.86776859c0-220.84598974-179.02177885-399.86776859-399.86776859-399.86776859S112.13223141 163.15401025999995 112.13223141 384zM67.70247933 384c0-245.38024897 198.91727169-444.29752067 444.29752067-444.29752067 245.38024897 0 444.29752067 198.91727169 444.29752067 444.29752067 0 245.38024897-198.91727169 444.29752067-444.29752067 444.29752067C266.61975103 828.29752067 67.70247933 629.38024897 67.70247933 384zM678.70193619 507.88370331c-12.04121603 12.1617031-31.53006297 12.1617031-43.78213202 0L460.65727962 330.94033350999996l-72.22470382 72.77442744c-11.82283252 12.1617031-31.53006297 12.1617031-43.34536501 0-11.82283252-12.16923361-11.82283252-31.85387343 0.43676701-43.79719301l91.72108129-93.12927879 1.53621507-1.76212911c12.25206905-11.9433196 31.52253249-11.9433196 43.77460154 0l196.14605963 198.62358322C690.96153487 476.03736123 690.96153487 495.50361668 678.70193619 507.88370331z"  horiz-adv-x="1024" />

    
    <glyph glyph-name="evaluate-bad" unicode="&#59055;" d="M951.94853913 565.05655093c-23.44446167 55.3780433-56.98182095 105.13036976-99.67956877 147.82811759-42.69774782 42.71024239-92.43644416 76.24760077-147.82698204 99.67956877-57.36118489 24.25089402-118.27975863 36.55296111-181.06448426 36.55296112-62.78472564 0-123.70216384-12.30320263-181.0622132-36.55296112-55.39167341-23.43083245-105.13036976-56.96932729-147.82811758-99.67956877-42.72387161-42.69888336-76.23624265-92.45007427-99.67956877-147.82811758C70.55557404 507.68400793 58.24101328 446.77906338 58.24101328 383.99320220000004c0-62.78472564 12.31456075-123.70329939 36.56659123-181.06221318 23.44332612-55.36668518 56.95569718-105.1315053 99.67956877-147.82811759 42.69774782-42.69774782 92.43644416-76.26123089 147.82811758-99.67956877 57.36004935-24.25089402 118.27748664-36.54046744 181.0622132-36.54046744 62.78472564 0 123.70329939 12.28957343 181.06448426 36.54046744 55.36441318 23.41833789 105.13036976 56.98182095 147.82698204 99.67956877s76.23510712 92.46143241 99.67956878 147.82811758c24.25203047 57.3589138 36.56545567 118.27748664 36.56545569 181.06221319C988.51399483 446.77906338 976.19943316 507.68400793 951.94853913 565.05655093L951.94853913 565.05655093zM523.37750406-35.94673680999995c-231.55850095 0-419.93993902 188.38143715-419.93993902 419.93993901 0 231.55850095 188.38143715 419.93993902 419.93993902 419.93993901 231.5596374 0 419.94107456-188.38143715 419.94107455-419.93993901C943.31744216 152.43583679000005 754.93714146-35.94673680999995 523.37750406-35.94673680999995L523.37750406-35.94673680999995zM711.43068929 443.57491559c31.01470265 0 56.17425307 25.13342663 56.17425306 56.17311752s-25.15955041 56.1992413-56.17425305 56.19924131c-31.03969089 0-56.1992413-25.15955041-56.19924131-56.19924131S680.3909984 443.57491559 711.43068929 443.57491559L711.43068929 443.57491559zM335.32431881 444.88678771c31.03969089 0 56.1992413 25.18453865 56.1992413 56.22309309 0 31.01470265-25.15955041 56.17425307-56.1992413 56.17425306s-56.1992413-25.15955041-56.1992413-56.17425306C279.12507751 470.07132635 304.28576345 444.88678771 335.32431881 444.88678771L335.32431881 444.88678771zM661.01050089 255.77274646c-42.14346803 21.29889789-89.73660059 32.55260355-137.63413238 32.55260356-47.8952607 0-95.4895288-11.25370566-137.63186129-32.55260356-40.85658325-20.64239406-76.69057129-48.04746031-103.59133332-84.2108358-7.44416515-10.0179329-5.34971248-24.17365822 4.66935596-31.61895891 10.0179329-7.44530069 24.14980643-5.34971248 31.59397068 4.64323217 47.11381658 63.3912539 123.72942316 98.54374897 204.95986707 98.54374898 81.23271498 0 157.84832247-35.15249507 204.96213904-98.54374899 7.44416515-9.99294466 21.57490224-12.06240909 31.59397068-4.64323217 10.0179329 7.46915248 12.11238557 21.60102602 4.64323219 31.61895892C737.6749475 207.75027350000005 701.86594859 235.13148794999995 661.01050089 255.77274646L661.01050089 255.77274646zM661.01050089 255.77274646"  horiz-adv-x="1053" />

    
    <glyph glyph-name="evaluate-well" unicode="&#58936;" d="M926.18896308 558.78130078c-22.6453333 53.54610381-55.04733809 101.65034795-96.35780126 142.93472695-41.30686582 41.29787109-89.37603018 73.72596006-142.93562607 96.38028897C631.43623497 821.54398682 572.53192315 833.44142256 511.82774932 833.44142256c-60.70957031 0-119.60758652-11.89743487-175.07228291-35.34420674-53.55509854-22.65432802-101.65034795-55.08241787-142.93652519-96.38028897-41.3059667-41.28437901-73.71246797-89.38862315-96.37848985-142.93472695C73.9936795 503.30850878 62.0872499 444.41858818 62.0872499 383.71441434999997c0-60.70957031 11.90553047-119.60848565 35.35320146-175.07408203 22.66692099-53.53261172 55.07342227-101.64585059 96.37848985-142.92932959 41.28527812-41.28437901 89.38142666-73.73855303 142.9365252-96.38028896 55.4592999-23.45036924 114.3627126-35.33071377 175.07228291-35.33071377 60.70417383 0 119.60848565 11.88484277 175.06778555 35.33071377 53.55959589 22.64173594 101.62876026 55.09590997 142.93562607 96.38028896 41.31046406 41.27988164 73.71246797 89.39761787 96.35780127 142.92932959 23.46925781 55.46559638 35.37928652 114.36451172 35.37928652 175.07408203C961.56824873 444.41858818 949.6582209 503.30850878 926.18896308 558.78130078L926.18896308 558.78130078 926.18896308 558.78130078zM511.82774932-22.32659911999997C287.93073799-22.32659911999997 105.78673496 159.82100127 105.78673496 383.71441434999997c0 223.89251396 182.14850039 406.036517 406.04101436 406.036517s406.036517-182.14490215 406.03651699-406.036517C917.86426631 159.82100127 735.72026328-22.32659911999997 511.82774932-22.32659911999997L511.82774932-22.32659911999997 511.82774932-22.32659911999997zM693.65513516 441.32077588c30.01388203 0 54.31515997 24.30127792 54.31515996 54.31515996 0 30.01388203-24.30127792 54.33944589-54.31515996 54.3394459-30.01298291 0-54.33584854-24.32556387-54.33584854-54.3394459C639.3183875 465.62205381 663.64575049 441.32077588 693.65513516 441.32077588L693.65513516 441.32077588 693.65513516 441.32077588zM330.00126348 442.59174287c30.00938467 0 54.33584854 24.35164893 54.33584853 54.36103359 0 29.98869609-24.32646386 54.31515997-54.33584854 54.31515997-30.01388203 0-54.31426084-24.32646386-54.31426084-54.31515997C275.68610352 466.9433918 299.98738145 442.59174287 330.00126348 442.59174287L330.00126348 442.59174287 330.00126348 442.59174287zM740.55317451 276.59971992c-9.6622251 7.19674717-23.37841055 5.19630205-30.55357089-4.49020898C664.47327325 210.84046318000003 590.37043027 174.26666572 511.82325195 174.26666572c-78.54178096 0-152.62033799 36.57379658-198.17635253 97.81586016-7.17066211 9.71349521-20.88684844 11.71304121-30.5454753 4.51629404-9.68831016-7.20304365-11.71304121-20.88774756-4.49020899-30.57156035 26.00849268-34.99250888 60.61062744-64.02865518 100.13652159-83.98903799 40.74828838-20.59091895 86.76483662-31.47553828 133.07551523-31.47553828 46.31157862 0 92.3308251 10.88551933 133.0800126 31.47553828 39.4998082 19.96038281 74.12442979 48.99652911 100.16170664 83.98903799C752.26261836 255.73356005999995 750.23788643 269.39667626999994 740.55317451 276.59971992L740.55317451 276.59971992 740.55317451 276.59971992zM740.55317451 276.59971992"  horiz-adv-x="1024" />

    
    <glyph glyph-name="home" unicode="&#58981;" d="M993.91627605 365.65769557L511.99825351 787.3292709 30.08256 365.65769557l-26.33984683 30.09004089L511.99825351 840.47119019l508.25786937-444.72345259L993.91627605 365.65769557zM993.91627605 365.65769557M908.19272363-72.47119019000002l-318.83055673 0 0 245.72447062L430.75258027 173.25328157l0-245.72447062L113.04906069-72.47119019000002 113.04906069 338.81138062l396.92099016 354.92952519 398.22267278-354.83056014L908.19272363-72.47119019000002 908.19272363-72.47119019000002zM629.37782386-32.48696888999996l238.81903673 0L868.19686059 320.96506538999995 510.03525234 640.12511801 153.06471765 320.93130183000005l0-353.41827072 237.69316352 0L390.75788117 213.24798066000005l238.57686301 0 0-245.73494955L629.37782386-32.48696888999996zM629.37782386-32.48696888999996"  horiz-adv-x="1024" />

    
    <glyph glyph-name="category" unicode="&#59385;" d="M345.42222222 352.00000001L208.88888888 352.00000001c-75.09333333 0-136.53333333-61.44-136.53333334-136.53333333l0-136.53333334c0-75.09333333 61.44-136.53333333 136.53333334-136.53333333l136.53333334 0c75.09333333 0 136.53333333 61.44 136.53333333 136.53333333l-1e-8 136.53333334C481.95555555 290.56000000999995 420.51555555 352.00000001 345.42222222 352.00000001zM413.68888889 78.93333333999999c0-37.54666667-30.72-68.26666667-68.26666667-68.26666666L208.88888888 10.666666680000048c-37.54666667 0-68.26666667 30.72-68.26666667 68.26666666l0 136.53333334c0 37.54666667 30.72 68.26666667 68.26666667 68.26666666l136.53333334 0c37.54666667 0 68.26666667-30.72 68.26666667-68.26666666L413.68888889 78.93333333999999zM823.28888888 829.86666668l-136.53333334 0C611.66222221 829.86666668 550.22222221 768.42666668 550.22222221 693.33333334l0-136.53333333c0-75.09333333 61.44-136.53333333 136.53333333-136.53333333l136.53333334 0c75.09333333 0 136.53333333 61.44 136.53333334 136.53333333L959.82222222 693.33333334C959.82222222 768.42666668 898.38222222 829.86666668 823.28888888 829.86666668zM891.55555555 556.8000000100001c0-37.54666667-30.72-68.26666667-68.26666667-68.26666667l-136.53333334 0C649.20888888 488.53333334 618.48888888 519.2533333399999 618.48888888 556.8000000100001L618.48888888 693.33333334c0 37.54666667 30.72 68.26666667 68.26666666 68.26666667l136.53333334 0c37.54666667 0 68.26666667-30.72 68.26666667-68.26666667L891.55555555 556.8000000100001zM823.28888888 352.00000001l-136.53333334 0c-75.09333333 0-136.53333333-61.44-136.53333333-136.53333333l0-136.53333334c0-75.09333333 61.44-136.53333333 136.53333333-136.53333333l136.53333334 0c75.09333333 0 136.53333333 61.44 136.53333334 136.53333333l0 136.53333334C959.82222222 290.56000000999995 898.38222222 352.00000001 823.28888888 352.00000001zM891.55555555 78.93333333999999c0-37.54666667-30.72-68.26666667-68.26666667-68.26666666l-136.53333334 0c-37.54666667 0-68.26666667 30.72-68.26666666 68.26666666l0 136.53333334c0 37.54666667 30.72 68.26666667 68.26666666 68.26666666l136.53333334 0c37.54666667 0 68.26666667-30.72 68.26666667-68.26666666L891.55555555 78.93333333999999zM345.42222222 829.86666668L208.88888888 829.86666668C133.79555554 829.86666668 72.35555554 768.42666668 72.35555554 693.33333334l0-136.53333333c0-75.09333333 61.44-136.53333333 136.53333334-136.53333333l136.53333334 0c75.09333333 0 136.53333333 61.44 136.53333332 136.53333333L481.95555555 693.33333334C481.95555555 768.42666668 420.51555555 829.86666668 345.42222222 829.86666668zM413.68888889 556.8000000100001c0-37.54666667-30.72-68.26666667-68.26666667-68.26666667L208.88888888 488.53333334C171.34222221 488.53333334 140.62222221 519.2533333399999 140.62222221 556.8000000100001L140.62222221 693.33333334c0 37.54666667 30.72 68.26666667 68.26666667 68.26666667l136.53333334 0c37.54666667 0 68.26666667-30.72 68.26666667-68.26666667L413.68888889 556.8000000100001z"  horiz-adv-x="1024" />

    
    <glyph glyph-name="circle" unicode="&#58942;" d="M509.951853 774.275681c214.037794 0 388.218836-174.186158 388.218836-388.228045 0-214.042911-174.181041-388.223952-388.218836-388.223952-214.048027 0-388.224975 174.181041-388.224975 388.223952C121.726877 600.089523 295.903825 774.275681 509.951853 774.275681M509.951853 829.732737c-245.076718 0-443.682032-198.605314-443.682032-443.686125 0-245.020436 198.606337-443.686125 443.682032-443.686125 245.075695 0 443.681008 198.665689 443.681008 443.686125C953.632861 631.128447 755.027547 829.732737 509.951853 829.732737L509.951853 829.732737 509.951853 829.732737zM509.951853 829.732737"  horiz-adv-x="1024" />

    
    <glyph glyph-name="eye" unicode="&#58986;" d="M947.07821227 393.89156693c-1.25392213 3.2047104-127.4052608 317.78187947-435.0869504 317.78187947S78.22923093 397.09627733 76.9753088 393.89156693c-2.50893653-6.33951573-2.50893653-13.44361813 0-19.8180864 1.25392213-3.16975787 127.33426347-317.74692693 435.01704533-317.74692693S945.82429013 370.90372267 947.07821227 374.07348053C949.51724373 380.44794879999995 949.51724373 387.5520512 947.07821227 393.89156693zM511.99126187 110.93988692999994c-244.15327573 0-357.2072448 222.10587307-379.91656107 273.02516054 22.70931627 50.95424 135.76328533 273.0950656 379.91656107 273.0950656 244.22208853 0 357.27824213-222.1408256 379.9875584-273.0950656C869.269504 333.04576 756.2133504 110.93988692999994 511.99126187 110.93988692999994zM511.99126187 547.8367232c-90.4855552 0-163.83563093-73.35007573-163.83563094-163.87058347 0-90.4527872 73.35007573-163.80286293 163.83563094-163.80286293 90.48773973 0 163.83781547 73.35007573 163.83781546 163.80286293C675.82907733 474.4855552 602.4790016 547.8367232 511.99126187 547.8367232zM511.99126187 274.77551787000004c-60.32479573 0-109.22448213 48.90077867-109.22448214 109.1895296 0 60.358656 48.90077867 109.2583424 109.22448214 109.2583424s109.22448213-48.90077867 109.22448213-109.2583424C621.215744 323.67520427 572.3160576 274.77551787000004 511.99126187 274.77551787000004z"  horiz-adv-x="1024" />

    
    <glyph glyph-name="left" unicode="&#58991;" d="M643.81383113 768.47670158L578.70425204 835.61469269 124.18616891 383.99766982999995 578.70075679-67.61352761 643.81383113-0.4801968299999544 261.66613335 383.99766982999995Z"  horiz-adv-x="1024" />

    
    <glyph glyph-name="evaluate1" unicode="&#58918;" d="M368 181.5l-36 0c-12.42 0-22.491 10.071-22.491 22.5s10.071 22.5 22.491 22.5l36 0c12.429 0 22.5-10.071 22.5-22.5S380.429 181.5 368 181.5zM368 505.5l-36 0c-12.42 0-22.491 10.071-22.491 22.5s10.071 22.5 22.491 22.5l36 0c12.429 0 22.5-10.08 22.5-22.5S380.429 505.5 368 505.5zM368 343.491l-36 0c-12.42 0-22.491 10.08-22.491 22.509s10.071 22.5 22.491 22.5l36 0c12.429 0 22.5-10.071 22.5-22.5S380.429 343.491 368 343.491zM512-61.5C265.958-61.5 66.5 137.95799999999997 66.5 384S265.958 829.5 512 829.5c65.709 0 128.106-14.238 184.257-39.771 21.618-15.624 4.572-41.652-14.868-32.796C629.756 780.423 572.399 793.5 512 793.5 285.839 793.5 102.5 610.1610000000001 102.5 384S285.839-25.490999999999985 512-25.490999999999985 921.491 157.83900000000006 921.491 384c0 31.113-3.456 61.398-10.026 90.531-6.75 32.076 32.238 36.513 35.127 7.947C953.72 450.798 957.5 417.84 957.5 384 957.5 137.95799999999997 758.042-61.5 512-61.5zM476 226.5l288 0c12.429 0 22.5-10.071 22.5-22.5s-10.071-22.5-22.5-22.5L476 181.5c-12.42 0-22.5 10.071-22.5 22.5S463.571 226.5 476 226.5zM476 505.5c-12.42 0-22.5 10.071-22.5 22.5s10.071 22.5 22.5 22.5l81 0c12.429 0 22.5-10.08 22.5-22.5s-10.071-22.5-22.5-22.5L476 505.5zM578.447 355.64099999999996c-0.918-0.936-1.935-1.71-2.97-2.439-4.059-5.832-10.809-9.702-18.477-9.702l-81 0c-12.42 0-22.5 10.08-22.5 22.509s10.071 22.5 22.5 22.5l71.721 0 311.832 302.868c8.793 8.793 23.031 8.793 31.815 0 8.793-8.793 8.793-23.031 0-31.815L578.447 355.64099999999996z"  horiz-adv-x="1024" />

    
    <glyph glyph-name="user" unicode="&#58892;" d="M511.790222 834.308963c-246.920716 0-447.803909-200.883193-447.803909-447.803909 0-125.418454 53.093219-245.896386 145.623635-330.515622 82.512249-75.634608 189.831486-117.29852 302.180274-117.29852 111.692848 0 218.693838 41.345664 301.305347 116.443036 93.106538 84.718497 146.498562 205.495234 146.498562 331.370083C959.594131 633.425769 758.710938 834.308963 511.790222 834.308963zM511.790222-20.598897999999963c-96.721879 0-189.330066 33.980929-262.572184 95.978958 55.116295 91.861174 154.071028 148.277068 261.975597 148.277068 108.276029 0 207.383234-56.698327 262.35422-148.997476C700.254571 13.124157999999966 607.935979-20.598897999999963 511.790222-20.598897999999963zM348.355943 427.214221c0 89.786932 73.05076 162.837692 162.837692 162.837692 89.786932 0 162.837692-73.05076 162.837692-162.837692 0-89.797166-73.05076-162.847925-162.837692-162.847925C421.406702 264.36731899999995 348.355943 337.417055 348.355943 427.214221zM803.959491 102.94690600000001c-45.032636 71.482031-113.843838 123.124202-193.077414 146.853649 61.936631 34.94386 103.859439 101.371782 103.859439 177.413666 0 112.239294-91.317799 203.546859-203.546859 203.546859s-203.546859-91.307565-203.546859-203.546859c0-76.051093 41.933041-142.486178 103.881952-177.426969-78.916351-23.647583-147.553591-74.991971-192.623066-146.033981-72.863495 75.56093-114.209158 177.226401-114.209158 282.750759 0 224.468354 182.616154 407.094742 407.094742 407.094742s407.094742-182.626387 407.094742-407.094742C918.884964 280.57034899999996 877.28245 178.600957 803.959491 102.94690600000001z"  horiz-adv-x="1024" />

    
    <glyph glyph-name="setting" unicode="&#58901;" d="M510.89301231 599.9781143499999c-116.80518692 0-211.49762256-94.69063565-211.49762257-211.49762255 0-116.80608691 94.69243565-211.49762256 211.49762256-211.49762256 116.80698692 0 211.49762256 94.69153565 211.49762257 211.49762256C722.39063487 505.28747871 627.69999922 599.9781143499999 510.89301231 599.9781143499999zM510.89301231 230.98226192000004c-86.98222266 0-157.49822988 70.51510722-157.49822989 157.49822988 0 86.98402266 70.51600722 157.49822988 157.49822989 157.49822989 86.98402266 0 157.49822988-70.51420723 157.49822988-157.49822989C668.39124219 301.49646914000004 597.87703497 230.98226192000004 510.89301231 230.98226192000004zM881.52864628 340.14923495000005c-7.25031826 8.81000068-6.30442881 13.02735323-6.3449288 14.92543214-0.14039824 6.30532881-0.11969825 48.79205156 0 54.1559909 0.04049911 1.89717891-0.90538945 6.11543145 6.34492881 14.92453214 16.14311895 19.16618467 59.60363027 70.76620459 77.94272373 92.53696026 4.58364815 5.92643319 1.5218833 14.65003565 1.52188331 14.65003565l-19.78087765 32.68223261-48.07925946 79.45290704-19.14458468 31.62564491c0 0-4.66284727 9.11689717-13.87244443 6.6509253-27.43439151-5.92733321-114.73251065-24.4482249-130.44903398-27.78178799-15.40782685 9.73699013-53.23710146 33.64342207-67.93213623 42.92411748-7.89111123 5.23884112-10.05378662 12.09946377-10.05378663 12.09946377s-29.97956338 87.42861739-39.97125087 116.57118956c-2.64057012 9.13669717-12.87885498 8.40860508-12.87885499 8.40860507l-37.05078339 0.0063-93.0724541 0-38.28736934 0c0 0-9.07459805-1.89357891-11.79346729-8.86760069-9.22579628-26.90249766-31.0892502-90.65778135-39.20985966-114.34011503-3.82045693-10.74047959-7.93071123-12.11116377-9.53989278-13.12725235-15.5653251-9.83508926-56.68856279-35.82139747-70.89310283-44.79519638-15.87852158 3.41186133-105.77221084 22.73914425-133.26150234 28.67637743-9.20959628 2.46687188-13.87154443-6.64912529-13.87154443-6.64912529l-87.00472179-143.76258369c0 0-3.06086573-8.72360156 1.52188331-14.64823564 18.33819346-21.77165567 61.80050567-73.37257558 77.94272372-92.53786025 7.24851826-8.81000068 6.30262881-13.02735323 6.34492882-14.92543213 0.13499825-6.16403057 0.62639297-63.74358369-4.16425342-67.93483623-16.14311895-19.16528467-61.82390479-71.68599404-80.16119912-93.45854971-4.58454815-5.92463319-1.5227833-14.64913565-1.52278331-14.64913565l87.00562179-143.76168368c0 0 4.66104727-9.11689717 13.87064443-6.64912531 30.19286075 6.52222705 120.76424297 26.09610644 120.76424297 26.09610646s7.00912089 1.69918066 15.5851251-2.33277364c12.89055498-6.41872793 66.40485381-33.26182646 67.84483711-34.17441592 1.60918154-1.01518857 5.71853584-2.38587276 9.53989277-13.12635234 8.12060859-23.68143369 29.98406338-87.43761738 39.20985966-114.34011503 2.71886924-6.97402178 11.79346729-8.86760068 11.79346729-8.86760069l38.28736934 0 93.0724541 0 37.0507834 0.0063c0 0 10.23828487-0.72899209 12.87885498 8.40860507 9.9925875 29.14347217 39.97125088 116.57118955 39.97125088 116.57118956s2.16267539 6.86062266 10.05378662 12.09946377c5.62223671 3.55046045 55.21257949 30.0245625 62.03450303 33.42202471 8.57510333 4.0310543 15.5851251 2.33277363 15.58512509 2.33277363s90.57138223-19.57388027 120.76244297-26.09610644c9.20959628-2.46777187 13.87244443 6.64912529 13.87244443 6.64912529l19.14458467 31.62654492 48.07925948 79.45200703 19.78087763 32.68313261c0 0 3.06086573 8.72450156-1.52188331 14.64913565C941.13227655 269.38393037000003 897.67176523 320.98395029000005 881.52864628 340.14923495000005zM893.33111357 225.36812521000002c-9.20779628-15.21252862-31.76244316-52.48651026-43.47041133-71.8344923-4.4405499-7.33761738-10.66848047-11.38307168-16.20521806-10.20408574-21.15966182 4.50804903-74.30856503 15.82632246-94.86883389 20.20477324-14.56813653 2.87276748-22.10915127-0.78389121-24.69392227-2.06457715-12.66195761-6.27382969-87.54831563-47.26926826-94.72753563-51.82501729-2.43447276-1.54528242-9.47239365-6.09383145-14.53123653-20.014875-6.86062266-19.81147763-24.59492315-71.03170195-31.65624404-91.42367255-1.84677891-5.33514023-8.5373042-8.5616042-17.13310752-8.5616042-22.66444512 0-66.32745469 0-84.14905429 0-10.65048047-0.04949913-15.00103125 9.72889102-15.00103126 9.72889101s-24.92071963 71.80209317-33.22582646 95.73552422c-2.87726748 6.44032793-2.17617539 8.59580332-10.16988575 12.9472541-6.05693232 3.84565693-86.01203321 45.59438759-101.79335566 53.41439971-2.58387099 1.28068594-10.12758575 4.93734463-24.69392226 2.06457715-20.56026885-4.37845078-73.71097119-15.69672334-94.8688339-20.20477324-5.5385376-1.17988682-11.76466817 2.86646748-16.20431806 10.20408574-11.70886816 19.34798291-34.26441504 56.62196367-43.47131133 71.83449228-5.5439376 9.06469805 0.60479297 17.83059961 0.60479297 17.83059961s48.79025156 58.36794434 65.05396875 77.82122549c4.0472543 5.78153497 6.25942969 6.29632881 5.86883408 15.36912685 0.15389825 6.42142793 0.25199737 82.42917363 0.0378 91.30397344 0.39239559 9.07189805-1.81977979 9.5875919-5.86793408 15.36822686-16.26371719 19.45418115-65.05396875 77.82212549-65.05396875 77.82212548s-6.14873057 8.76500156-0.60479297 17.82969961c9.20599628 15.21252862 31.76244316 52.48651026 43.47041133 71.83539229 4.4405499 7.33671739 10.66668047 11.38307168 16.20521806 10.20408575 21.15786182-4.50804903 74.30856503-15.82722247 94.8688339-20.20567325 21.00036357-6.91912266 32.08553964 0.62009297 35.90329657 3.76195781l0.0207-0.0333c0 0 67.89253711 43.09421572 90.52458223 57.46075401 7.99371035 4.35145078 7.29261826 6.50602705 10.16988575 12.9472541 8.30510683 23.93433106 33.22582646 95.73552422 33.22582646 95.73552422s4.35055078 9.77749013 15.00103125 9.72889101c17.82159961 0 61.48460918 0 84.1490543 0 8.59580332 0 15.28632862-3.22646396 17.13310752-8.5616042 7.0613209-20.3919706 24.79562138-71.61219492 31.65624404-91.42367255 5.05794287-13.92104356 12.09586377-18.46959258 14.53123652-20.01487501 20.3811706-12.93285498 78.49891758-49.79464013 87.02272178-55.20177949 0.86489033-0.71729209 15.65802422-8.46800508 32.39783613-4.17325341 18.24729521 3.88525605 62.17130127 13.24065146 86.61142617 18.44709257 3.09416484 0.65789297 18.14649609 4.17685342 24.4626249-8.44640507 11.70796816-19.34798291 34.26171504-56.62286367 43.47041133-71.83449229 5.5439376-9.06559805-0.60479297-17.83149961-0.60479297-17.83149961s-48.79205156-58.36704434-65.05576875-77.82032548c-4.0472543-5.78153497-6.25942969-6.29722881-5.86703407-15.36822686-0.25379737-10.54248135-0.21509737-82.61817099 0-91.5289708-0.39329561-9.07279805 1.81887979-9.5875919 5.86703407-15.36912686 16.26371719-19.45328115 65.05576875-77.82122549 65.05576875-77.82122548S898.87505117 234.43282324999996 893.33111357 225.36812521000002z"  horiz-adv-x="1024" />

    
    <glyph glyph-name="search" unicode="&#58948;" d="M1007.16246184-51.45400651l-225.56527347 232.19954648c0 0-6.63427302 6.63427302-13.26854512 6.63427302 46.43990929 59.70845442 79.61127347 145.9540009 79.61127347 232.19954648C841.30564279 631.87608692 675.44882374 804.3671789800001 463.1520954 804.3671789800001 264.12391308 804.3671789800001 91.63282102 631.87608692 91.63282102 419.57935947s172.49109206-384.7878195 378.1535474-384.7878195c92.8798186 0 185.75963719 39.80563628 245.46809161 92.87981859l6.63427301-6.63427301 225.56527347-232.19954648c13.26854513-13.26854513 39.80563628-13.26854513 53.07418231 0C1027.06527998-91.25964279000004 1027.06527998-71.35682466000003 1007.16246184-51.45400651L1007.16246184-51.45400651zM469.78636842 94.49999438999998c-179.12536418 0-318.44509206 145.9540009-318.44509207 325.07936508S290.66100334 744.65872455 469.78636842 744.65872455c179.12536418 0 318.44509206-145.9540009 318.44509206-325.07936508S648.91173259 94.49999438999998 469.78636842 94.49999438999998L469.78636842 94.49999438999998z"  horiz-adv-x="1026" />

    
    <glyph glyph-name="history" unicode="&#58927;" d="M919.092183 203.488787c-74.985832 67.678402-107.752096 20.321838-170.404018 104.681154-81.235163 109.545952 8.586562 190.889585-83.245959 289.840224 0 0-60.314691 60.668755-149.32084 60.668755-59.826574 0-132.586714-27.41335-208.659297-119.026884C189.059402 397.068643 243.614925 201.26104899999996 407.445224 66.58371999999997c110.360504-90.854241 229.741451-127.721917 328.474127-127.721917 84.060511 0 153.125493 26.759457 188.771341 69.687152C975.006657 69.16449799999998 961.857173 164.88148999999999 919.092183 203.488787zM881.871467 44.087357c-25.37697-30.591739-81.289398-49.582255-145.95314-49.582255-57.272401 0-171.546028 14.942317-293.154713 115.059526-82.594113 67.921949-134.486994 153.777339-142.256958 235.582483-5.597485 58.957787 11.138688 112.453165 49.773613 158.966525 54.501288 65.61337 110.306268 98.92301 165.841096 98.92301 62.760392 0 108.404965-42.900066 108.567671-42.900066 31.950689-34.477232 31.461549-61.4567 30.645974-106.149599-0.923022-49.256844-2.065032-110.578468 48.686862-178.99058 42.11212-56.728002 78.084403-70.230528 117.316939-80.962963 20.974707-5.732561 36.134988-9.863648 60.47842-31.842219C900.999107 144.857435 914.257062 83.07532300000003 881.871467 44.087357zM122.49538 383.99897699999997c-30.755468 0-55.642275-24.913413-55.642275-55.642275 0-30.726815 24.886807-55.640228 55.642275-55.640228s55.642275 24.913413 55.642275 55.640228C178.137655 359.085564 153.249825 383.99897699999997 122.49538 383.99897699999997zM122.49538 550.9258c-30.755468 0-55.642275-24.914436-55.642275-55.642275s24.886807-55.642275 55.642275-55.642275 55.642275 24.914436 55.642275 55.642275S153.249825 550.9258 122.49538 550.9258zM315.504232 649.169335c0 37.927821-30.701233 68.683289-68.683289 68.683289s-68.683289-30.755468-68.683289-68.683289c0-37.926798 30.701233-68.683289 68.683289-68.683289S315.504232 611.242538 315.504232 649.169335zM233.779929 649.169335c0 7.199982 5.868661 13.041014 13.041014 13.041014s13.041014-5.841032 13.041014-13.041014c0-7.198959-5.868661-13.041014-13.041014-13.041014S233.779929 641.970376 233.779929 649.169335zM428.527378 662.210349c46.078455 0 83.463923 37.357839 83.463923 83.463923 0 46.107107-37.385469 83.463923-83.463923 83.463923s-83.463923-37.356816-83.463923-83.463923C345.064478 699.568189 382.448924 662.210349 428.527378 662.210349zM428.527378 773.494898c15.32401 0 27.821649-12.471033 27.821649-27.821649s-12.497639-27.821649-27.821649-27.821649-27.821649 12.471033-27.821649 27.821649S413.203368 773.494898 428.527378 773.494898z"  horiz-adv-x="1024" />

    
    <glyph glyph-name="evaluate" unicode="&#59003;" d="M800.14269694 312.19599718999996c66.83845679 148.49118169 38.94817772 348.7816116 37.71259956 357.2543006-7.80104098 30.58531807-29.85558817 47.02801605-59.71011957 47.02801605-33.28035811 0-75.81699303-21.01645009-104.88687985-38.04842305C645.30993511 746.64332287 592.39021676 797.40236355 589.75220493 799.89992148c-23.68086352 20.09029382-47.81266063 29.74364631-72.95404176 29.74364632-1.51648802 0-2.91892167-0.64524642-4.43435395-0.7022736l0-0.14045493c-1.2894371 0.16896799-2.52501526 0.61673335-3.87147955 0.61673335-25.14138113 0-49.27317824-9.65229676-72.9550975-29.74364631-2.63801285-2.49755793-55.5577312-53.25765434-83.50609215-121.47003173-29.06883006 17.03302972-71.60863424 38.04947879-104.88582307 38.04947879-29.85558817 0-51.91013433-16.44269799-59.71117532-47.02801605-1.23452243-8.47374474-29.12585723-208.76417567 37.7115428-357.25535634 2.47010059-6.14409804 60.60987423-143.35666665 259.10396304-156.76955683l0-188.11100642c0-15.88193505 12.85107151-28.73406229 28.73300656-28.73406229s28.73195083 12.85212725 28.73195083 28.73406229L541.71460486 155.45495343000005C739.64687603 169.11918361999994 797.67470782 306.05084237999995 800.14269694 312.19599718999996zM278.00943236 334.47337028000004c-60.32790865 134.04125015-34.00797653 324.313991-30.86517115 324.313991 24.74853046 0 75.81699303-28.2556724 104.15714891-48.29105155l35.13055712-24.80450087 9.48438449 41.89350101c15.71296705 68.99913446 78.00512803 129.29958578 77.95021335 129.29958576 0 0 0 0-0.05702718 0 12.00939976 10.12963091 23.34609577 15.6295393 34.68173604 15.62953931 1.4584051 0 2.97383635-0.19748107 4.43224145-0.33688027l0 0.67375949c1.29154858-0.05597041 2.58204244-0.67375949 3.87359102-0.67375949 11.33564027 0 22.67233627-4.93914545 34.6806803-15.06877636-0.05597041 0-0.05597041 0-0.05597042 0-0.05597041 0 62.2372463-60.30045131 77.95021335-129.29853004l9.48332877-41.89350099 35.13266961 24.80450085c28.34015589 20.03432341 79.40756273 48.29105155 104.15714891 48.29105156 3.14174861 0 29.46168073-190.27274085-30.86728366-324.313991-2.46904486-5.86424496-53.36959516-121.91779707-234.91513979-123.09740482l0-0.16685549C331.32305712 212.86499613 280.47953295 328.61018105999995 278.00943236 334.47337028000004zM210.2733334 201.30441745999997c-56.06357843 3.3952001-106.90710259-22.05560293-151.18516496-76.35135436-10.04514743-12.31776592-8.19389166-30.41740581 4.15344411-40.43298339 12.23433816-10.01769009 30.41635007-8.19494738 40.40552605 4.12493102 32.32463199 39.64728309 66.27769386 58.0542334 102.81068566 55.3327928 81.76572249-5.27602571 165.2147885-112.12715789 190.5251366-152.86956421 5.44288121-8.78211089 14.81532488-13.60931553 24.46762061-13.60931553 5.10705772 0 10.38202666 1.40243469 15.04026328 4.32135638 13.524831 8.33328981 17.67721938 26.01156596 9.37138691 39.50682815C441.48596164 28.343503690000034 338.39436716 192.96901515000002 210.2733334 201.30441745999997zM964.90971906 125.09351803000004c-44.27806134 54.26723836-94.72873483 80.08237898-151.1841082 76.35135435-128.11997803-8.33540231-231.21262824-172.96091377-235.58995604-179.97625443-8.30583247-13.4952622-4.15238837-31.20099569 9.37244366-39.53639697 4.71315131-2.91681021 9.93320558-4.29178653 15.0962337-4.29178652 9.59738207 0 19.02368366 4.82614786 24.46867737 13.63782859 25.14138113 40.68432341 108.36445196 147.47948518 190.35511286 152.84105113 36.36613527 2.57992995 70.54307981-15.65699663 102.92368222-55.33279278 10.04514743-12.29136534 28.17118789-14.14367685 40.40658282-4.12493103C973.10466644 94.67611119000003 974.95486649 112.77575107999996 964.90971906 125.09351803000004z"  horiz-adv-x="1024" />

    
    <glyph glyph-name="receive" unicode="&#59012;" d="M928.282496 618.43024l-76.078723 146.396231C833.401546 800.908248 786.830881 829.164802 746.182089 829.164802L278.411429 829.164802c-40.59251 0-87.325881-28.093848-106.291838-63.905472l-76.023464-143.407154c-16.410762-31.028691-29.234835-82.761935-29.234835-117.812219l0-481.737766c0-46.027289 37.386492-83.468017 83.466993-83.468017l723.339336 0c46.027289 0 83.46904 37.44175 83.46904 83.468017l0 478.313783C957.137685 535.6130459999999 944.476317 587.400526 928.282496 618.43024zM145.330458 595.82336l75.969229 143.352919c9.509585 17.932418 36.734646 34.344203 57.112766 34.344203l467.770659 0c20.270672 0 47.27777-16.410762 56.678884-34.398438l76.079746-146.340973c3.586688-6.955412 6.955412-15.868409 10.051937-25.432229L134.189723 567.348841C137.559471 578.0536480000001 141.254629 588.1618659999999 145.330458 595.82336zM901.491317 22.303214000000025c0-15.32401-12.443403-27.821649-27.822672-27.821649L150.328285-5.518434999999954c-15.377222 0-27.821649 12.498662-27.821649 27.821649L122.506637 504.04098c0 2.227738 0.434905 5.16258 0.651846 7.661494l777.407766 0c0.326435-3.695159 0.924045-7.824199 0.924045-11.085476L901.490294 22.303214000000025zM745.912959 358.460324L605.765035 208.74857999999995l-56.568367 56.460919c-10.868535 10.868535-28.474518 10.868535-39.344077 0-10.867512-10.867512-10.867512-28.474518 0-39.34203l76.296687-76.079746c5.434779-5.433756 12.498662-8.150634 19.61678-8.150634 3.858888 0 7.661494 0.978281 11.304464 2.608407 4.074805 1.413186 7.878434 3.586688 11.030218 6.9022l158.459988 169.273265c10.487865 11.193947 9.890254 28.800953-1.303692 39.343053C774.061043 370.19764599999996 756.455059 369.65324699999996 745.912959 358.460324zM429.046195 317.812555L262.055926 317.812555c-15.325034 0-27.822672-12.444427-27.822672-27.822672s12.498662-27.822672 27.822672-27.822672l166.991292 0c15.378246 0 27.822672 12.444427 27.822672 27.822672S444.425464 317.812555 429.046195 317.812555zM344.599897 199.13052600000003l-83.468017 0c-15.378246 0-27.821649-12.498662-27.821649-27.821649 0-15.432481 12.443403-27.822672 27.821649-27.822672l83.468017 0c15.379269 0 27.822672 12.390191 27.822672 27.822672C372.422569 186.63186399999995 359.979166 199.13052600000003 344.599897 199.13052600000003z"  horiz-adv-x="1024" />

    
    <glyph glyph-name="address" unicode="&#58965;" d="M488.03688297 774.77539082c174.13036563 0 315.23301452-137.94721185 315.23301451-308.04225897 0-80.47335348-31.58713837-150.83474489-83.25620623-205.71629037l-203.75021036-252.92648296c-8.09855052-9.92263585-18.74086875-14.85968118-29.33342814-14.85968119s-21.18390518 4.93461808-29.23512416 14.85968119l-204.56334222 252.92648296c-49.22117689 54.39730725-80.33257245 127.35222518-80.33257245 205.71629037 0 170.10475615 141.10750341 308.04225897 315.23301453 308.04225897M488.03688297 839.38175052c-52.00402963 0-102.47645867-9.96875378-149.97428149-29.61984474-45.72592355-18.88164978-86.704128-45.91646341-121.88725096-80.28524089-35.03748741-34.2219283-62.50313955-74.05203911-81.67484682-118.390784-19.79429925-45.77325511-29.8637843-94.37426725-29.86378429-144.41221689 0-46.05845808 8.77332859-91.35111585 26.11730962-134.72866608 16.39128178-41.02917689 39.73180682-78.60679111 69.35043794-111.62965333l203.51355258-251.53930429c20.65718992-25.54569008 50.99671703-40.16385897 83.30475142-40.16385897 32.210944 0 62.54804385 14.57569185 83.25620621 39.97453275l0.2864166 0.28641659 202.26230044 251.01380266c30.91600118 33.25952 55.02596741 70.46090903 71.75221096 110.66845867 17.92773689 43.08749275 26.98626845 88.86196148 26.98626845 136.12069925 0 50.04159052-10.06463052 98.64138903-29.8637843 144.4122169-19.17049363 44.33267675-46.68347733 84.16278755-81.67484681 118.33859793-35.13336415 34.36513659-76.15890015 61.39873659-121.88725097 80.28524089-47.54758163 19.70206341-98.01636978 29.66596267-150.02161303 29.66596266v0zM488.03688297 281.28688354999997c-106.25934222 0-192.68069452 84.02443378-192.68069452 187.26305186 0 103.28959052 86.46625659 187.26305185 192.68069452 187.26305184 106.2132243 0 192.68069452-84.02443378 192.68069451-187.26305184 0-103.28959052-86.41892503-187.26305185-192.68069451-187.26305186zM488.03688297 591.20298667c-68.68294163 0-124.56694518-55.02596741-124.56694519-122.66033304s55.88400355-122.66033303 124.56694519-122.66033304c68.63561008 0 124.52325452 55.02596741 124.52325451 122.66033304 0 67.62829748-55.83909925 122.66033303-124.52325451 122.66033304z"  horiz-adv-x="1024" />

    
    <glyph glyph-name="avatar" unicode="&#59423;" d="M322.85968611 737.10391069c27.0931456 33.02639389 60.51656363 54.5134592 91.58112029 68.4593846 14.94954894 6.71099677 30.60233102 11.48344206 46.18292793 14.66662457 17.20595229 3.51500629 34.42471139 5.08214841 50.53622727 5.17994837l0.09197909 0 0.7474779 0.00116395 0.74747791-0.00116395 0.09197909 0c16.11151474-0.0978011 33.3291099-1.66494208 50.53622727-5.17994837 15.58059691-3.18318251 31.23337899-7.95562781 46.18292793-14.66662457 31.06572061-13.94592654 64.48913863-35.43299186 91.57995634-68.4593846 21.52665088-26.24204573 38.91074048-59.51177728 47.74773988-101.66507976 6.27322197-29.92354759 8.27580871-63.65201067 5.41979306-96.65744668-2.70815005-31.32652317-9.79521422-62.38642176-21.75834567-89.47141746-6.52121657-14.76209664-15.54450318-31.97969181-28.02574677-51.25343232-9.99198037-15.4269093-22.10763435-32.00297757-36.79288776-49.43014684-2.59637817-4.58965106-11.58240711-23.20440093 6.47347997-33.98577266 20.75588835-12.39508537 71.21410731-42.823936 118.12122624-71.50634439 30.72923875-18.78939307 61.24657664-37.64398763 83.13648811-51.58642119 15.94152733-10.15614578 35.09301703-22.94243442 51.1148817-39.33570845 17.85562909-18.26895417 31.53027413-40.58616149 33.20336612-68.06818133 0.49249735-8.07438563 0.71837013-17.60414151 0.75679175-27.56701412 0.04075065-11.04566727-0.17930126-21.89573234-0.54372579-31.38240853-0.84294997-21.96442567-5.39417941-41.19508765-16.57606827-56.0375205-12.24838371-16.25821639-30.72574691-25.96377941-58.2007808-26.57037767l-0.46106055 0c-107.91385088 0.39120327-231.81580174 0.58680434-372.75488256 0.58680434s-264.84103168-0.19560107-372.75488256-0.58680434l-0.45989661 0c-27.47503502 0.60659826-45.95239709 10.31216128-58.19961685 26.57037767-11.18188999 14.84243285-15.73428338 34.07309483-16.57606827 56.0375205-0.36442453 9.48667619-0.58447645 20.33790635-0.54372579 31.38357362 0.03609259 9.96170866 0.26545949 19.49029945 0.7556278 27.56585017 1.67425593 27.48202098 15.34890211 49.79806322 33.20453006 68.06818133 16.02302862 16.39327403 35.1721893 29.18072661 51.11488171 39.33570845 21.88758243 13.94126848 52.40259129 32.79353401 83.12833821 51.58292821 46.90944797 28.68240839 97.37115989 59.11358805 118.12821219 71.50983737 18.05588821 10.78253682 9.06985813 29.3961216 6.47347997 33.98577266-14.68292437 17.42716814-26.79974343 34.00323755-36.79172381 49.43014684-12.48240754 19.27374051-21.5068581 36.49133568-28.02574677 51.25343232-11.96313145 27.0849957-19.05019563 58.14489543-21.75951076 89.47141746-2.85601565 33.00543602-0.85109987 66.73389909 5.41979307 96.65744668C283.95011072 677.59213341 301.33303523 710.86302891 322.85968611 737.10391069"  horiz-adv-x="1024" />

    
    <glyph glyph-name="close" unicode="&#58886;" d="M161.43822271-9.673254120000024a30.48363247 30.48363247 0 0 0-21.93297319 51.65451514l701.12355362 726.37162231a30.48363247 30.48363247 0 0 0 43.86594733-42.34176532l-701.12355361-726.37162232A30.43028655 30.43028655 0 0 0 161.43822271-9.673254120000024zM862.56177729-9.673254120000024a30.39980264 30.39980264 0 0 0-21.93297415 9.31274981l-701.12355361 726.37162232a30.48363247 30.48363247 0 0 0 43.86594733 42.34176532l701.12355362-726.37162231a30.48363247 30.48363247 0 0 0-21.93297319-51.65451514z"  horiz-adv-x="1024" />

    
    <glyph glyph-name="pengyouquan" unicode="&#59195;" d="M649.45454521 442.09090869v0.81818262-0.81818262zM454.72727305 246.54545479l0.81818174-0.81818174H454.72727305h0.81818174l-0.81818174 0.81818174zM512 834C263.27272695 834 62 632.72727305 62 384s201.27272695-450 450-450 450 201.27272695 450 450S760.72727305 834 512 834z m88.36363653-246.27272695c18-7.36363653 35.18181826-18 50.72727216-30.27272784 6.54545479-4.90909131 13.09090869-10.63636347 18.81818262-16.36363652 13.90909131-13.90909131 25.36363652-29.45454521 35.18181738-45.81818174 2.45454521-4.09090869 4.90909131-8.18181826 6.54545479-12.27272695L600.36363653 372.54545479c0.81818174 6.54545479 0 215.18181826 0 215.18181826zM487.45454521 603.27272695c8.18181826 0.81818174 16.36363653 1.63636348 25.36363653 1.63636436 19.63636348 0 39.27272695-2.45454521 57.27272695-7.36363652 4.90909131-1.63636348 9-2.45454521 13.90909131-4.09090958v-157.09090869C579.09090869 442.09090869 430.18181826 588.54545479 430.18181826 588.54545479c18 7.36363653 36.81818174 12.27272695 57.27272695 14.72727216z m-148.90909042-81c4.90909131 6.54545479 10.63636347 12.27272695 16.36363652 18.81818174 13.90909131 13.90909131 29.45454521 25.36363652 45.81818174 35.18181826 4.09090869 2.45454521 8.18181826 4.90909131 12.27272695 6.54545479l111.27272695-110.45454521c-6.54545479 0.81818174-216 0-216 0 8.18181826 17.18181826 18 34.36363653 30.27272784 49.90909042zM292.72727305 359.45454521c-0.81818174 8.18181826-1.63636348 16.36363653-1.63636436 24.54545479 0 19.63636348 2.45454521 38.45454521 7.36363652 57.27272695 1.63636348 4.90909131 2.45454521 9 4.09090958 13.90909131h157.09090869C454.72727305 451.09090869 307.45454521 302.18181826 307.45454521 302.18181826c-7.36363653 18-12.27272695 36.81818174-14.72727216 57.27272695zM372.90909131 211.36363652c-6.54545479 4.90909131-13.09090869 10.63636347-18.81818262 16.36363653-13.90909131 13.90909131-25.36363652 29.45454521-35.18181738 45.81818174-2.45454521 4.09090869-4.90909131 8.18181826-6.54545479 12.27272695l111.27272695 110.45454521c-0.81818174-6.54545479 0-216 0-215.18181826-18 8.18181826-34.36363653 18-50.72727216 30.27272783z m163.63636348-46.63636347c-8.18181826-0.81818174-16.36363653-1.63636348-24.54545479-1.63636436-19.63636348 0-39.27272695 2.45454521-57.27272695 7.36363652-4.90909131 1.63636348-9 2.45454521-13.90909131 4.09090958V331.63636347c4.09090869-5.72727305 153.81818174-152.18181826 153.81818173-152.18181826-18.81818174-7.36363653-37.63636347-12.27272695-58.09090868-14.72727216zM683.81818174 244.90909131c-4.90909131-6.54545479-10.63636347-13.09090869-16.36363653-18.81818262-13.90909131-13.90909131-29.45454521-25.36363652-45.81818174-35.18181738-4.09090869-2.45454521-8.18181826-4.90909131-12.27272695-6.54545479L498.09090869 295.63636347c6.54545479-0.81818174 216 0 216 0C706.72727305 277.63636348 696.90909131 261.27272695 683.81818174 244.90909131z m41.72727305 81.81818174c-1.63636348-4.90909131-2.45454521-9-4.09090958-13.90909131H563.54545479C569.27272695 316.90909131 716.54545479 465.81818174 716.54545479 465.81818174c7.36363653-18 12.27272695-36.81818174 14.72727216-57.27272695 0.81818174-8.18181826 1.63636348-16.36363653 1.63636436-24.54545479 0-20.45454521-2.45454521-39.27272695-7.36363652-57.27272695z"  horiz-adv-x="1024" />

    
    <glyph glyph-name="weibo" unicode="&#59196;" d="M456.36363653 410.18181826c-85.09090869-4.09090869-153.81818174-49.90909131-153.81818174-107.18181826s68.72727305-100.63636348 153.81818173-96.54545479S610.18181826 264.54545479 610.18181826 321.81818174c-0.81818174 56.45454521-69.54545479 92.45454521-153.81818173 88.36363652z m57.27272695-144.81818173c-26.18181826-34.36363653-77.72727305-50.72727305-127.63636348-22.90909132-23.72727305 13.09090869-22.90909131 38.45454521-22.90909131 38.4545461s-9.81818174 81 75.27272783 90.81818174c85.90909131 10.63636347 101.45454521-72 75.27272695-106.36363653zM456.36363653 320.18181826c-5.72727305-4.09090869-6.54545479-11.45454521-3.27272784-16.36363652 2.45454521-4.90909131 9.81818174-5.72727305 14.72727305-1.63636348 4.90909131 4.09090869 7.36363653 11.45454521 4.09090957 16.36363653-2.45454521 4.90909131-9 5.72727305-15.54545478 1.63636347zM416.27272695 308.72727305c-16.36363653-1.63636348-27-15.54545479-27-29.4545461 0-13.09090869 13.09090869-22.90909131 28.63636436-21.27272695 15.54545479 1.63636348 28.63636347 13.90909131 28.63636348 27.81818174s-12.27272695 24.54545479-30.27272784 22.90909131zM512 834C263.27272695 834 62 632.72727305 62 384s201.27272695-450 450-450 450 201.27272695 450 450S760.72727305 834 512 834z m173.45454521-550.63636347C650.27272695 208.09090869 534.90909131 171.27272695 449.81818174 177.81818174c-81 6.54545479-185.72727305 33.54545479-196.36363653 133.36363652 0 0-5.72727305 45 37.63636348 103.09090869 0 0 62.18181826 87.54545479 134.18181826 112.90909131 72.81818174 24.54545479 81-17.18181826 81-42.54545479-4.09090869-21.27272695-10.63636347-33.54545479 16.36363652-25.36363652 0 0 71.18181826 33.54545479 100.63636348 4.09090957 23.72727305-23.72727305 4.09090869-57.27272695 4.09090957-57.27272783s-9.81818174-10.63636347 10.63636348-14.72727217c18.81818174-3.27272695 82.63636347-32.72727305 47.45454521-107.99999999z m-70.36363652 207.81818173c-7.36363653 0-13.90909131 6.54545479-13.90909043 13.90909043 0 8.18181826 6.54545479 13.90909131 13.90909043 13.90909131 0 0 87.54545479 16.36363653 76.90909131-78.54545479v-1.63636347c-0.81818174-6.54545479-6.54545479-12.27272695-13.90909131-12.27272695-8.18181826 0-13.90909131 6.54545479-13.90909043 13.90909042 0 1.63636348 13.90909131 64.63636348-49.09090957 50.72727305zM763.18181826 400.36363653c-2.45454521-16.36363653-10.63636347-9.81818174-19.63636347-9.81818174-11.45454521 0-20.45454521 14.72727305-20.4545461 26.18181826 0 9.81818174 4.09090869 19.63636348 4.09090957 19.63636348 0.81818174 4.09090869 10.63636347 30.27272695-6.54545478 68.72727216-31.09090869 53.18181826-93.27272695 53.18181826-100.63636348 50.72727305-7.36363653-3.27272695-18.81818174-4.90909131-18.81818174-4.90909043-11.45454521 0-20.45454521 9-20.45454521 20.45454522 0 9.81818174 6.54545479 17.18181826 14.72727216 19.63636347 0 0 0-0.81818174 0.81818174-0.81818174s1.63636348-0.81818174 1.63636436-0.81818173c9 1.63636348 40.09090869 4.09090869 69.5454539-3.27272784 54.81818174-13.09090869 128.45454521-73.63636348 95.72727305-185.72727216z"  horiz-adv-x="1024" />

    
    <glyph glyph-name="sort" unicode="&#58885;" d="M719.125625 301.14937499999996h-414.253125l207.125625-248.5509375 207.125625 248.5509375zM304.874375 466.850625h414.253125l-207.125625 248.5509375-207.125625-248.5509375z"  horiz-adv-x="1024" />

    
    <glyph glyph-name="discuss" unicode="&#58884;" d="M550.53413 105.62545266999996l271.809569 0c78.100776 0 139.962705 52.813856 139.962705 131.7343L962.306404 629.25839767c-0.001023 78.922491-71.184249 148.19418-149.286048 148.19418l-0.001023 0L207.97624 777.45257767c-78.129428 0-141.441383-69.270666-141.441383-148.19418l0-391.898645c0-78.920444 61.836347-131.7343 139.964752-131.7343l97.086176 0c0 0 4.513804-0.319272 7.281847-3.088338s2.783393-6.783497 2.783393-6.783497 0-57.477063 0-66.856687c0-26.2652 21.656229-50.058093 66.681702-50.058093 16.372899 0 31.163767 11.709693 31.163767 11.709693L550.53413 105.62545266999996zM206.496539 161.61053467c-41.800012 0-83.97967 23.427572-83.97967 75.749218L122.51687 629.25942067c0 49.123814 39.939641 92.208075 85.456301 92.208075l605.046163 0c47.945989 0 93.300966-44.805462 93.300966-92.208075l0-391.899668c0-52.322669-42.182728-75.749218-83.977623-75.749218L543.38122 161.61053467l-10.749832-2.164293-10.369162-4.097318c0 0-116.957759-97.582479-138.981355-115.321492-7.040347-5.671163-13.647835-2.089591-13.647835 4.561899s0 87.321788 0 87.321788 1.149173 6.822382-9.765411 19.102057-22.512736 10.597359-22.512736 10.597359L206.496539 161.61053467zM290.476209 451.77207767m-55.986105 0a54.711 54.711 0 1 1 111.972211 0 54.711 54.711 0 1 1-111.972211 0ZM514.418584 451.77207767m-55.986105 0a54.711 54.711 0 1 1 111.972211 0 54.711 54.711 0 1 1-111.972211 0ZM738.361983 451.77207767m-55.986105 0a54.711 54.711 0 1 1 111.972211 0 54.711 54.711 0 1 1-111.972211 0Z"  horiz-adv-x="1024" />

    
    <glyph glyph-name="dot" unicode="&#58895;" d="M512 384m-312.07619093 0a312.07619093 312.07619093 0 1 1 624.15238186 0 312.07619093 312.07619093 0 1 1-624.15238186 0Z"  horiz-adv-x="1024" />

    
    <glyph glyph-name="discuss1" unicode="&#59098;" d="M368.413 394.3c0-28.25-22.936-51.093-51.233-51.093-28.25 0-51.186 22.842-51.186 51.094 0 28.25 22.936 51.185 51.186 51.185 28.297 0 51.233-22.935 51.233-51.185zM955.006 422.643c0 213.137-199.057 386.555-443.803 386.555-244.743 0-443.801-173.418-443.801-386.555 0-126.615 71.325-245.209 190.946-317.465v-121.86c0-8.674 4.755-16.597 12.354-20.606 3.496-1.959 7.18-2.89 11.142-2.89 4.568 0 9.044 1.305 12.96 3.913l56.221 37.11a18.411 18.411 0 0 1 2.704 2.052l63.587 42.33c31.7-5.967 63.306-9.045 93.982-9.045 244.65 0.092 443.708 173.419 443.708 386.461zM293.405 139.115c-112.163 63.213-179.06 169.223-179.06 283.622 0 187.218 178.035 339.565 396.857 339.565 218.825 0 396.858-152.347 396.858-339.565S729.98 83.173 511.203 83.173c-30.581 0-62.28 3.357-94.167 9.977-6.06 1.397-12.494 0.092-17.808-3.452l-74.402-49.6c-1.026-0.56-2.518-1.865-2.518-1.865l-16.97-11.189v91.652c0 8.483-4.614 16.224-11.933 20.419zM570.968 408.659c0-28.25-22.936-51.28-51.28-51.28-28.25 0-51.186 23.03-51.186 51.28s22.936 51.093 51.187 51.093c28.343 0 51.279-22.843 51.279-51.093z m200.177 0c0-28.25-22.937-51.28-51.187-51.28-28.25 0-51.187 23.03-51.187 51.28s22.936 51.093 51.187 51.093c28.25 0 51.187-22.843 51.187-51.093z"  horiz-adv-x="1024" />

    
    <glyph glyph-name="order" unicode="&#58949;" d="M733.92084656 778.52594944a123.28935958 123.28935958 0 0 0 123.28935958-123.28935959v-542.47318009a123.28935958 123.28935958 0 0 0-123.28935958-123.2893596H290.07915344a123.28935958 123.28935958 0 0 0-123.28935958 123.2893596V655.23658985a123.28935958 123.28935958 0 0 0 123.28935958 123.28935959 24.65787145 24.65787145 0 1 1 0 49.31574406 172.6051025 172.6051025 0 0 1-172.60510249-172.60510365v-542.47318009a172.6051025 172.6051025 0 0 1 172.60510249-172.6051025h443.84169312a172.6051025 172.6051025 0 0 1 172.60510249 172.6051025V655.23658985a172.6051025 172.6051025 0 0 1-172.60510249 172.60510365 24.65787145 24.65787145 0 0 1 0-49.31574406zM290.07915344 359.34212778000006a24.65787145 24.65787145 0 0 0 0 49.31574406h443.84169312a24.65787145 24.65787145 0 0 0 0-49.31574406H290.07915344z m0 147.94723103a24.65787145 24.65787145 0 0 0 0 49.31574407h443.84169312a24.65787145 24.65787145 0 0 0 0-49.31574407H290.07915344z m0-295.89446208a24.65787145 24.65787145 0 0 0 0 49.31574406h443.84169312a24.65787145 24.65787145 0 0 0 0-49.31574406H290.07915344zM388.71064042 778.52594944h246.57871916a24.65787145 24.65787145 0 0 1 0 49.31574406H388.71064042a24.65787145 24.65787145 0 0 1 0-49.31574406z"  horiz-adv-x="1024" />

    
    <glyph glyph-name="add" unicode="&#58880;" d="M510.12507762-71.58469632000003c-250.93545643 0-454.35920043 203.46473813-454.35920043 454.43255751S259.18962119 837.26531584 510.12507762 837.26531584c250.93761365 0 454.36135765-203.44963527 454.36135765-454.41745465S761.06269127-71.58469632000003 510.12507762-71.58469632000003zM510.12507762 780.4652908099999c-219.57095083 0-397.56349099-178.01843029-397.56349099-397.61742962S290.55412565-14.771726790000002 510.12507762-14.771726790000002s397.56349099 178.02058752 397.56349099 397.61958798S729.69602845 780.4652908099999 510.12507762 780.4652908099999zM680.51004643 354.44137643L538.52508957 354.44137643l0-142.00653369c0-15.67685859-12.71452331-28.39569749-28.39785472-28.39569749-15.68333141 0-28.39569749 12.7188389-28.3956975 28.39569749l0 142.00653369-141.98927246 0c-15.68333141 0-28.39785472 12.71668053-28.39785472 28.40648476 0 15.67901582 12.71668053 28.39569749 28.39785472 28.3956975l141.98927246 0 0 142.0130065c0 15.67685859 12.71452331 28.38922467 28.3956975 28.38922468 15.68548864 0 28.39785472-12.71020771 28.39785472-28.38922468l0-142.0130065 141.984958 0c15.68548864 0 28.39785472-12.71668053 28.39785472-28.3956975C708.90790115 367.15805695999995 696.19553507 354.44137643 680.51004643 354.44137643z"  horiz-adv-x="1024" />

    
    <glyph glyph-name="up-active" unicode="&#58882;" d="M765.01995839 260.20741893a25.81528214 25.81528214 0 0 0-37.08745214-3.17029781L507.42068095 455.35686178l-211.25254283-197.26297472a25.91592652 25.91592652 0 0 0-37.33906307 3.22061999 26.97269246 26.97269246 0 0 0 3.27094218 37.38938526l228.21111999 212.15834219a26.11721528 26.11721528 0 0 0 34.11844308 0.10064438l237.57104685-213.31575251a27.02301465 27.02301465 0 0 0 3.01933124-37.43970744M512 887.22187429C235.22796914 887.22187429 8.77812571 660.77203086 8.77812571 384s226.44984343-503.22187429 503.22187429-503.22187429 503.22187429 226.44984343 503.22187429 503.22187429S788.77203086 887.22187429 512 887.22187429"  horiz-adv-x="1024" />

    
    <glyph glyph-name="remove" unicode="&#58952;" d="M568.90382363 159V512.64705908a28.42941182 28.42941182 0 1 0 56.64705908 0v-353.64705908a28.42941182 28.42941182 0 1 0-56.64705908 0z m-170.47058818 0V512.64705908a28.42941182 28.42941182 0 1 0 56.64705908 0v-353.64705908a28.42941182 28.42941182 0 1 0-56.64705908 0z m483.35294091 514.05882364h-142.41176454V737.64705908A91.32352911 91.32352911 0 0 1 655.19794092 834H369.845a79.41176455 79.41176455 0 0 1-60.35294092-28.58823545 102.70588271 102.70588271 0 0 1-24.88235361-67.76470547v-64.58823545H142.19794092a32.4 32.4 0 0 1 0-64.05882363h739.58823545a32.4 32.4 0 0 1 0 64.05882364zM341.25676455 737.64705908a31.39411729 31.39411729 0 0 0 28.58823545 31.76470547h285.35294092a29.17058818 29.17058818 0 0 0 27.52941181-31.76470547v-64.58823545H341.25676455V737.64705908zM760.55088271-66H313.19794092a228.81176455 228.81176455 0 0 0-110.11764639 28.58823545 102.70588271 102.70588271 0 0 0-24.88235361 67.76470547V512.64705908a28.58823545 28.58823545 0 1 0 56.64705908 0v-481.76470635c0-17.47058818 63-32.29411729 78.35294092-32.29411728h447.35294179a31.12941182 31.12941182 0 0 1 28.58823458 32.29411728V511.58823545a28.74705908 28.74705908 0 1 0 57.17647089 0v-481.23529453A92.22352911 92.22352911 0 0 0 760.55088271-66z m0 0"  horiz-adv-x="1024" />

    
    <glyph glyph-name="star" unicode="&#59661;" d="M959.39449966 420.99989966c18.7866 20.2419 24.8724 48.06900034 16.36110068 74.3526s-29.85569966 45.15840034-56.93310034 50.49450068l-217.7658 43.04159932a22.3587 22.3587 0 0 0-15.17039966 11.02500034l-108.2214 193.86360034c-13.4946 24.0786-38.05829966 38.4993-65.66490034 38.4993s-52.17030034-14.37659966-65.6208-38.54340034L338.1578 599.9136a22.6233 22.6233 0 0 0-15.17039966-11.02500034l-217.80990034-43.04159932c-27.07739966-5.38019966-48.4218-24.25500034-56.93310034-50.5386s-2.42550034-54.1107 16.36110068-74.3526l150.91019966-162.8613a22.27050034 22.27050034 0 0 0 5.77709966-17.77230034l-26.37179932-220.45590034a74.30849966 74.30849966 0 0 1 30.47309932-69.76619932 74.52900034 74.52900034 0 0 1 75.71970034-7.4088l201.4929 93.18329932a22.3587 22.3587 0 0 0 18.69840034 0l201.4929-93.18329932a74.26440034 74.26440034 0 0 1 75.71969932 7.4088 74.088 74.088 0 0 1 30.47310034 69.76619932l-26.37180034 220.4118a22.04999966 22.04999966 0 0 0 5.8212 17.81640068l150.9543 162.90539932z m-189.67409966-126.8757a75.05820034 75.05820034 0 0 1-19.53629966-60.0642l26.37179932-220.45589932a21.9618 21.9618 0 0 0-9.04049932-20.68290034 21.9618 21.9618 0 0 0-22.40280034-2.20499966l-201.4929 93.18329932a74.92590034 74.92590034 0 0 1-63.15120034 0l-201.4929-93.18329932a21.87360034 21.87360034 0 0 0-22.40279932 2.20499966 21.9618 21.9618 0 0 0-9.04050034 20.68290034l26.37180034 220.49999966a75.1464 75.1464 0 0 1-19.49220034 59.97600034l-150.86610034 162.81719966a21.74130034 21.74130034 0 0 0-4.85099966 22.04999966 21.78539966 21.78539966 0 0 0 16.84620034 14.9499l217.7658 43.04160034c21.60900034 4.32179966 40.2192 17.8605 50.97959932 37.1763l108.2214 193.86360034c5.77709966 10.23120034 15.56729966 11.3778 19.49220034 11.3778s13.71509966-1.10250034 19.4481-11.42190034l108.2214-193.86360034c10.76040034-19.3158 29.3706-32.8104 51.0678-37.08809932l217.7658-43.08570068a21.8295 21.8295 0 0 0 16.84620034-14.90579966 21.9618 21.9618 0 0 0-4.85100068-22.04999966l-150.77789966-162.81720068z"  horiz-adv-x="1024" />

    
    <glyph glyph-name="selected" unicode="&#58883;" d="M471.18729408 43.24614464000001a45.06783285 45.06783285 0 0 1 64.84580294-3.56651937l3.56651936 3.56651937c38.25902346 32.42290145 659.48181486 551.18932444 659.48181493 551.18932442S1260.68494426 629.7764311799999 1253.87613489 549.36763549L560.67450251-154.85778286999994a72.30307035 72.30307035 0 0 0-100.51099441 0L157.98206677 142.13599369999997s-38.90748146 95.32333046 67.11540556 88.19029252z"  horiz-adv-x="1454" />

    
    <glyph glyph-name="star-active" unicode="&#59017;" d="M809.0703125 282.046875l129.19921875 133.59375c21.96386719 22.38398437 29.22363281 54.45 19.3359375 84.375-9.82353516 29.13398438-34.92333984 50.40791016-65.91796875 55.37109375l-166.11328125 25.48828125c-28.37021484 2.29482422-52.01542969 19.56181641-63.28125 43.9453125L586.70703125 786.5390625c-13.40683594 28.72353516-42.86425781 47.4609375-74.70703125 47.4609375-31.8375 0-61.15429688-18.73740234-74.70703125-47.4609375l-76.46484375-163.4765625c-11.278125-23.34726562-34.37050781-39.82412109-61.5234375-42.1875L132.3125 555.38671875c-30.99023438-4.90078125-56.15859375-26.23710937-65.91796875-56.25-9.87802734-28.97666016-2.54707031-61.04707031 19.3359375-83.49609375l130.95703125-135.3515625c0.24257812 0.01230469 0.10898438-0.05097656 0 0 12.83203125-13.58789063 20.57695312-31.70742187 20.21484375-51.85546875 0.36210937-2.94082031-0.05625-5.88691406 0-8.7890625l-30.76171875-189.84375c-5.45537109-31.2609375 7.47333984-62.19580078 33.3984375-80.859375 25.37929687-17.81894531 60.64365234-19.5609375 87.01171875-4.39453125l145.01953125 77.34375c11.77470703 7.44169922 25.66933594 11.65605469 40.4296875 11.42578125 13.246875 0.23027344 25.62275391-3.25722656 36.9140625-8.7890625l147.65625-79.98046875c12.6703125-7.05410156 26.49550781-10.546875 40.4296875-10.546875 17.03671875 0 33.49511719 5.17587891 47.4609375 14.94140625 26.00068359 18.66796875 38.86435547 49.60371094 33.3984375 80.859375l-29.00390625 181.93359375c-0.10195313 0.50361328 0.03164063 1.28847656 0 1.7578125a89.63173828 89.63173828 0 0 0-1.7578125 15.8203125c0.13183594 20.47324219 8.42871094 39.13681641 21.97265625 52.734375-0.12744141 0.07646484-0.12744141 0.140625 0 0"  horiz-adv-x="1024" />

    
    <glyph glyph-name="payment" unicode="&#58934;" d="M885.92399791-57.60273242000005H143.35948988c-70.40481947 0-127.67907759 57.2742581-127.67907759 127.67907756v146.31196943c0 20.13352742 16.25688549 36.39041289 36.3904129 36.3904129s36.39041289-16.25688549 36.39041292-36.3904129v-146.43702237c0-30.26281761 24.63543418-54.89825177 54.89825177-54.89825178h742.56450803c30.26281761 0 54.89825177 24.63543418 54.89825177 54.89825178V504.76045258c0 30.26281761-24.63543418 54.89825177-54.89825177 54.89825177H143.35948988c-30.26281761 0-54.89825177-24.63543418-54.89825177-54.89825177v-158.19200112c0-20.13352742-16.25688549-36.39041289-36.39041292-36.39041291s-36.39041289 16.25688549-36.3904129 36.39041291V504.76045258c0 70.40481947 57.2742581 127.67907759 127.67907759 127.6790776h742.56450803c70.40481947 0 127.67907759-57.2742581 127.67907758-127.6790776v-434.68410744c-0.12505296-70.40481947-57.39931109-127.67907759-127.67907758-127.67907756zM87.46081437 510.01267713H14.67998856c0 67.52860129 54.89825177 122.42685305 122.42685305 122.42685305h35.26493621v-72.78082583H137.23189456c-27.3865994 0-49.7710802-22.25942783-49.77108019-49.64602722zM137.23189456-57.60273242000005c-67.52860129 0-122.42685305 54.89825177-122.42685304 122.42685302h72.78082583c0-27.3865994 22.25942783-49.64602723 49.64602721-49.64602722v-72.7808258zM713.2258528 632.3144772200001h177.0749989v-72.78082582H713.2258528zM695.09317285 564.5357699900001L363.9529207 755.61670101c-23.76006341 13.75582618-54.14793399 5.50233047-67.90376018-18.13267997l-92.16403543-159.69263671-62.90164156 36.3904129 92.16403544 159.69263672c33.76430063 58.3997348 108.79607983 78.53326221 167.19581464 44.76896159l331.01519917-191.08093101-36.26535993-63.02669454zM852.28475024 408.09451039H176.87368457c-20.13352742 0-36.39041289 16.25688549-36.39041289 36.39041291s16.25688549 36.39041289 36.39041289 36.39041291h675.41106567c20.13352742 0 36.39041289-16.25688549 36.39041291-36.39041291s-16.25688549-36.39041289-36.39041291-36.39041291zM853.160121 63.32348502000002h-106.54512644c-20.13352742 0-36.39041289 16.25688549-36.39041292 36.39041292s16.25688549 36.39041289 36.39041292 36.39041291h106.54512644c20.13352742 0 36.39041289-16.25688549 36.39041291-36.39041291s-16.38193846-36.39041289-36.39041291-36.39041292zM631.56626647 63.32348502000002h-106.54512646c-20.13352742 0-36.39041289 16.25688549-36.3904129 36.39041292s16.25688549 36.39041289 36.3904129 36.39041291h106.54512646c20.13352742 0 36.39041289-16.25688549 36.39041291-36.39041291-0.12505296-20.13352742-16.38193846-36.39041289-36.39041291-36.39041292z"  horiz-adv-x="1024" />

    
    <glyph glyph-name="lock" unicode="&#59249;" d="M776.80666666 518.10666667H750.34666666V597.48666667C750.34666666 728.78118667 643.50118666 835.62666667 512.20666666 835.62666667S274.06666666 728.78118667 274.06666666 597.48666667V518.10666667h-26.46C203.84182666 518.10666667 168.22666666 482.49150668 168.22666666 438.72666667v-423.36c0-43.76484 35.61516-79.38 79.38-79.38h529.2c43.76484 0 79.38 35.61516 79.38 79.38v423.36c0 43.76484-35.61516 79.38-79.38 79.38zM326.98666666 597.48666667C326.98666666 699.62226667 410.07106666 782.70666668 512.20666666 782.70666668S697.42666666 699.62226667 697.42666666 597.48666667V518.10666667H326.98666666V597.48666667z m476.28-582.12a26.46 26.46 0 0 0-26.46-26.45999999h-529.2a26.46 26.46 0 0 0-26.46 26.45999999v423.36a26.46 26.46 0 0 0 26.46 26.46000001h529.2a26.46 26.46 0 0 0 26.46-26.46000001v-423.36z"  horiz-adv-x="1024" />

    
    <glyph glyph-name="edit" unicode="&#58881;" d="M332.6449124 210.68724521000001l48.87443497 107.14474688 61.71315204-59.57997978-110.58758701-47.5647671z m84.21563233 150.85988262l322.03946602 310.14331436 72.07143662-70.41450761-321.4441626-309.45871495-72.66674005 69.7299082z m483.43622519 325.98831446l-44.38981406-42.51460693-71.94245362 70.41450761 43.68537071 41.8300084c7.03450547 6.99481846 20.5975081 5.7248376 28.25708291-1.8851291l42.43523378-40.58979082c4.52430791-4.42509082 7.09403555-10.15985039 7.09403555-15.85492296 0.00992197-4.43501279-1.93473721-8.23503516-5.13945527-11.4000662zM337.79428964 367.91687783c-0.65483438-0.67467744-1.2898248-1.29974677-1.94465917-2.5399626L290.19975752 203.63289580000003c-2.56972763-9.47525097 0-19.63510049 7.09403555-26.63984092 5.78436768-5.07992519 12.83871709-8.16558223 20.55782196-8.16558311 2.57964961 0 4.49454287 0.61514737 7.06427052 1.23029474l167.12159677 43.72505771h0.69452051a7.07419248 7.07419248 0 0 1 5.08984717 1.91489414l446.23966465 429.9680294c13.4340205 12.66012597 20.52805606 29.78502891 20.52805693 48.82482685 0 21.54999463-9.6042331 43.09998925-25.67743418 58.95491133l-42.43523291 40.58979169c-16.70819063 15.85492207-38.61536748 25.35993809-61.14761366 25.35993809-19.84345752 0-37.92084698-6.97497539-50.71987618-20.28001377L338.4193581 369.84169307c-0.62506933-0.61514737-0.62506933-1.29974677-0.62506845-1.92481524zM150.71017519 834C101.86550528 834 62 794.70995508 62 746.50027559V22.303383980000035c0-48.16999248 39.86550528-87.49972442 88.7101752-87.49972353h708.47095165c48.84466992 0 88.65064511 39.32973193 88.65064513 87.49972353V484.59640576h-75.84169395v-397.02789053c0-43.10991036-35.35111934-77.29026592-78.41142071-77.29026591H216.28287969c-43.07022422 0-78.4114207 34.18035469-78.41142159 77.29026591V681.81060557c0 42.4848419 35.34119737 77.37956104 78.41142159 77.37956103h402.45507685V834H150.71017519z"  horiz-adv-x="1026" />

    
    <glyph glyph-name="unlocking" unicode="&#60134;" d="M494.62826733 278.97270988c-46.32462003-28.95288733-98.43981805-40.53404337-156.34559409-40.534042-162.13617211 0-289.52887749 127.39270675-289.52887748 289.5288775s127.39270675 289.52887749 289.52887748 289.52887748 289.52887749-127.39270675 289.52887749-289.52887748c0-63.6963527-17.37173266-115.81155073-52.11519803-167.92674877l133.18328476-133.18328476 63.69635269 63.69635405 81.06808536-81.0680867-63.69635268-63.69635272 40.53404336-40.53404337 63.69635269 63.69635405L975.24620425 87.88365046000001 830.48176618-56.880787629999986l-335.85349885 335.85349751zM164.56534647 527.96754538c0-98.43981806 75.27750872-173.71732676 173.71732677-173.71732677s173.71732676 75.27750872 173.71732676 173.71732674-75.27750872 173.71732676-173.71732676 173.71732678-173.71732676-81.06808537-173.71732677-173.71732675z"  horiz-adv-x="1024" />

    
    <glyph glyph-name="up" unicode="&#58931;" d="M512.35490159 894.42026659c-282.06003377 0-510.42026659-228.36023283-510.42026659-510.42026659s228.36023283-510.42026659 510.42026659-510.42026659 510.42026659 228.36023283 510.42026659 510.42026659-228.36023283 510.42026659-510.42026659 510.42026659z m0-966.17372509c-251.57438582 0-455.76243074 204.16810665-455.76243074 455.7534585 0 251.58435495 204.18804495 455.74348936 455.76243075 455.74348936C763.93128123 839.74348936 968.09839095 635.58335803 968.09839095 384c0-251.58634879-203.67862157-455.7534585-455.74348936-455.7534585zM776.83634051 269.2152549L527.77218562 533.4374960299999s-15.41728402 17.21372411-33.94992613-1e-8L260.62599401 269.2152549c-17.00337514-16.84785646-17.00337514-16.84785646 0-33.72063578 0 0 13.94185045-19.80669893 32.81543732 0L510.79373336 483.9785697l233.22816672-248.48395058h32.81444043V269.2152549M260.62599401 269.2152549c-15.30064503-17.63840971-9.73885855-24.06551804 0-33.72063578 0 0 13.94185045-19.80669893 32.81543732 0M260.62599401 269.2152549c-19.28830336-18.30335175-4.78618692-29.04012181 0-33.72063578 0 0 13.94185045-19.80669893 32.81543732 0M744.02190009 235.49461912000004c10.72680092-10.50249514 14.04951723-10.83446768 32.81444042 0V269.2152549M744.02190009 235.49461912000004c10.72680092-10.50249514 14.04951723-10.83446768 32.81444042 0 14.4662275 8.77185142 14.4662275 18.40802779 0 33.72063579"  horiz-adv-x="1024" />

    
    <glyph glyph-name="weixin" unicode="&#58912;" d="M669.3 526.6c9.8 0 19.6 0 29.4-1.6C671 650.8 536.9 744 383.2 744 211.6 744 71 626.3 71 479.2c0-85 45.8-156.9 124.2-210.9l-31.1-93.2L273.6 229c39.2-8.2 70.3-16.3 109.5-16.3 9.8 0 19.6 0 31.1 1.6-6.5 21.3-9.8 42.5-9.8 65.4 0.1 135.7 116.2 246.9 264.9 246.9z m-168.4 85c24.5 0 39.2-16.3 39.2-39.2 0-22.9-16.3-39.2-39.2-39.2-24.5 0-47.4 16.4-47.4 39.2 0 24.5 24.6 39.2 47.4 39.2z m-216.3-73.1c-24.7 0-47.8 16.2-47.8 38.8 0 24.3 24.7 38.8 47.8 38.8s39.5-16.2 39.5-38.8c0.1-22.7-16.4-38.8-39.5-38.8zM953.8 283c0 125.9-124.2 227.2-264.8 227.2-148.8 0-266.5-103-266.5-227.2 0-125.9 117.7-227.2 266.5-227.2 31.1 0 62.1 8.2 93.2 16.3l85-47.4-22.9 78.5c62.1 47.4 109.5 109.5 109.5 179.8z m-351.5 39.2c-14.7 0-31.1 14.7-31.1 31.1 0 14.7 16.3 31.1 31.1 31.1 22.9 0 39.2-16.3 39.2-31.1 0-16.4-14.7-31.1-39.2-31.1z m178 7.6c-14.8 0-31.3 14.6-31.3 30.7 0 14.6 16.5 30.7 31.3 30.7 23.1 0 39.5-16.2 39.5-30.7 0-16.2-16.4-30.7-39.5-30.7z"  horiz-adv-x="1024" />

    
    <glyph glyph-name="follow" unicode="&#58889;" d="M951.7625 303.5703125H703.641875c-9.680625 0-17.5284375 7.846875-17.5284375 17.5284375s7.846875 17.5275 17.5284375 17.5275h248.1225c9.680625 0 17.5275-7.846875 17.5275-17.5275s-7.8478125-17.5284375-17.529375-17.5284375zM827.7003125 179.50625000000002c-9.6815625 0-17.5284375 7.846875-17.5284375 17.5284375V445.15625c0 9.6815625 7.846875 17.5284375 17.5284375 17.5284375s17.5275-7.846875 17.5275-17.5284375v-248.1225c0-9.6815625-7.846875-17.5284375-17.5275-17.5284375zM683.5653125-63.775937500000055c-3.3 0-6.635625 0.9290625-9.6 2.874375-33.2784375 21.8371875-87.684375 23.964375-91.059375 24.075H562.2125l-33.0825-0.255H81.044375c-9.680625 0-17.5275 7.846875-17.5275 17.5284375v21.06375c-0.2990625 5.874375-0.8540625 38.0653125 19.69125 73.4128125 12.85875 22.1240625 31.3415625 41.1196875 54.9365625 56.461875 28.5871875 18.58875 64.7971875 31.7896875 107.6221875 39.2334375 0.219375 0.0375 0.4378125 0.07125 0.6571875 0.1003125 0.3253125 0.0440625 33.28125 4.5553125 66.7575 13.38 58.0265625 15.2990625 63.10125 28.8234375 63.136875 28.955625a17.521875 17.521875 0 0 0 1.475625 3.8390625c0.4753125 2.53125 1.65375 12.0553125-0.598125 37.575-5.71875 64.81875-39.489375 103.125-66.6234375 133.905-8.5546875 9.705-16.636875 18.87-22.86 27.85875-26.85 38.788125-29.341875 82.8928125-29.4346875 84.75a17.7496875 17.7496875 0 0 0-0.020625 0.875625c0 17.60625 8.77875 25.70625 16.524375 32.8528125l0.4059375 0.375c0.255 0.234375 0.4153125 0.4096875 0.5090625 0.5221875 0.088125 1.2571875-0.5325 4.4521875-0.9515625 6.609375-0.1584375 0.81375-0.316875 1.63125-0.46875 2.4525-6.7284375 36.5578125-7.186875 93.00375-1.09875 129.22875 2.259375 47.634375 43.3378125 84.1059375 45.1003125 85.6471875 0.065625 0.058125 0.13125 0.114375 0.196875 0.1696875 5.89875 5.008125 11.8809375 10.4775 15.6834375 16.5375 0.4565625 0.7275 0.7753125 1.2909375 1.0003125 1.7221875a76.453125 76.453125 0 0 1-1.0265625 2.445c-2.2846875 5.26875-5.735625 13.228125-3.7725 23.46 1.185 6.178125 5.6990625 17.2153125 22.6125 21.7265625 6.8071875 1.8159375 14.085 2.1871875 19.39875 2.458125l1.0509375 0.054375c20.98875 1.104375 43.3809375 2.04 66.028125 0.30375 163.8103125-12.55875 220.2375-73.768125 222.5596875-76.3678125 0.13125-0.1453125 0.2596875-0.294375 0.384375-0.4453125 13.115625-15.7134375 22.8309375-35.2865625 28.875-58.1765625 1.8834375-7.1221875 3.0965625-13.1203125 3.804375-18.8184375 5.7271875-33.271875 4.768125-67.4221875 3.54375-90.255-0.684375-12.815625-2.1140625-26.2725-4.498125-42.350625-0.6478125-4.365 0.0646875-5.21625 0.3328125-5.536875 0.7115625-0.85125 1.5815625-1.7746875 2.503125-2.7525 3.61875-3.8409375 8.5771875-9.10125 11.2153125-17.540625 1.3275-4.2553125 1.9434375-8.8021875 1.9434375-14.323125 0-0.2925-0.0075-0.5840625-0.0215625-0.8765625-0.0928125-1.86-2.5875-45.961875-29.4365625-84.7471875-6.2240625-8.990625-14.30625-18.159375-22.86375-27.8653125-27.1321875-30.778125-60.9-69.084375-66.620625-133.9003125-2.2509375-25.51875-1.0725-35.041875-0.5971875-37.5740625a17.5396875 17.5396875 0 0 0 1.475625-3.8390625c0.0346875-0.1321875 5.128125-13.700625 63.4190625-29.02875 33.474375-8.803125 66.148125-13.2628125 66.474375-13.306875 0.285-0.0375 0.5690625-0.084375 0.8521875-0.1359375 43.215-8.015625 79.6471875-21.555 108.286875-40.24125 23.67375-15.44625 42.121875-34.408125 54.834375-56.356875 20.158125-34.8075 19.3378125-66.294375 18.93375-72.60375v-20.93625c0-9.680625-7.846875-17.5284375-17.5284375-17.5284375h-118.125c-1.0190625 0-2.019375 0.0871875-2.990625 0.2540625h-27.23625c-9.680625 0-17.5284375 7.846875-17.5284375 17.5284375s7.846875 17.5284375 17.5284375 17.5284375h48.83625c1.0190625 0 2.0175-0.0871875 2.98875-0.2540625h79.0003125v4.040625c0 0.6440625 0.009375 1.0378125 0.076875 1.659375 0.0975 1.41375 1.5253125 26.56125-15.328125 54.4978125-10.14375 16.8159375-24.9271875 31.509375-43.940625 43.6696875-24.4696875 15.6496875-56.026875 27.1575-93.7996875 34.2028125-4.34625 0.6028125-36.5728125 5.21625-70.389375 14.11875-66.3375 17.465625-82.464375 36.8925-87.36375 50.994375-3.7546875 7.280625-5.855625 21.744375-2.799375 56.3953125 6.73125 76.2834375 46.33125 121.201875 75.245625 154.0003125 8.199375 9.301875 15.2821875 17.3353125 20.3371875 24.6375 20.0240625 28.9275 22.940625 62.19375 23.221875 66.1575-0.028125 2.053125-0.225 2.9953125-0.346875 3.3834375-0.225 0.7246875-1.771875 2.364375-3.2671875 3.9525-1.17375 1.245-2.503125 2.656875-3.8803125 4.303125-7.453125 8.91-10.108125 19.7615625-8.11875 33.1725 2.22 14.9653125 3.5446875 27.3825 4.17 39.07875 1.1390625 21.2334375 2.0484375 52.9171875-3.1528125 82.81875a17.5265625 17.5265625 0 0 0-0.136875 0.9234375c-0.4996875 4.183125-1.43625 8.791875-2.945625 14.503125-4.6734375 17.6990625-11.9315625 32.593125-21.5728125 44.28-1.606875 1.63875-14.424375 14.180625-43.01625 27.82125-51.4528125 24.5465625-113.2415625 33.609375-156.016875 36.88875-20.56125 1.575-41.6596875 0.68625-61.5084375-0.358125l-1.1053125-0.05625c-1.6575-0.084375-4.4428125-0.226875-7.089375-0.4940625 2.2959375-5.475 5.1121875-13.7184375 2.1534375-23.565-1.1128125-3.6984375-2.818125-7.3115625-5.368125-11.3746875-6.3065625-10.05375-14.923125-18.028125-22.545-24.50625-1.471875-1.329375-32.0878125-29.3840625-33.1434375-61.629375-0.0271875-0.8165625-0.110625-1.629375-0.2503125-2.4328125-5.5978125-32.1571875-5.2209375-85.104375 0.8390625-118.029375 0.13125-0.703125 0.268125-1.41375 0.405-2.11875 1.86-9.571875 4.9734375-25.591875-10.1953125-39.583125l-0.4078125-0.375c-1.9565625-1.805625-4.635-4.2778125-5.079375-5.128125 0.0028125 0-0.1246875-0.4003125-0.1546875-1.485 0.3084375-4.0275 3.4265625-37.55625 23.2171875-66.14625 5.053125-7.2984375 12.1340625-15.3309375 20.3325-24.6309375 28.9153125-32.799375 68.5153125-77.71875 75.2484375-154.005 3.05625-34.6490625 0.9553125-49.115625-2.799375-56.39625-4.8984375-14.101875-21.0253125-33.5296875-87.3646875-50.994375-34.0921875-8.975625-66.568125-13.5909375-70.490625-14.131875-37.989375-6.6365625-69.684375-18.084375-94.2065625-34.03125-18.9478125-12.3215625-33.66375-27.358125-43.7390625-44.690625-16.528125-28.4371875-15.0196875-53.63625-15.0009375-53.8828125 0.0375-0.46875 0.05625-0.939375 0.05625-1.41v-4.040625H528.921875l33.0825 0.255h21.1565625c0.1321875 0 0.2625-0.0009375 0.3946875-0.0046875 2.715-0.0609375 66.984375-1.8215625 109.644375-29.81625 8.094375-5.3109375 10.35-16.1765625 5.038125-24.27-3.3665625-5.1328125-8.9634375-7.91625-14.671875-7.91625z m-301.265625 286.149375z m203.80125-0.02625z"  horiz-adv-x="1024" />

    
    <glyph glyph-name="weixinzhifu" unicode="&#59009;" d="M390.381889 251.200183c-61.291983-37.02299-70.38298 20.775994-70.38298 20.775994l-76.809978 194.149945c-29.559992 92.261974 25.575993 41.596988 25.575993 41.596988s47.308987-38.763989 83.216976-62.383982c35.88599-23.631993 76.788978-6.939998 76.788979-6.939998L930.949736 689.470058C838.289763 814.353023 685.246806 896 511.974855 896 229.204935 896 0 678.708062 0 410.648137 0 256.445181 75.889979 119.23022 194.115945 30.290245l-21.321994-132.755962s-10.399997-38.752989 25.622993-20.775994c24.540993 12.242997 87.107975 56.183984 124.357965 82.886976A535.231848 535.231848 0 0 1 511.999855-74.714725c282.74792 0 511.998855 217.291938 511.998855 485.351862 0 77.640978-19.319995 150.969957-53.532985 216.062939C810.45977 522.434106 438.327876 280.110174 390.381889 251.200183z"  horiz-adv-x="1024" />

    
    <glyph glyph-name="customer" unicode="&#58896;" d="M822.25062524 533.61939671h52.7362662c-27.01999287 67.93731129-72.27366635 125.29880651-128.99466203 167.0957299-64.45892268 47.50299538-143.79323103 74.91680892-228.04921583 74.91680892-84.25706673 0-163.58921124-27.41381354-228.04921584-74.91680892-56.72315953-41.7980053-101.97358724-99.15841859-128.99358012-167.0957299h39.65146627c14.95653004 0 28.64179832-6.15615278 38.60632679-16.07199463l0.05301434-0.06166972 0.05950585-0.05085048c9.93098881-9.96344655 16.07415849-23.6433052 16.07415849-38.60632679v-283.40482228c0-14.97167699-6.15615278-28.64071639-16.07415849-38.60740872l-0.05950585-0.04760469-0.05301434-0.06275165c-9.96452849-9.93098881-23.64438712-16.07091271-38.60632679-16.07091272h-63.8649459c-32.58000503 0-62.21609233 13.34229807-83.70744887 34.82499923l-0.11035635 0.11035634c-21.47837343 21.49135654-34.82499922 51.12636194-34.82499923 83.70095731V414.97010073c0 32.65898553 13.34121615 62.32644867 34.8314908 83.81780522l0.057342-0.05734202c13.04585065 13.0393591 29.0669948 23.08070424 46.90793668 28.97503119 29.13948378 89.38214506 85.08798506 164.57809062 157.24804932 217.75902798 73.80999975 54.39161134 164.55212441 85.77717123 260.85317929 85.77717123 96.29564528 0 187.04426151-31.38447798 260.85426124-85.77717123 73.81432744-54.39810289 130.67489143-131.83363302 159.21823459-223.91518075a120.02550447 120.02550447 0 0 0 31.85295148-22.81779649l0.057342 0.05734202c21.49135654-21.49135654 34.83365461-51.15881969 34.83365463-83.81780521v-155.69873282c0-32.57459538-13.34662576-62.20960077-34.82499923-83.70095733l-0.11035634-0.11035634c-21.49135654-21.48161921-51.13068965-34.82499922-83.70961272-34.82499922h-17.72301205l7.21427535-5.1369795c-41.31654872-57.7423328-95.26457083-103.72630561-156.58158357-135.24061458-61.43927025-31.5803064-130.23130222-48.72665247-201.0822373-48.72665247l-2.20496297 0.00432771c-9.09249702-9.48631766-21.90248801-15.39470964-36.08652367-15.39470964-27.6161335 0-49.99683233 22.38502653-49.99683231 49.99899617s22.38069883 49.99466847 49.99683231 49.99466847c20.08377223 0 37.40214437-11.84599592 45.35212866-28.93067227 59.56537628 1.08733453 117.14001072 15.91403359 168.61258862 42.37034358a384.20235714 384.20235714 0 0 1 116.72130577 92.38665056c-10.23933741 2.31099162-19.44435459 7.52803356-26.69433347 14.7466366l-0.05301431 0.06275166-0.05734202 0.04760469c-9.93098881 9.96669233-16.07632234 23.62707633-16.07632235 38.60740872V478.82855509c0 14.96302159 6.14641545 28.64179832 16.07632235 38.60632679l0.05734202 0.05085048 0.05301431 0.06166972c9.96885619 9.93098881 23.62815825 16.07199464 38.60957259 16.07199463zM199.73483058 478.01061985h-63.04809259c-17.37463224 0-33.12745902-7.06280585-44.4941622-18.42950902v-0.11035635c-11.43702829-11.43594637-18.53986537-27.1952647-18.53986538-44.50065375v-155.69873282c0-17.34325641 7.08552628-33.11663977 18.48252335-44.54501266 11.4283729-11.39591514 27.20283818-18.48360526 44.55150423-18.48360526h63.04809259V478.01061985z m686.38074055 0h-63.04701066V196.24274999h63.04701066c17.34758412 0 33.12529518 7.08769014 44.55366806 18.48360526 11.39591514 11.4283729 18.47927757 27.20175626 18.47927757 44.54501266V414.97010073c0 17.30538904-7.10391899 33.06470737-18.53770151 44.50065375v0.11035635c-11.36562124 11.36562124-27.12061189 18.42950903-44.49524412 18.42950902z"  horiz-adv-x="1024" />

    
    <glyph glyph-name="add1" unicode="&#58887;" d="M479.84108027 888.17346434v-473.62753927l-468.80408969-0.00129455v-64.30748318l468.80408969-0.00129454v-467.19627315l64.31007224-0.00129453v467.20015675l470.41061167-0.00129453v64.31007225l-470.41061167-0.00129452v473.63142288z"  horiz-adv-x="1024" />

    
    <glyph glyph-name="deliver" unicode="&#58905;" d="M785.55501576-61.237708089999956c-70.53629997 0-127.88485257 57.3485526-127.88485255 127.88485257 0 4.96052882 0.24197701 9.92105762 0.84691953 14.76059794H437.35009079c-2.90372418-1.45186211-6.04942537-2.29878166-9.5580921-2.29878167H357.13471024c-7.25931045-63.76094353-61.46216188-113.36623166-127.03793302-113.36623166s-119.89961107 49.60528812-127.15892153 113.36623166H32.88550977c-5.56547137 0-11.00995419 2.17779315-15.00257495 6.1704139-3.99262076 3.99262076-6.17041391 9.31611509-6.17041389 15.00257494V430.21760993c0 3.99262076 1.08889656 7.7432645 3.02471269 11.00995419l113.48722016 185.35439369c26.73846019 42.46696618 66.30170219 63.76094353 117.72181794 63.76094352h161.15669216c3.62965524 77.91659891 68.1165298 140.22568035 146.88004826 140.22568037h314.20715434c81.06230012 0 147.00103678-65.93873667 147.00103678-147.0010368v-486.37380067c0-59.40535725-45.00772484-108.52669135-102.71924299-114.93908228 0.60494254-5.08151731 0.84691956-10.28402314 0.84691957-15.48652897 0.12098852-70.65728846-57.22756412-127.88485257-127.76386408-128.00584107z m0 213.42372747c-47.06452946 0-85.5388749-38.47434544-85.53887491-85.5388749 0-47.06452946 38.47434544-85.5388749 85.53887491-85.53887491 47.06452946 0 85.5388749 38.47434544 85.5388749 85.53887491-0.12098852 47.18551799-38.47434544 85.5388749-85.5388749 85.5388749zM230.09677722 179.40843360999997c-47.18551799 0-85.5388749-38.47434544-85.53887492-85.53887492 0-47.06452946 38.47434544-85.5388749 85.53887492-85.5388749 47.06452946 0 85.5388749 38.47434544 85.53887487 85.5388749-0.12098852 47.06452946-38.47434544 85.5388749-85.53887487 85.53887492z m0 42.34597766c60.97820786 0 112.15634659-42.95092021 124.86013987-100.17848432 0.96790805 0.12098852 1.81482762 0.24197701 2.90372418 0.24197701h48.75836858l0.24197703 526.1790197h-160.91471516c-36.90149484 0-62.79303546-13.91367836-81.66724267-43.67685126l-110.09954195-180.03089937v-302.5922576h51.05715023c12.70379331 57.22756412 63.88193204 100.05749581 124.86013989 100.05749584z m219.23117584-97.75871418h221.77193449c20.93101181 41.86202366 64.36588606 70.65728846 114.33413972 70.65728847 50.08924216 0 93.40312791-28.79526482 114.33413971-70.65728847 40.16818452 0.12098852 72.9560701 32.90887407 72.9560701 73.19804714v486.37380067c0 57.59052964-46.94354097 104.53407059-104.5340706 104.53407061H553.98301214c-57.59052964 0-104.53407059-46.94354097-104.5340706-104.53407061l-0.12098848-559.57184781zM276.67735265 404.20508078H141.29121258c-5.56547137 0-11.00995419 2.17779315-15.00257492 6.17041388-3.99262076 3.99262076-6.17041391 9.31611509-6.17041388 15.00257496 0 11.73588523 9.43710359 21.17298884 21.1729888 21.17298884H255.50436381v114.21315119c0 11.73588523 9.43710359 21.17298884 21.17298884 21.17298885s21.17298884-9.43710359 21.17298884-21.17298885v-135.38614003c0-11.73588523-9.43710359-21.17298884-21.17298884-21.17298884z m0 0"  horiz-adv-x="1024" />

    
    <glyph glyph-name="community" unicode="&#58894;" d="M931.78850607-46.28766035000001a29.09293396 29.09293396 0 0 0-13.33336679 3.2420908c-60.41883111 31.13265995-89.40441107 41.00922795-97.88537705 42.23306354a422.9747594 422.9747594 0 0 0-161.61071137-31.19707236c-80.96638669 0-157.46684697 21.47079998-221.14923969 61.98619951l23.03816836 36.22123956c56.83320752-36.15682714 125.34653021-55.26583913 198.13254212-55.26583913a384.94997266 384.94997266 0 0 1 147.78351619 29.00705075c10.97157879 4.61622199 25.44289797 3.8003316 66.86007112-13.95601997 12.64630119-5.41064159 25.87231396-11.63717359 38.02478673-17.56311438-2.5120836 11.85188158-4.87387159 24.62700756-6.44123999 36.88683434-4.72357599 35.74888195-1.93237199 56.16761272 9.339798 68.25567311 40.79451993 43.71454874 62.26531991 95.56653066 62.26531991 149.97353779 0 60.50471431-18.33606318 110.89668184-54.49289033 149.82324219l31.43325116 29.22175876c43.80043193-47.10693513 66.00123911-107.35399986 66.00123911-179.04500095 0-64.99211151-25.12083597-126.54889502-72.6786579-178.20763975-2.61943759-7.92272519-1.24530639-38.92656035 13.09718798-95.37329346A29.11440476 29.11440476 0 0 0 931.78850607-46.28766035000001zM117.14341362 0.30397559000005003a31.71237156 31.71237156 0 0 0-30.78912715 39.52774274c20.95550077 82.40493028 21.47079998 124.85270183 16.83310717 133.6557298-63.1241519 67.99802351-96.48977507 149.22205979-96.48977507 234.93349328 0 104.77750385 50.13431793 203.00641371 141.19198061 276.56537441 89.70500228 72.5068915 208.71764651 112.42110864 335.15918753 112.42110863s245.32536046-39.91421714 334.94447952-112.42110863c91.05766267-73.55896069 141.1919806-171.76639976 141.19198061-276.56537441S909.1368121 205.41452769 817.99326623 131.85556699999995c-89.70500228-72.5068915-208.71764651-112.42110864-335.09477513-112.42110864a559.65787201 559.65787201 0 0 0-215.58830249 41.99688474c-9.79068479-0.51529919-48.86754072-12.88247998-135.6525142-57.60615632a31.60501756 31.60501756 0 0 0-14.51426079-3.52121119zM483.04878671 754.46582451c-238.94853286 0-433.34515579-155.23388378-433.34515579-346.0448831 0-74.82573789 29.50087916-146.00143979 85.34642987-206.11967971 13.29042518-14.27808198 16.57545757-40.66569515 10.73539999-85.58260868-2.83414559-21.47079998-7.40742599-44.22984793-11.87335238-63.72533431 120.60148343 60.39736031 138.42224741 52.92552192 148.14851979 48.80312833 61.55678351-25.76495997 130.97187982-39.46333034 201.00962932-39.46333035 238.94853286 0 433.34515579 155.23388378 433.34515578 346.04488312S721.93290716 754.46582451 483.04878671 754.46582451zM231.99072265 396.20405622m-59.55999911 0a59.55999912 59.55999912 0 1 1 119.11999823 0 59.55999912 59.55999912 0 1 1-119.11999823 0ZM482.9629035 396.20405622m-59.55999912 0a59.55999912 59.55999912 0 1 1 119.11999824 0 59.55999912 59.55999912 0 1 1-119.11999824 0ZM733.93508435 396.20405622m-59.55999912 0a59.55999912 59.55999912 0 1 1 119.11999823 0 59.55999912 59.55999912 0 1 1-119.11999823 0Z"  horiz-adv-x="1024" />

    
    <glyph glyph-name="evaluate-normal" unicode="&#58950;" d="M696.09090869 445.36363652m-61.36363564 0a61.36363652 61.36363652 0 1 1 122.72727216 0 61.36363652 61.36363652 0 1 1-122.72727216 0ZM327.90909131 445.36363652m-61.36363652 0a61.36363652 61.36363652 0 1 1 122.72727216 0 61.36363652 61.36363652 0 1 1-122.72727216 0ZM512-66C263.47727305-66 62 135.47727305 62 384S263.47727305 834 512 834s450-201.47727305 450-450-201.47727305-450-450-450z m0 40.90909131c225.94090869 0 409.09090869 183.15 409.09090869 409.09090869S737.94090869 793.09090869 512 793.09090869 102.90909131 609.94090869 102.90909131 384s183.15-409.09090869 409.09090869-409.09090869zM368.81818174 189.68181826a20.45454521 20.45454521 0 0 0 0 40.90909043h286.36363652a20.45454521 20.45454521 0 0 0 0-40.90909043H368.81818174z"  horiz-adv-x="1024" />

    
    <glyph glyph-name="bag" unicode="&#59058;" d="M622.72 649.6H401.38666667c-12.16 0-22.18666667-9.92-22.18666667-22.18666667s9.92-22.18666667 22.18666667-22.18666666h221.33333333c12.16 0 22.18666667 9.92 22.18666667 22.18666666s-10.02666667 22.18666667-22.18666667 22.18666667zM954.66666667 118.39999999999998h-4.48l-56.74666667 453.65333333c-5.54666667 44.26666667-60.8 77.54666667-105.49333333 77.54666667h-56c-11.09333333 99.41333333-95.57333333 177.06666667-197.86666667 177.06666667h-44.26666667c-102.4 0-186.88-77.65333333-197.86666666-177.06666667h-73.6c-44.69333333 0-82.34666667-33.28-87.89333334-77.54666667L73.81333333 118.39999999999998H69.33333333v-44.26666667h0.10666667C69.33333333 1.919999999999959 127.89333333-58.66666667000004 202.13333333-58.66666667000004h619.73333334c74.24 0 132.90666667 60.58666667 132.69333333 132.8h0.10666667V118.39999999999998zM174.50666667 566.50666667c2.77333333 22.08 21.65333333 38.82666667 43.94666666 38.82666666h72.21333334v-94.72c-13.22666667-7.68-22.18666667-21.76-22.18666667-38.08 0-24.42666667 19.84-44.26666667 44.26666667-44.26666666s44.26666667 19.84 44.26666666 44.26666666c0 16.32-8.96 30.50666667-22.18666666 38.08V627.41333333c0 85.44 69.54666667 154.98666667 154.98666666 154.98666667h44.26666667c85.44 0 154.98666667-69.54666667 154.98666667-154.98666667v-116.8c-13.22666667-7.68-22.18666667-21.76-22.18666667-38.08 0-24.42666667 19.84-44.26666667 44.26666667-44.26666666s44.26666667 19.84 44.26666666 44.26666666c0 16.32-8.96 30.50666667-22.18666666 38.08v94.72h54.61333333c25.92 0 59.30666667-21.01333333 61.54666667-38.82666666L905.6 118.39999999999998H118.4l56.10666667 448.10666667z m713.70666666-550.93333334c-17.06666667-19.30666667-40.64-29.97333333-66.34666666-29.97333333h-619.73333334c-25.81333333 0-49.28 10.66666667-66.34666666 29.97333333-14.61333333 16.53333333-21.76 37.01333333-21.65333334 58.56h795.84c0-21.54666667-7.14666667-42.13333333-21.76-58.56z"  horiz-adv-x="1024" />

    
    <glyph glyph-name="record" unicode="&#58969;" d="M512.15500127 248.92146620999995c90.17980137 0 163.26811758 77.40768779 163.26811845 172.85753584V661.15279658C675.42311972 756.64397872 602.33480263 834 512.15500127 834s-163.26811758-77.35602129-163.26811758-172.84720342v-239.37379453c-0.0103333-95.44984805 73.08831621-172.85753673 163.26811758-172.85753583zM749.55511162 489.86594092a34.27597177 34.27597177 0 0 1-34.35863907-34.19330362v-46.89308407c0-111.60099229-91.12014317-202.5351334-203.17580595-202.53513341s-203.19647255 90.93414199-203.19647256 202.53513341v46.89308407a34.34830489 34.34830489 0 0 1-68.69661065 0v-46.89308407c0-139.01556885 103.70625557-257.03361826 239.22912657-272.27541974v-157.51240049h-87.09010752c-19.44750586 0-43.52438672-2.55235605-43.52438672-22.46486571s24.07688086-22.52686729 43.52438672-22.52686729h239.5081292c19.41650596 0 43.53472002 2.65568994 43.53472002 22.52686729s-24.11821406 22.46486661-43.53472002 22.46486571h-87.09010752V136.50413348999996C675.83645615 155.77597147999995 783.87241661 272.83301162 783.87241661 408.77955323v46.89308408a34.2656376 34.2656376 0 0 1-34.31730499 34.19330361z"  horiz-adv-x="1024" />

    
    <glyph glyph-name="add2" unicode="&#59096;" d="M512 831.06c-247.18 0-447.56-200.38-447.56-447.56S264.82-64.06 512-64.06 959.56 136.32 959.56 383.5 759.18 831.06 512 831.06zM761.18 338.6h-204.3v-204.3c0-24.81-20.11-44.91-44.88-44.91-24.82 0-44.93 20.11-44.93 44.91V338.6H262.78c-24.78 0-44.89 20.11-44.89 44.9 0 24.8 20.11 44.9 44.89 44.9h204.29V632.7c0 24.8 20.11 44.91 44.93 44.91 24.78 0 44.88-20.11 44.88-44.91v-204.3h204.3c24.82 0 44.93-20.1 44.93-44.9 0-24.8-20.11-44.9-44.93-44.9z"  horiz-adv-x="1024" />

    
    <glyph glyph-name="camera" unicode="&#58893;" d="M958.22539653 60.058546829999955c0-17.41309394-14.14555375-31.43456389-31.60000895-31.43456387H103.94976153a31.51728643 31.51728643 0 0 0-31.64137023 31.43456387V531.24611507a31.43456389 31.43456389 0 0 0 26.51257296 30.93822867l172.18695984 28.53927512 56.70629881 140.62831213a31.68273151 31.68273151 0 0 0 29.36650048 19.77068625h316.37234105c12.94607697 0 24.60995462-7.77591844 29.40786176-19.77068625l56.66493753-140.62831213 172.26968238-28.53927512c15.26230799-2.4816761 26.42985042-15.59319814 26.42985042-30.93822867v-471.18756824z m-16.04817207 564.12633806l-137.11260435 22.70733629-43.47069297 107.87018766a94.46913674 94.46913674 0 0 1-88.1408627 59.18797491h-316.37234105c-38.96231471 0-73.58169625-23.2036715-88.18222397-59.27069744L225.55189027 646.89222118l-137.11260435-22.70733629a93.97280152 93.97280152 0 0 1-79.33091255-92.93876982v-471.18756824a94.67594309 94.67594309 0 0 1 94.84138816-94.30369166h822.67562605a94.71730434 94.71730434 0 0 1 94.9241107 94.30369166V531.24611507a94.09688532 94.09688532 0 0 1-79.37227382 92.93876982M663.56772133 229.06068903000005a189.68277633 189.68277633 0 0 0-266.69745786-20.43246653 187.82151926 187.82151926 0 0 0-20.51518906 265.66342616 189.68277633 189.68277633 0 0 0 266.69745786 20.34974399 187.86288053 187.86288053 0 0 0 20.51518906-265.58070362z m-143.60632346 373.78178142c-139.38747408 0-252.26237522-112.41992718-252.26237523-251.18698224 0-138.76705507 112.87490114-251.22834352 252.26237523-251.22834351 139.26339029 0 252.22101396 112.46128845 252.22101395 251.22834351 0.04136127 138.72569381-112.95762366 251.18698225-252.22101395 251.18698224M519.75459153 477.22829869a125.65553303 125.65553303 0 0 1-125.9450619-125.36600414v-0.04136127a15.71728194 15.71728194 0 0 1 31.47592515 0v0.04136127a94.22096913 94.22096913 0 0 0 94.42777548 94.0141628 15.71728194 15.71728194 0 0 1 0.04136127 31.35184134"  horiz-adv-x="1024" />

    
    <glyph glyph-name="minus" unicode="&#58897;" d="M894.710825 472.607925v-106.3195875c0-29.3706-23.814-53.1349875-53.1349875-53.1349875H168.2846c-29.3706 0-53.1349875 23.814-53.1349875 53.1349875V472.607925c0 29.3706 23.814 53.1349875 53.1349875 53.1349875h673.2912375c29.3706 0 53.1349875-23.814 53.1349875-53.1349875z"  horiz-adv-x="1024" />

    
    <glyph glyph-name="message" unicode="&#59089;" d="M498.90731506 240.56380318000004a25.14832553 25.14832553 0 0 1 11.86119477-2.46298033c4.79633013 0 9.52784497 0 11.92601004 2.46298033l428.68820867 264.96483171 2.39816505 2.46298034 2.39816508 2.39816508c0 2.46298033 2.39816507 2.46298033 2.39816506 4.86114539 0 0 2.39816507 2.46298033 2.39816505 4.86114538V658.68712251C963.30873856 721.88201266 913.27134863 772.8916317000001 848.97459887 772.8916317000001H172.62723607A113.42672589 113.42672589 0 0 1 58.29309637 658.68712251V111.77585781000005c0-65.65787049 49.97257469-116.66748951 114.3341397-116.66748951h678.81034311C914.50283879-4.891631699999948 965.70690363 47.349477500000035 965.70690363 111.77585781000005V354.83312761c0 14.64825144-9.52784497 24.37054224-23.85202007 24.37054226-14.25935982 0-23.78720481-9.72229081-23.7872048-24.37054226v-243.0572698c0.06481526-18.08346087-7.00004936-35.38913848-19.50939687-48.15774706a65.78750103 65.78750103 0 0 0-47.18551796-19.89828847H172.62723607c-38.11137991 0-66.63009955 29.16687239-66.63009954 65.65787047V486.14886859l392.91017853-245.58506541zM172.62723607 724.28017772h678.81034311c17.69456923 0 34.67617048-7.12967992 47.185518-19.89828847 12.50934749-12.76860857 19.50939684-30.07428618 19.50939686-48.15774706v-116.66748951L510.76850982 289.24007240000003l-404.83618858 252.77956061v116.6674895c0 36.42618283 28.58353493 65.59305522 66.69491483 65.59305521z m0 0"  horiz-adv-x="1024" />

    
    <glyph glyph-name="brand" unicode="&#58919;" d="M514.44444444 834.66666666C266.04444444 834.66666666 64.44444444 633.06666666 64.44444444 384.66666666c0-248.4 201.6-450 450-450 248.4 0 450 201.6 450 450 0 248.4-201.6 450-450 450z m0-840C299.04444444-5.333333339999967 124.44444444 169.26666666000006 124.44444444 384.66666666s174.6 390 390 390 390-174.6 390-390-174.6-390-390-390z m210 510c0 82.8-67.2 150-150 150H334.44444444c-16.8 0-30-13.2-30-30v-480c0-16.8 13.2-30 30-30s30 13.2 30 30V354.66666666000003h170.4c2.4-4.8 5.4-10.2 7.8-15l120-207.6c8.4-14.4 26.4-19.2 40.8-10.8 14.4 8.4 19.2 26.4 10.8 40.8L602.04444444 357.66666666000003C671.64444444 370.26666666000006 724.44444444 431.46666666 724.44444444 504.66666666z m-150-90H364.44444444V594.6666666599999h210c49.8 0 90-40.2 90-90s-40.2-90-90-90z"  horiz-adv-x="1024" />

    
    <glyph glyph-name="zhifubao" unicode="&#58906;" d="M588.148364 224.395636c152.948364-67.956364 252.532364-109.312 346.321454-129.722181C842.193455-39.796364 687.406545-128 512-128 229.236364-128 0 101.236364 0 384S229.236364 896 512 896s512-229.236364 512-512c0-74.938182-16.081455-146.106182-45.009455-210.245818-174.126545 27.810909-339.083636 106.705455-339.083636 106.705454 21.550545 27.787636 38.935273 54.853818 52.130909 81.221819 13.149091 26.344727 23.109818 49.803636 29.789091 70.423272a406.341818 406.341818 0 0 1 17.128727 67.560728h0.116364v0.721454l-0.116364-0.698182h-167.330909v79.778909h210.594909V613.934545h-210.618181V696.599273h-55.319273c-9.099636 0-17.268364-0.698182-24.436364-2.141091a49.454545 49.454545 0 0 1-16.523636-5.399273c-4.794182-2.629818-7.214545-6.097455-7.214546-10.426182v-64.674909h-204.823272V579.490909h204.846545v-79.802182h-147.362909v-34.490182h311.947636c-0.930909-3.84-3.118545-10.542545-6.469818-20.130909-3.351273-9.588364-8.145455-21.434182-14.382545-35.584a541.626182 541.626182 0 0 0-23.714909-46.708363 418.210909 418.210909 0 0 0-35.211637-52.130909 870.539636 870.539636 0 0 0-37.376 14.382545c-14.382545 6.237091-29.579636 12.706909-45.637818 19.432727-16.058182 6.679273-33.047273 12.916364-51.037091 18.664728a552.773818 552.773818 0 0 1-56.436363 14.731636 385.768727 385.768727 0 0 1-61.067637 7.540364 196.654545 196.654545 0 0 1-64.349091-7.889455c-21.317818-6.237091-40.727273-15.36-58.205091-27.322182a152.040727 152.040727 0 0 1-42.775272-43.845818 109.335273 109.335273 0 0 1-17.245091-57.483636c0-24.436364 5.026909-45.893818 15.104-64.349091a134.865455 134.865455 0 0 1 40.96-45.986909c17.245091-12.218182 37.492364-21.434182 60.741818-27.694546a286.254545 286.254545 0 0 1 74.379636-9.309091h11.496728c1.442909 0 2.653091 0.232727 3.607272 0.698182 10.053818 0.465455 22.760727 1.559273 38.097455 3.258182 15.313455 1.652364 33.163636 5.725091 53.527273 12.194909 20.363636 6.469818 43.240727 15.825455 67.560727 29.835636 27.717818 15.965091 103.866182 76.916364 103.866182 76.916364zM185.646545 247.389091c0.581818 26.740364 30.161455 98.932364 144.709819 87.063273 60.509091-6.260364 128.674909-42.868364 142.08-49.338182 13.405091-6.446545 27.066182-13.521455 40.96-21.178182-1.908364-1.931636-3.84-3.723636-5.748364-5.422545-1.908364-1.652364-53.876364-50.548364-85.736727-69.469091-31.883636-18.944-72.797091-38.074182-123.438546-36.514909-15.336727 0.465455-114.734545 6.981818-112.826182 94.859636z"  horiz-adv-x="1024" />

    
    <glyph glyph-name="plus" unicode="&#59034;" d="M435.35104942 77.40419769000005V307.35104942H205.40419769a76.64895058 76.64895058 0 0 0-76.64895057 76.64895058 76.64895058 76.64895058 0 0 0 76.64895059 76.64895058h229.94685171V690.59580231a76.64895058 76.64895058 0 0 0 76.64895058 76.64895057 76.64895058 76.64895058 0 0 0 76.64895058-76.64895059v-229.94685171h229.94685171a76.64895058 76.64895058 0 0 0 76.64895059-76.64895058 76.64895058 76.64895058 0 0 0-76.64895059-76.64895058H588.64895058v-229.94685171a76.64895058 76.64895058 0 0 0-76.64895058-76.64895059 76.64895058 76.64895058 0 0 0-76.64895058 76.64895059z"  horiz-adv-x="1024" />

    
    <glyph glyph-name="share" unicode="&#58888;" d="M720.42767334 453.18502808c-25.75332641 0-50.1965332 0.87341309-74.64138794 0-57.61724854-2.18270874-115.23532104-3.05529785-171.10656738-22.26132202-72.02197266-24.88073731-109.99731445-76.38739013-120.91003419-150.15536499-7.42071533-50.63323974-3.92871094-100.83059692 0.8734131-151.46466065 0.87258911-7.85742188-3.92871094-20.07861328-10.04013062-24.44403076-9.6026001-6.54730224-19.64190674-0.87341309-26.19003296 8.73001099-54.99865723 84.6798706-96.02929688 173.2901001-87.29928588 278.04940795 10.03930664 123.09191895 68.09326172 204.7164917 187.2572937 244.87454224 60.67337036 20.07943726 123.09274292 27.93603516 186.38470458 28.80944824 32.73733521 0.43670654 65.47467041 1.74600219 98.21200562 0.87341309 15.27731323-0.43670654 19.64273071 5.23718262 19.20602417 19.64190674-0.87341309 26.62591552 0 53.25265503-0.43670655 80.3152771 0 17.02331543 6.11141968 30.1187439 21.82543945 36.66604614 16.14990234 6.54730224 30.55462646 2.18270874 43.21252442-10.47601319 68.09326172-68.52996826 136.62405396-136.62322998 204.71813965-204.71731567 18.76931763-18.77014161 18.33261109-38.41204834-0.43670654-57.18136597-68.09326172-68.52996826-136.18734742-136.62322998-204.71731568-205.15319824-11.78530883-11.78613281-25.31744385-17.0241394-41.46734618-10.47683715-15.71401977 6.54730224-23.13473511 18.77014161-23.13473512 35.79345703V433.97817993c0 6.1105957-0.87341309 11.78530883-1.30929565 19.20602418zM475.98901367-37.875H246.82766724C160.837677-37.875 90.56088257 31.96508788999995 90.56088257 117.95507812000005a80665.58990479 80665.58990479 0 0 0 0 459.63198853c0 85.55328369 68.96667481 156.2659607 154.52078247 158.44866944 45.83193969 0.87341309 91.66470337 0.43670654 137.49664306 0.43670654 11.78530883 0 22.26132202-3.05612182 24.44403077-16.58743286 2.18270874-13.53131104-6.98400878-18.77014161-17.89672851-23.57061768-21.82461548-9.16671753-43.64923096-19.64273071-65.91055299-28.80944824-7.42071533-3.05529785-15.71401977-3.92788696-23.57144165-4.36459351-24.00732422-1.31011963-48.45135498 0.43670654-71.58526611-3.92871094-37.53863526-7.42071533-64.16537476-41.46734619-64.16537476-80.3152771-0.43670654-153.21066284-0.43670654-306.42132568 0-459.63198852 0-46.70535278 35.79345703-83.37139893 82.93469239-83.37139893 153.21066284-0.87341309 306.42132568-0.87341309 459.63198852 0 48.88806153 0.43670654 84.24398804 38.41204834 84.24398804 87.73681641 0 35.35592651-0.43670654 70.71185302 0.43670654 106.50448608 0 7.85742188 3.05529785 17.89672852 8.73001099 23.13473511 10.47601318 10.03930664 23.13391113 17.89672852 35.79263305 25.31661987 11.78530883 7.42071533 28.3727417 0 27.93603516-13.53131104-1.31011963-61.98266602 9.16589356-124.40203857-5.67471313-185.51129149-17.02331543-69.84008789-79.87939453-116.54544067-151.46466065-116.54544068C629.63638305-37.875 552.81311036-37.875 475.98901367-37.875z"  horiz-adv-x="1111" />

    
    </font>
</defs>
</svg>
